<?xml version="1.0" encoding="utf-8"?>
<!-- Generator: Adobe Illustrator 16.0.0, SVG Export Plug-In . SVG Version: 6.00 Build 0)  -->
<!DOCTYPE svg PUBLIC "-//W3C//DTD SVG 1.1//EN" "http://www.w3.org/Graphics/SVG/1.1/DTD/svg11.dtd">
<svg version="1.1" id="Layer_1" xmlns="http://www.w3.org/2000/svg" xmlns:xlink="http://www.w3.org/1999/xlink" x="0px" y="0px"
	 width="117.568px" height="34px" viewBox="0 0 117.568 34" enable-background="new 0 0 117.568 34" xml:space="preserve">
<path fill="#58A6A2" d="M117.569,31c0,1.656-0.815,3-1.823,3H1.824C0.816,34,0,32.656,0,31V3c0-1.657,0.815-3,1.824-3h113.921
	c1.008,0,1.823,1.343,1.823,3L117.569,31L117.569,31z"/>
<g>
	<path fill="#FFFFFF" d="M14.935,12.212c0-0.16,0.128-0.304,0.309-0.304h3.537c1.97,0,3.586,1.601,3.586,3.538
		c0,1.985-1.616,3.603-3.568,3.603h-2.643v3.764c0,0.156-0.146,0.307-0.309,0.307h-0.608c-0.18,0-0.308-0.146-0.308-0.307
		L14.935,12.212L14.935,12.212z M18.695,17.861c1.312,0,2.435-1.072,2.435-2.449c0-1.296-1.12-2.289-2.435-2.289H16.15v4.738H18.695
		L18.695,17.861z"/>
	<path fill="#FFFFFF" d="M29.719,11.747c3.2,0,5.768,2.577,5.768,5.778s-2.562,5.746-5.768,5.746c-3.206,0-5.746-2.545-5.746-5.746
		S26.518,11.747,29.719,11.747z M29.719,22.152c2.545,0,4.646-2.08,4.646-4.627c0-2.544-2.103-4.657-4.646-4.657
		c-2.544,0-4.625,2.113-4.625,4.657C25.094,20.072,27.175,22.152,29.719,22.152z"/>
	<path fill="#FFFFFF" d="M38.246,12.212c0-0.16,0.128-0.304,0.304-0.304h4.146c1.921,0,3.486,1.505,3.486,3.41
		c0,1.473-0.978,2.706-2.365,3.266l2.188,4.064c0.112,0.209,0,0.465-0.271,0.465H44.92c-0.146,0-0.227-0.08-0.256-0.146l-2.13-4.236
		h-3.062v4.08c0,0.156-0.146,0.307-0.306,0.307h-0.625c-0.176,0-0.305-0.146-0.305-0.307L38.246,12.212L38.246,12.212z
		 M42.615,17.669c1.229,0,2.306-1.023,2.306-2.335c0-1.216-1.071-2.257-2.306-2.257h-3.104v4.594L42.615,17.669L42.615,17.669z"/>
	<path fill="#FFFFFF" d="M50.727,12.98h-2.781c-0.182,0-0.309-0.144-0.309-0.304v-0.464c0-0.16,0.127-0.304,0.309-0.304h6.781
		c0.181,0,0.31,0.144,0.31,0.304v0.464c0,0.16-0.129,0.304-0.31,0.304h-2.781v9.829c0,0.159-0.146,0.31-0.307,0.31h-0.604
		c-0.16,0-0.308-0.146-0.308-0.31V12.98L50.727,12.98z"/>
	<path fill="#FFFFFF" d="M57.109,12.212c0-0.16,0.129-0.304,0.307-0.304h6.308c0.18,0,0.309,0.144,0.309,0.304v0.464
		c0,0.16-0.129,0.304-0.309,0.304h-5.379v4.387h4.594c0.16,0,0.31,0.146,0.31,0.305v0.463c0,0.16-0.146,0.307-0.31,0.307h-4.595
		v4.371c0,0.156-0.146,0.307-0.303,0.307h-0.625c-0.178,0-0.307-0.146-0.307-0.307V12.212L57.109,12.212z"/>
	<path fill="#FFFFFF" d="M71.464,11.747c3.201,0,5.765,2.577,5.765,5.778s-2.562,5.746-5.765,5.746
		c-3.201,0-5.746-2.545-5.746-5.746S68.262,11.747,71.464,11.747z M71.464,22.152c2.545,0,4.646-2.08,4.646-4.627
		c0-2.544-2.103-4.657-4.646-4.657s-4.625,2.113-4.625,4.657C66.839,20.072,68.919,22.152,71.464,22.152z"/>
	<path fill="#FFFFFF" d="M79.99,12.212c0-0.16,0.127-0.304,0.304-0.304h0.625c0.159,0,0.306,0.144,0.306,0.304v9.829h4.608
		c0.176,0,0.306,0.146,0.306,0.307v0.465c0,0.156-0.13,0.307-0.306,0.307h-5.539c-0.177,0-0.304-0.146-0.304-0.307V12.212
		L79.99,12.212z"/>
	<path fill="#FFFFFF" d="M88.167,12.212c0-0.16,0.144-0.304,0.304-0.304h0.646c0.155,0,0.306,0.144,0.306,0.304v10.597
		c0,0.159-0.146,0.31-0.306,0.31H88.47c-0.16,0-0.304-0.146-0.304-0.31V12.212z"/>
	<path fill="#FFFFFF" d="M97.928,11.747c3.2,0,5.766,2.577,5.766,5.778s-2.562,5.746-5.766,5.746c-3.204,0-5.746-2.545-5.746-5.746
		S94.727,11.747,97.928,11.747z M97.928,22.152c2.546,0,4.646-2.08,4.646-4.627c0-2.544-2.1-4.657-4.646-4.657
		s-4.628,2.113-4.628,4.657C93.301,20.072,95.383,22.152,97.928,22.152z"/>
</g>
</svg>
