<?xml version="1.0" encoding="utf-8"?>
<!-- Generator: Adobe Illustrator 16.0.0, SVG Export Plug-In . SVG Version: 6.00 Build 0)  -->
<!DOCTYPE svg PUBLIC "-//W3C//DTD SVG 1.1//EN" "http://www.w3.org/Graphics/SVG/1.1/DTD/svg11.dtd">
<svg version="1.1" id="Layer_1" xmlns="http://www.w3.org/2000/svg" xmlns:xlink="http://www.w3.org/1999/xlink" x="0px" y="0px"
	 width="195.432px" height="34px" viewBox="0 0 195.432 34" enable-background="new 0 0 195.432 34" xml:space="preserve">
<rect x="0" fill="#E68C8B" width="195.334" height="34"/>
<polygon opacity="0.5" fill="#030303" stroke="#010101" stroke-miterlimit="10" enable-background="new    " points="
	189.236,15.128 189.644,16.514 190.791,15.633 190.305,16.995 191.75,16.956 190.558,17.771 191.75,18.588 190.305,18.548 
	190.791,19.911 189.644,19.03 189.236,20.415 188.828,19.03 187.682,19.911 188.167,18.548 186.722,18.588 187.915,17.771 
	186.722,16.956 188.167,16.995 187.682,15.633 188.828,16.514 "/>
<g opacity="0.7">
	<path fill="#010101" d="M1.096,0.915c0.256,0,0.456,0.2,0.456,0.456c0,0.248-0.2,0.456-0.456,0.456
		c-0.248,0-0.456-0.208-0.456-0.456C0.64,1.115,0.848,0.915,1.096,0.915z"/>
	<path fill="#010101" d="M3.063,0.915c0.256,0,0.456,0.2,0.456,0.456c0,0.248-0.2,0.456-0.456,0.456
		c-0.248,0-0.455-0.208-0.455-0.456C2.608,1.115,2.815,0.915,3.063,0.915z"/>
	<path fill="#010101" d="M5.031,0.915c0.258,0,0.456,0.2,0.456,0.456c0,0.248-0.198,0.456-0.456,0.456
		c-0.246,0-0.454-0.208-0.454-0.456C4.575,1.115,4.783,0.915,5.031,0.915z"/>
	<path fill="#010101" d="M7,0.915c0.256,0,0.456,0.2,0.456,0.456c0,0.248-0.2,0.456-0.456,0.456c-0.248,0-0.456-0.208-0.456-0.456
		C6.544,1.115,6.752,0.915,7,0.915z"/>
	<path fill="#010101" d="M8.968,0.915c0.256,0,0.456,0.2,0.456,0.456c0,0.248-0.2,0.456-0.456,0.456
		c-0.248,0-0.455-0.208-0.455-0.456C8.513,1.115,8.72,0.915,8.968,0.915z"/>
	<path fill="#010101" d="M10.936,0.915c0.256,0,0.456,0.2,0.456,0.456c0,0.248-0.2,0.456-0.456,0.456
		c-0.248,0-0.456-0.208-0.456-0.456C10.479,1.115,10.688,0.915,10.936,0.915z"/>
	<path fill="#010101" d="M12.903,0.915c0.258,0,0.456,0.2,0.456,0.456c0,0.248-0.198,0.456-0.456,0.456
		c-0.248,0-0.453-0.208-0.453-0.456C12.448,1.115,12.655,0.915,12.903,0.915z"/>
	<path fill="#010101" d="M14.872,0.915c0.256,0,0.456,0.2,0.456,0.456c0,0.248-0.2,0.456-0.456,0.456
		c-0.248,0-0.455-0.208-0.455-0.456C14.417,1.115,14.624,0.915,14.872,0.915z"/>
	<path fill="#010101" d="M16.84,0.915c0.256,0,0.456,0.2,0.456,0.456c0,0.248-0.2,0.456-0.456,0.456
		c-0.248,0-0.456-0.208-0.456-0.456C16.384,1.115,16.592,0.915,16.84,0.915z"/>
	<path fill="#010101" d="M18.808,0.915c0.256,0,0.456,0.2,0.456,0.456c0,0.248-0.2,0.456-0.456,0.456
		c-0.248,0-0.455-0.208-0.455-0.456C18.353,1.115,18.56,0.915,18.808,0.915z"/>
	<path fill="#010101" d="M20.775,0.915c0.256,0,0.456,0.2,0.456,0.456c0,0.248-0.2,0.456-0.456,0.456
		c-0.248,0-0.456-0.208-0.456-0.456C20.319,1.115,20.527,0.915,20.775,0.915z"/>
	<path fill="#010101" d="M22.743,0.915c0.256,0,0.456,0.2,0.456,0.456c0,0.248-0.2,0.456-0.456,0.456
		c-0.248,0-0.455-0.208-0.455-0.456C22.288,1.115,22.495,0.915,22.743,0.915z"/>
	<path fill="#010101" d="M24.712,0.915c0.256,0,0.456,0.2,0.456,0.456c0,0.248-0.2,0.456-0.456,0.456
		c-0.248,0-0.455-0.208-0.455-0.456C24.257,1.115,24.464,0.915,24.712,0.915z"/>
	<path fill="#010101" d="M26.68,0.915c0.256,0,0.456,0.2,0.456,0.456c0,0.248-0.2,0.456-0.456,0.456
		c-0.248,0-0.456-0.208-0.456-0.456C26.224,1.115,26.432,0.915,26.68,0.915z"/>
	<path fill="#010101" d="M28.647,0.915c0.256,0,0.456,0.2,0.456,0.456c0,0.248-0.2,0.456-0.456,0.456
		c-0.248,0-0.455-0.208-0.455-0.456C28.192,1.115,28.399,0.915,28.647,0.915z"/>
	<path fill="#010101" d="M30.615,0.915c0.256,0,0.454,0.2,0.454,0.456c0,0.248-0.198,0.456-0.454,0.456
		c-0.248,0-0.456-0.208-0.456-0.456C30.159,1.115,30.367,0.915,30.615,0.915z"/>
	<path fill="#010101" d="M32.583,0.915c0.256,0,0.456,0.2,0.456,0.456c0,0.248-0.2,0.456-0.456,0.456
		c-0.248,0-0.455-0.208-0.455-0.456C32.128,1.115,32.335,0.915,32.583,0.915z"/>
	<path fill="#010101" d="M34.552,0.915c0.256,0,0.456,0.2,0.456,0.456c0,0.248-0.2,0.456-0.456,0.456
		c-0.248,0-0.455-0.208-0.455-0.456C34.097,1.115,34.304,0.915,34.552,0.915z"/>
	<path fill="#010101" d="M36.52,0.915c0.256,0,0.456,0.2,0.456,0.456c0,0.248-0.2,0.456-0.456,0.456
		c-0.248,0-0.456-0.208-0.456-0.456C36.063,1.115,36.271,0.915,36.52,0.915z"/>
	<path fill="#010101" d="M38.487,0.915c0.258,0,0.456,0.2,0.456,0.456c0,0.248-0.198,0.456-0.456,0.456
		c-0.248,0-0.453-0.208-0.453-0.456C38.032,1.115,38.239,0.915,38.487,0.915z"/>
	<path fill="#010101" d="M40.455,0.915c0.256,0,0.456,0.2,0.456,0.456c0,0.248-0.2,0.456-0.456,0.456
		c-0.248,0-0.456-0.208-0.456-0.456C39.999,1.115,40.207,0.915,40.455,0.915z"/>
	<path fill="#010101" d="M42.424,0.915c0.256,0,0.456,0.2,0.456,0.456c0,0.248-0.2,0.456-0.456,0.456
		c-0.248,0-0.456-0.208-0.456-0.456C41.968,1.115,42.176,0.915,42.424,0.915z"/>
	<path fill="#010101" d="M44.392,0.915c0.256,0,0.456,0.2,0.456,0.456c0,0.248-0.2,0.456-0.456,0.456
		c-0.248,0-0.455-0.208-0.455-0.456C43.937,1.115,44.144,0.915,44.392,0.915z"/>
	<path fill="#010101" d="M46.359,0.915c0.258,0,0.456,0.2,0.456,0.456c0,0.248-0.198,0.456-0.456,0.456
		c-0.248,0-0.456-0.208-0.456-0.456C45.903,1.115,46.111,0.915,46.359,0.915z"/>
	<path fill="#010101" d="M48.327,0.915c0.256,0,0.456,0.2,0.456,0.456c0,0.248-0.2,0.456-0.456,0.456
		c-0.248,0-0.455-0.208-0.455-0.456C47.872,1.115,48.079,0.915,48.327,0.915z"/>
	<path fill="#010101" d="M50.295,0.915c0.256,0,0.456,0.2,0.456,0.456c0,0.248-0.2,0.456-0.456,0.456
		c-0.248,0-0.456-0.208-0.456-0.456C49.839,1.115,50.047,0.915,50.295,0.915z"/>
	<path fill="#010101" d="M52.264,0.915c0.256,0,0.456,0.2,0.456,0.456c0,0.248-0.2,0.456-0.456,0.456
		c-0.248,0-0.456-0.208-0.456-0.456C51.808,1.115,52.016,0.915,52.264,0.915z"/>
	<path fill="#010101" d="M54.231,0.915c0.256,0,0.456,0.2,0.456,0.456c0,0.248-0.2,0.456-0.456,0.456
		c-0.248,0-0.455-0.208-0.455-0.456C53.776,1.115,53.983,0.915,54.231,0.915z"/>
	<path fill="#010101" d="M56.199,0.915c0.256,0,0.454,0.2,0.454,0.456c0,0.248-0.198,0.456-0.454,0.456
		c-0.248,0-0.456-0.208-0.456-0.456C55.743,1.115,55.951,0.915,56.199,0.915z"/>
	<path fill="#010101" d="M58.167,0.915c0.256,0,0.456,0.2,0.456,0.456c0,0.248-0.2,0.456-0.456,0.456
		c-0.248,0-0.455-0.208-0.455-0.456C57.712,1.115,57.919,0.915,58.167,0.915z"/>
	<path fill="#010101" d="M60.135,0.915c0.256,0,0.456,0.2,0.456,0.456c0,0.248-0.2,0.456-0.456,0.456
		c-0.248,0-0.456-0.208-0.456-0.456C59.679,1.115,59.887,0.915,60.135,0.915z"/>
	<path fill="#010101" d="M62.104,0.915c0.256,0,0.456,0.2,0.456,0.456c0,0.248-0.2,0.456-0.456,0.456
		c-0.248,0-0.456-0.208-0.456-0.456C61.647,1.115,61.855,0.915,62.104,0.915z"/>
	<path fill="#010101" d="M64.071,0.915c0.258,0,0.456,0.2,0.456,0.456c0,0.248-0.198,0.456-0.456,0.456
		c-0.246,0-0.453-0.208-0.453-0.456C63.616,1.115,63.823,0.915,64.071,0.915z"/>
	<path fill="#010101" d="M66.039,0.915c0.256,0,0.456,0.2,0.456,0.456c0,0.248-0.2,0.456-0.456,0.456
		c-0.248,0-0.456-0.208-0.456-0.456C65.583,1.115,65.791,0.915,66.039,0.915z"/>
	<path fill="#010101" d="M68.007,0.915c0.256,0,0.456,0.2,0.456,0.456c0,0.248-0.2,0.456-0.456,0.456
		c-0.248,0-0.455-0.208-0.455-0.456C67.552,1.115,67.759,0.915,68.007,0.915z"/>
	<path fill="#010101" d="M69.976,0.915c0.256,0,0.456,0.2,0.456,0.456c0,0.248-0.2,0.456-0.456,0.456
		c-0.248,0-0.455-0.208-0.455-0.456C69.521,1.115,69.728,0.915,69.976,0.915z"/>
	<path fill="#010101" d="M71.943,0.915c0.258,0,0.456,0.2,0.456,0.456c0,0.248-0.198,0.456-0.456,0.456
		c-0.248,0-0.456-0.208-0.456-0.456C71.487,1.115,71.695,0.915,71.943,0.915z"/>
	<path fill="#010101" d="M73.911,0.915c0.256,0,0.456,0.2,0.456,0.456c0,0.248-0.2,0.456-0.456,0.456
		c-0.248,0-0.455-0.208-0.455-0.456C73.456,1.115,73.663,0.915,73.911,0.915z"/>
	<path fill="#010101" d="M75.879,0.915c0.256,0,0.456,0.2,0.456,0.456c0,0.248-0.2,0.456-0.456,0.456
		c-0.248,0-0.456-0.208-0.456-0.456C75.423,1.115,75.631,0.915,75.879,0.915z"/>
	<path fill="#010101" d="M77.847,0.915c0.256,0,0.456,0.2,0.456,0.456c0,0.248-0.2,0.456-0.456,0.456
		c-0.248,0-0.455-0.208-0.455-0.456C77.392,1.115,77.599,0.915,77.847,0.915z"/>
	<path fill="#010101" d="M79.815,0.915c0.256,0,0.456,0.2,0.456,0.456c0,0.248-0.2,0.456-0.456,0.456
		c-0.248,0-0.455-0.208-0.455-0.456C79.36,1.115,79.567,0.915,79.815,0.915z"/>
	<path fill="#010101" d="M81.783,0.915c0.256,0,0.454,0.2,0.454,0.456c0,0.248-0.198,0.456-0.454,0.456
		c-0.248,0-0.456-0.208-0.456-0.456C81.327,1.115,81.535,0.915,81.783,0.915z"/>
	<path fill="#010101" d="M83.751,0.915c0.256,0,0.456,0.2,0.456,0.456c0,0.248-0.2,0.456-0.456,0.456
		c-0.248,0-0.455-0.208-0.455-0.456C83.296,1.115,83.503,0.915,83.751,0.915z"/>
	<path fill="#010101" d="M85.719,0.915c0.256,0,0.456,0.2,0.456,0.456c0,0.248-0.2,0.456-0.456,0.456
		c-0.248,0-0.456-0.208-0.456-0.456C85.263,1.115,85.471,0.915,85.719,0.915z"/>
	<path fill="#010101" d="M87.687,0.915c0.256,0,0.456,0.2,0.456,0.456c0,0.248-0.2,0.456-0.456,0.456
		c-0.248,0-0.455-0.208-0.455-0.456C87.231,1.115,87.438,0.915,87.687,0.915z"/>
	<path fill="#010101" d="M89.655,0.915c0.258,0,0.456,0.2,0.456,0.456c0,0.248-0.198,0.456-0.456,0.456
		c-0.246,0-0.453-0.208-0.453-0.456C89.2,1.115,89.407,0.915,89.655,0.915z"/>
	<path fill="#010101" d="M91.623,0.915c0.256,0,0.456,0.2,0.456,0.456c0,0.248-0.2,0.456-0.456,0.456
		c-0.248,0-0.456-0.208-0.456-0.456C91.167,1.115,91.375,0.915,91.623,0.915z"/>
	<path fill="#010101" d="M93.591,0.915c0.256,0,0.456,0.2,0.456,0.456c0,0.248-0.2,0.456-0.456,0.456
		c-0.248,0-0.455-0.208-0.455-0.456C93.136,1.115,93.343,0.915,93.591,0.915z"/>
	<path fill="#010101" d="M95.559,0.915c0.256,0,0.456,0.2,0.456,0.456c0,0.248-0.2,0.456-0.456,0.456
		c-0.248,0-0.456-0.208-0.456-0.456C95.103,1.115,95.311,0.915,95.559,0.915z"/>
	<path fill="#010101" d="M97.527,0.915c0.258,0,0.456,0.2,0.456,0.456c0,0.248-0.198,0.456-0.456,0.456
		c-0.248,0-0.456-0.208-0.456-0.456C97.071,1.115,97.279,0.915,97.527,0.915z"/>
	<path fill="#010101" d="M99.495,0.915c0.256,0,0.457,0.2,0.457,0.456c0,0.248-0.201,0.456-0.457,0.456
		c-0.248,0-0.455-0.208-0.455-0.456C99.04,1.115,99.247,0.915,99.495,0.915z"/>
	<path fill="#010101" d="M101.463,0.915c0.256,0,0.455,0.2,0.455,0.456c0,0.248-0.199,0.456-0.455,0.456
		c-0.248,0-0.457-0.208-0.457-0.456C101.006,1.115,101.215,0.915,101.463,0.915z"/>
	<path fill="#010101" d="M103.43,0.915c0.256,0,0.457,0.2,0.457,0.456c0,0.248-0.201,0.456-0.457,0.456
		c-0.248,0-0.455-0.208-0.455-0.456C102.975,1.115,103.182,0.915,103.43,0.915z"/>
	<path fill="#010101" d="M105.399,0.915c0.256,0,0.455,0.2,0.455,0.456c0,0.248-0.199,0.456-0.455,0.456
		c-0.248,0-0.457-0.208-0.457-0.456C104.942,1.115,105.151,0.915,105.399,0.915z"/>
	<path fill="#010101" d="M107.368,0.915c0.256,0,0.455,0.2,0.455,0.456c0,0.248-0.199,0.456-0.455,0.456
		c-0.248,0-0.457-0.208-0.457-0.456C106.911,1.115,107.12,0.915,107.368,0.915z"/>
	<path fill="#010101" d="M109.334,0.915c0.256,0,0.457,0.2,0.457,0.456c0,0.248-0.201,0.456-0.457,0.456
		c-0.248,0-0.455-0.208-0.455-0.456C108.879,1.115,109.086,0.915,109.334,0.915z"/>
	<path fill="#010101" d="M111.303,0.915c0.256,0,0.455,0.2,0.455,0.456c0,0.248-0.199,0.456-0.455,0.456
		c-0.248,0-0.457-0.208-0.457-0.456C110.846,1.115,111.055,0.915,111.303,0.915z"/>
	<path fill="#010101" d="M113.27,0.915c0.256,0,0.457,0.2,0.457,0.456c0,0.248-0.201,0.456-0.457,0.456
		c-0.248,0-0.455-0.208-0.455-0.456C112.815,1.115,113.022,0.915,113.27,0.915z"/>
	<path fill="#010101" d="M115.239,0.915c0.258,0,0.455,0.2,0.455,0.456c0,0.248-0.197,0.456-0.455,0.456
		c-0.246,0-0.455-0.208-0.455-0.456C114.782,1.115,114.991,0.915,115.239,0.915z"/>
	<path fill="#010101" d="M117.208,0.915c0.256,0,0.455,0.2,0.455,0.456c0,0.248-0.199,0.456-0.455,0.456
		c-0.248,0-0.457-0.208-0.457-0.456C116.75,1.115,116.959,0.915,117.208,0.915z"/>
	<path fill="#010101" d="M119.174,0.915c0.256,0,0.457,0.2,0.457,0.456c0,0.248-0.201,0.456-0.457,0.456
		c-0.248,0-0.455-0.208-0.455-0.456C118.719,1.115,118.926,0.915,119.174,0.915z"/>
	<path fill="#010101" d="M121.143,0.915c0.256,0,0.455,0.2,0.455,0.456c0,0.248-0.199,0.456-0.455,0.456
		c-0.248,0-0.457-0.208-0.457-0.456C120.686,1.115,120.895,0.915,121.143,0.915z"/>
	<path fill="#010101" d="M123.11,0.915c0.258,0,0.457,0.2,0.457,0.456c0,0.248-0.199,0.456-0.457,0.456
		c-0.248,0-0.455-0.208-0.455-0.456C122.655,1.115,122.862,0.915,123.11,0.915z"/>
	<path fill="#010101" d="M125.079,0.915c0.256,0,0.457,0.2,0.457,0.456c0,0.248-0.201,0.456-0.457,0.456
		c-0.248,0-0.455-0.208-0.455-0.456C124.624,1.115,124.831,0.915,125.079,0.915z"/>
	<path fill="#010101" d="M127.047,0.915c0.256,0,0.455,0.2,0.455,0.456c0,0.248-0.199,0.456-0.455,0.456
		c-0.248,0-0.457-0.208-0.457-0.456C126.59,1.115,126.799,0.915,127.047,0.915z"/>
	<path fill="#010101" d="M129.014,0.915c0.256,0,0.457,0.2,0.457,0.456c0,0.248-0.201,0.456-0.457,0.456
		c-0.248,0-0.455-0.208-0.455-0.456C128.559,1.115,128.766,0.915,129.014,0.915z"/>
	<path fill="#010101" d="M130.983,0.915c0.256,0,0.455,0.2,0.455,0.456c0,0.248-0.199,0.456-0.455,0.456
		c-0.248,0-0.457-0.208-0.457-0.456C130.526,1.115,130.735,0.915,130.983,0.915z"/>
	<path fill="#010101" d="M132.95,0.915c0.256,0,0.457,0.2,0.457,0.456c0,0.248-0.201,0.456-0.457,0.456
		c-0.248,0-0.455-0.208-0.455-0.456C132.495,1.115,132.702,0.915,132.95,0.915z"/>
	<path fill="#010101" d="M134.918,0.915c0.256,0,0.457,0.2,0.457,0.456c0,0.248-0.201,0.456-0.457,0.456
		c-0.248,0-0.455-0.208-0.455-0.456C134.463,1.115,134.67,0.915,134.918,0.915z"/>
	<path fill="#010101" d="M136.887,0.915c0.256,0,0.455,0.2,0.455,0.456c0,0.248-0.199,0.456-0.455,0.456
		c-0.248,0-0.457-0.208-0.457-0.456C136.43,1.115,136.639,0.915,136.887,0.915z"/>
	<path fill="#010101" d="M138.854,0.915c0.256,0,0.457,0.2,0.457,0.456c0,0.248-0.201,0.456-0.457,0.456
		c-0.248,0-0.455-0.208-0.455-0.456C138.399,1.115,138.606,0.915,138.854,0.915z"/>
	<path fill="#010101" d="M140.823,0.915c0.256,0,0.453,0.2,0.453,0.456c0,0.248-0.197,0.456-0.453,0.456
		c-0.248,0-0.457-0.208-0.457-0.456C140.366,1.115,140.575,0.915,140.823,0.915z"/>
	<path fill="#010101" d="M142.79,0.915c0.256,0,0.457,0.2,0.457,0.456c0,0.248-0.201,0.456-0.457,0.456
		c-0.248,0-0.455-0.208-0.455-0.456C142.334,1.115,142.542,0.915,142.79,0.915z"/>
	<path fill="#010101" d="M144.758,0.915c0.256,0,0.457,0.2,0.457,0.456c0,0.248-0.201,0.456-0.457,0.456
		c-0.248,0-0.455-0.208-0.455-0.456C144.303,1.115,144.51,0.915,144.758,0.915z"/>
	<path fill="#010101" d="M146.727,0.915c0.256,0,0.455,0.2,0.455,0.456c0,0.248-0.199,0.456-0.455,0.456
		c-0.248,0-0.457-0.208-0.457-0.456C146.27,1.115,146.479,0.915,146.727,0.915z"/>
	<path fill="#010101" d="M148.694,0.915c0.258,0,0.457,0.2,0.457,0.456c0,0.248-0.199,0.456-0.457,0.456
		c-0.248,0-0.455-0.208-0.455-0.456C148.239,1.115,148.446,0.915,148.694,0.915z"/>
	<path fill="#010101" d="M150.663,0.915c0.256,0,0.455,0.2,0.455,0.456c0,0.248-0.199,0.456-0.455,0.456
		c-0.248,0-0.457-0.208-0.457-0.456C150.206,1.115,150.415,0.915,150.663,0.915z"/>
	<path fill="#010101" d="M152.631,0.915c0.256,0,0.455,0.2,0.455,0.456c0,0.248-0.199,0.456-0.455,0.456
		c-0.248,0-0.457-0.208-0.457-0.456C152.174,1.115,152.383,0.915,152.631,0.915z"/>
	<path fill="#010101" d="M154.598,0.915c0.256,0,0.457,0.2,0.457,0.456c0,0.248-0.201,0.456-0.457,0.456
		c-0.248,0-0.455-0.208-0.455-0.456C154.143,1.115,154.35,0.915,154.598,0.915z"/>
	<path fill="#010101" d="M156.567,0.915c0.258,0,0.455,0.2,0.455,0.456c0,0.248-0.197,0.456-0.455,0.456
		c-0.248,0-0.457-0.208-0.457-0.456C156.11,1.115,156.319,0.915,156.567,0.915z"/>
	<path fill="#010101" d="M158.534,0.915c0.256,0,0.457,0.2,0.457,0.456c0,0.248-0.201,0.456-0.457,0.456
		c-0.248,0-0.455-0.208-0.455-0.456C158.079,1.115,158.286,0.915,158.534,0.915z"/>
	<path fill="#010101" d="M160.502,0.915c0.256,0,0.455,0.2,0.455,0.456c0,0.248-0.199,0.456-0.455,0.456
		c-0.248,0-0.457-0.208-0.457-0.456C160.045,1.115,160.254,0.915,160.502,0.915z"/>
	<path fill="#010101" d="M162.471,0.915c0.256,0,0.455,0.2,0.455,0.456c0,0.248-0.199,0.456-0.455,0.456
		c-0.248,0-0.457-0.208-0.457-0.456C162.014,1.115,162.223,0.915,162.471,0.915z"/>
	<path fill="#010101" d="M164.438,0.915c0.256,0,0.457,0.2,0.457,0.456c0,0.248-0.201,0.456-0.457,0.456
		c-0.248,0-0.455-0.208-0.455-0.456C163.983,1.115,164.19,0.915,164.438,0.915z"/>
	<path fill="#010101" d="M166.407,0.915c0.256,0,0.453,0.2,0.453,0.456c0,0.248-0.197,0.456-0.453,0.456
		c-0.248,0-0.457-0.208-0.457-0.456C165.95,1.115,166.159,0.915,166.407,0.915z"/>
	<path fill="#010101" d="M168.374,0.915c0.256,0,0.457,0.2,0.457,0.456c0,0.248-0.201,0.456-0.457,0.456
		c-0.248,0-0.455-0.208-0.455-0.456C167.918,1.115,168.125,0.915,168.374,0.915z"/>
	<path fill="#010101" d="M170.342,0.915c0.256,0,0.455,0.2,0.455,0.456c0,0.248-0.199,0.456-0.455,0.456
		c-0.248,0-0.457-0.208-0.457-0.456C169.885,1.115,170.094,0.915,170.342,0.915z"/>
	<path fill="#010101" d="M172.311,0.915c0.256,0,0.455,0.2,0.455,0.456c0,0.248-0.199,0.456-0.455,0.456
		c-0.248,0-0.457-0.208-0.457-0.456C171.854,1.115,172.063,0.915,172.311,0.915z"/>
	<path fill="#010101" d="M174.278,0.915c0.258,0,0.457,0.2,0.457,0.456c0,0.248-0.199,0.456-0.457,0.456
		c-0.248,0-0.453-0.208-0.453-0.456C173.823,1.115,174.03,0.915,174.278,0.915z"/>
	<path fill="#010101" d="M176.247,0.915c0.256,0,0.455,0.2,0.455,0.456c0,0.248-0.199,0.456-0.455,0.456
		c-0.248,0-0.457-0.208-0.457-0.456C175.79,1.115,175.999,0.915,176.247,0.915z"/>
	<path fill="#010101" d="M178.213,0.915c0.256,0,0.457,0.2,0.457,0.456c0,0.248-0.201,0.456-0.457,0.456
		c-0.248,0-0.455-0.208-0.455-0.456C177.758,1.115,177.965,0.915,178.213,0.915z"/>
	<path fill="#010101" d="M180.182,0.915c0.256,0,0.457,0.2,0.457,0.456c0,0.248-0.201,0.456-0.457,0.456
		c-0.248,0-0.455-0.208-0.455-0.456C179.727,1.115,179.934,0.915,180.182,0.915z"/>
	<path fill="#010101" d="M182.151,0.915c0.258,0,0.455,0.2,0.455,0.456c0,0.248-0.197,0.456-0.455,0.456
		c-0.248,0-0.457-0.208-0.457-0.456C181.694,1.115,181.903,0.915,182.151,0.915z"/>
	<path fill="#010101" d="M184.118,0.915c0.256,0,0.457,0.2,0.457,0.456c0,0.248-0.201,0.456-0.457,0.456
		c-0.248,0-0.455-0.208-0.455-0.456C183.663,1.115,183.87,0.915,184.118,0.915z"/>
	<path fill="#010101" d="M186.086,0.915c0.256,0,0.455,0.2,0.455,0.456c0,0.248-0.199,0.456-0.455,0.456
		c-0.248,0-0.457-0.208-0.457-0.456C185.629,1.115,185.838,0.915,186.086,0.915z"/>
	<path fill="#010101" d="M188.053,0.915c0.256,0,0.457,0.2,0.457,0.456c0,0.248-0.201,0.456-0.457,0.456
		c-0.248,0-0.455-0.208-0.455-0.456C187.598,1.115,187.805,0.915,188.053,0.915z"/>
	<path fill="#010101" d="M190.022,0.915c0.256,0,0.457,0.2,0.457,0.456c0,0.248-0.201,0.456-0.457,0.456
		c-0.248,0-0.455-0.208-0.455-0.456C189.567,1.115,189.774,0.915,190.022,0.915z"/>
	<path fill="#010101" d="M191.991,0.915c0.256,0,0.453,0.2,0.453,0.456c0,0.248-0.197,0.456-0.453,0.456
		c-0.248,0-0.457-0.208-0.457-0.456C191.534,1.115,191.743,0.915,191.991,0.915z"/>
	<path fill="#010101" d="M193.958,0.915c0.256,0,0.457,0.2,0.457,0.456c0,0.248-0.201,0.456-0.457,0.456
		c-0.248,0-0.455-0.208-0.455-0.456C193.502,1.115,193.709,0.915,193.958,0.915z"/>
</g>
<g opacity="0.7">
	<path fill="#010101" d="M1.096,31.915c0.256,0,0.456,0.2,0.456,0.456c0,0.248-0.2,0.456-0.456,0.456
		c-0.248,0-0.456-0.208-0.456-0.456C0.64,32.115,0.848,31.915,1.096,31.915z"/>
	<path fill="#010101" d="M3.063,31.915c0.256,0,0.456,0.2,0.456,0.456c0,0.248-0.2,0.456-0.456,0.456
		c-0.248,0-0.455-0.208-0.455-0.456C2.608,32.115,2.815,31.915,3.063,31.915z"/>
	<path fill="#010101" d="M5.031,31.915c0.258,0,0.456,0.2,0.456,0.456c0,0.248-0.198,0.456-0.456,0.456
		c-0.246,0-0.454-0.208-0.454-0.456C4.575,32.115,4.783,31.915,5.031,31.915z"/>
	<path fill="#010101" d="M7,31.915c0.256,0,0.456,0.2,0.456,0.456c0,0.248-0.2,0.456-0.456,0.456c-0.248,0-0.456-0.208-0.456-0.456
		C6.544,32.115,6.752,31.915,7,31.915z"/>
	<path fill="#010101" d="M8.968,31.915c0.256,0,0.456,0.2,0.456,0.456c0,0.248-0.2,0.456-0.456,0.456
		c-0.248,0-0.455-0.208-0.455-0.456C8.513,32.115,8.72,31.915,8.968,31.915z"/>
	<path fill="#010101" d="M10.936,31.915c0.256,0,0.456,0.2,0.456,0.456c0,0.248-0.2,0.456-0.456,0.456
		c-0.248,0-0.456-0.208-0.456-0.456C10.479,32.115,10.688,31.915,10.936,31.915z"/>
	<path fill="#010101" d="M12.903,31.915c0.258,0,0.456,0.2,0.456,0.456c0,0.248-0.198,0.456-0.456,0.456
		c-0.248,0-0.453-0.208-0.453-0.456C12.448,32.115,12.655,31.915,12.903,31.915z"/>
	<path fill="#010101" d="M14.872,31.915c0.256,0,0.456,0.2,0.456,0.456c0,0.248-0.2,0.456-0.456,0.456
		c-0.248,0-0.455-0.208-0.455-0.456C14.417,32.115,14.624,31.915,14.872,31.915z"/>
	<path fill="#010101" d="M16.84,31.915c0.256,0,0.456,0.2,0.456,0.456c0,0.248-0.2,0.456-0.456,0.456
		c-0.248,0-0.456-0.208-0.456-0.456C16.384,32.115,16.592,31.915,16.84,31.915z"/>
	<path fill="#010101" d="M18.808,31.915c0.256,0,0.456,0.2,0.456,0.456c0,0.248-0.2,0.456-0.456,0.456
		c-0.248,0-0.455-0.208-0.455-0.456C18.353,32.115,18.56,31.915,18.808,31.915z"/>
	<path fill="#010101" d="M20.775,31.915c0.256,0,0.456,0.2,0.456,0.456c0,0.248-0.2,0.456-0.456,0.456
		c-0.248,0-0.456-0.208-0.456-0.456C20.319,32.115,20.527,31.915,20.775,31.915z"/>
	<path fill="#010101" d="M22.743,31.915c0.256,0,0.456,0.2,0.456,0.456c0,0.248-0.2,0.456-0.456,0.456
		c-0.248,0-0.455-0.208-0.455-0.456C22.288,32.115,22.495,31.915,22.743,31.915z"/>
	<path fill="#010101" d="M24.712,31.915c0.256,0,0.456,0.2,0.456,0.456c0,0.248-0.2,0.456-0.456,0.456
		c-0.248,0-0.455-0.208-0.455-0.456C24.257,32.115,24.464,31.915,24.712,31.915z"/>
	<path fill="#010101" d="M26.68,31.915c0.256,0,0.456,0.2,0.456,0.456c0,0.248-0.2,0.456-0.456,0.456
		c-0.248,0-0.456-0.208-0.456-0.456C26.224,32.115,26.432,31.915,26.68,31.915z"/>
	<path fill="#010101" d="M28.647,31.915c0.256,0,0.456,0.2,0.456,0.456c0,0.248-0.2,0.456-0.456,0.456
		c-0.248,0-0.455-0.208-0.455-0.456C28.192,32.115,28.399,31.915,28.647,31.915z"/>
	<path fill="#010101" d="M30.615,31.915c0.256,0,0.454,0.2,0.454,0.456c0,0.248-0.198,0.456-0.454,0.456
		c-0.248,0-0.456-0.208-0.456-0.456C30.159,32.115,30.367,31.915,30.615,31.915z"/>
	<path fill="#010101" d="M32.583,31.915c0.256,0,0.456,0.2,0.456,0.456c0,0.248-0.2,0.456-0.456,0.456
		c-0.248,0-0.455-0.208-0.455-0.456C32.128,32.115,32.335,31.915,32.583,31.915z"/>
	<path fill="#010101" d="M34.552,31.915c0.256,0,0.456,0.2,0.456,0.456c0,0.248-0.2,0.456-0.456,0.456
		c-0.248,0-0.455-0.208-0.455-0.456C34.097,32.115,34.304,31.915,34.552,31.915z"/>
	<path fill="#010101" d="M36.52,31.915c0.256,0,0.456,0.2,0.456,0.456c0,0.248-0.2,0.456-0.456,0.456
		c-0.248,0-0.456-0.208-0.456-0.456C36.063,32.115,36.271,31.915,36.52,31.915z"/>
	<path fill="#010101" d="M38.487,31.915c0.258,0,0.456,0.2,0.456,0.456c0,0.248-0.198,0.456-0.456,0.456
		c-0.248,0-0.453-0.208-0.453-0.456C38.032,32.115,38.239,31.915,38.487,31.915z"/>
	<path fill="#010101" d="M40.455,31.915c0.256,0,0.456,0.2,0.456,0.456c0,0.248-0.2,0.456-0.456,0.456
		c-0.248,0-0.456-0.208-0.456-0.456C39.999,32.115,40.207,31.915,40.455,31.915z"/>
	<path fill="#010101" d="M42.424,31.915c0.256,0,0.456,0.2,0.456,0.456c0,0.248-0.2,0.456-0.456,0.456
		c-0.248,0-0.456-0.208-0.456-0.456C41.968,32.115,42.176,31.915,42.424,31.915z"/>
	<path fill="#010101" d="M44.392,31.915c0.256,0,0.456,0.2,0.456,0.456c0,0.248-0.2,0.456-0.456,0.456
		c-0.248,0-0.455-0.208-0.455-0.456C43.937,32.115,44.144,31.915,44.392,31.915z"/>
	<path fill="#010101" d="M46.359,31.915c0.258,0,0.456,0.2,0.456,0.456c0,0.248-0.198,0.456-0.456,0.456
		c-0.248,0-0.456-0.208-0.456-0.456C45.903,32.115,46.111,31.915,46.359,31.915z"/>
	<path fill="#010101" d="M48.327,31.915c0.256,0,0.456,0.2,0.456,0.456c0,0.248-0.2,0.456-0.456,0.456
		c-0.248,0-0.455-0.208-0.455-0.456C47.872,32.115,48.079,31.915,48.327,31.915z"/>
	<path fill="#010101" d="M50.295,31.915c0.256,0,0.456,0.2,0.456,0.456c0,0.248-0.2,0.456-0.456,0.456
		c-0.248,0-0.456-0.208-0.456-0.456C49.839,32.115,50.047,31.915,50.295,31.915z"/>
	<path fill="#010101" d="M52.264,31.915c0.256,0,0.456,0.2,0.456,0.456c0,0.248-0.2,0.456-0.456,0.456
		c-0.248,0-0.456-0.208-0.456-0.456C51.808,32.115,52.016,31.915,52.264,31.915z"/>
	<path fill="#010101" d="M54.231,31.915c0.256,0,0.456,0.2,0.456,0.456c0,0.248-0.2,0.456-0.456,0.456
		c-0.248,0-0.455-0.208-0.455-0.456C53.776,32.115,53.983,31.915,54.231,31.915z"/>
	<path fill="#010101" d="M56.199,31.915c0.256,0,0.454,0.2,0.454,0.456c0,0.248-0.198,0.456-0.454,0.456
		c-0.248,0-0.456-0.208-0.456-0.456C55.743,32.115,55.951,31.915,56.199,31.915z"/>
	<path fill="#010101" d="M58.167,31.915c0.256,0,0.456,0.2,0.456,0.456c0,0.248-0.2,0.456-0.456,0.456
		c-0.248,0-0.455-0.208-0.455-0.456C57.712,32.115,57.919,31.915,58.167,31.915z"/>
	<path fill="#010101" d="M60.135,31.915c0.256,0,0.456,0.2,0.456,0.456c0,0.248-0.2,0.456-0.456,0.456
		c-0.248,0-0.456-0.208-0.456-0.456C59.679,32.115,59.887,31.915,60.135,31.915z"/>
	<path fill="#010101" d="M62.104,31.915c0.256,0,0.456,0.2,0.456,0.456c0,0.248-0.2,0.456-0.456,0.456
		c-0.248,0-0.456-0.208-0.456-0.456C61.647,32.115,61.855,31.915,62.104,31.915z"/>
	<path fill="#010101" d="M64.071,31.915c0.258,0,0.456,0.2,0.456,0.456c0,0.248-0.198,0.456-0.456,0.456
		c-0.246,0-0.453-0.208-0.453-0.456C63.616,32.115,63.823,31.915,64.071,31.915z"/>
	<path fill="#010101" d="M66.039,31.915c0.256,0,0.456,0.2,0.456,0.456c0,0.248-0.2,0.456-0.456,0.456
		c-0.248,0-0.456-0.208-0.456-0.456C65.583,32.115,65.791,31.915,66.039,31.915z"/>
	<path fill="#010101" d="M68.007,31.915c0.256,0,0.456,0.2,0.456,0.456c0,0.248-0.2,0.456-0.456,0.456
		c-0.248,0-0.455-0.208-0.455-0.456C67.552,32.115,67.759,31.915,68.007,31.915z"/>
	<path fill="#010101" d="M69.976,31.915c0.256,0,0.456,0.2,0.456,0.456c0,0.248-0.2,0.456-0.456,0.456
		c-0.248,0-0.455-0.208-0.455-0.456C69.521,32.115,69.728,31.915,69.976,31.915z"/>
	<path fill="#010101" d="M71.943,31.915c0.258,0,0.456,0.2,0.456,0.456c0,0.248-0.198,0.456-0.456,0.456
		c-0.248,0-0.456-0.208-0.456-0.456C71.487,32.115,71.695,31.915,71.943,31.915z"/>
	<path fill="#010101" d="M73.911,31.915c0.256,0,0.456,0.2,0.456,0.456c0,0.248-0.2,0.456-0.456,0.456
		c-0.248,0-0.455-0.208-0.455-0.456C73.456,32.115,73.663,31.915,73.911,31.915z"/>
	<path fill="#010101" d="M75.879,31.915c0.256,0,0.456,0.2,0.456,0.456c0,0.248-0.2,0.456-0.456,0.456
		c-0.248,0-0.456-0.208-0.456-0.456C75.423,32.115,75.631,31.915,75.879,31.915z"/>
	<path fill="#010101" d="M77.847,31.915c0.256,0,0.456,0.2,0.456,0.456c0,0.248-0.2,0.456-0.456,0.456
		c-0.248,0-0.455-0.208-0.455-0.456C77.392,32.115,77.599,31.915,77.847,31.915z"/>
	<path fill="#010101" d="M79.815,31.915c0.256,0,0.456,0.2,0.456,0.456c0,0.248-0.2,0.456-0.456,0.456
		c-0.248,0-0.455-0.208-0.455-0.456C79.36,32.115,79.567,31.915,79.815,31.915z"/>
	<path fill="#010101" d="M81.783,31.915c0.256,0,0.454,0.2,0.454,0.456c0,0.248-0.198,0.456-0.454,0.456
		c-0.248,0-0.456-0.208-0.456-0.456C81.327,32.115,81.535,31.915,81.783,31.915z"/>
	<path fill="#010101" d="M83.751,31.915c0.256,0,0.456,0.2,0.456,0.456c0,0.248-0.2,0.456-0.456,0.456
		c-0.248,0-0.455-0.208-0.455-0.456C83.296,32.115,83.503,31.915,83.751,31.915z"/>
	<path fill="#010101" d="M85.719,31.915c0.256,0,0.456,0.2,0.456,0.456c0,0.248-0.2,0.456-0.456,0.456
		c-0.248,0-0.456-0.208-0.456-0.456C85.263,32.115,85.471,31.915,85.719,31.915z"/>
	<path fill="#010101" d="M87.687,31.915c0.256,0,0.456,0.2,0.456,0.456c0,0.248-0.2,0.456-0.456,0.456
		c-0.248,0-0.455-0.208-0.455-0.456C87.231,32.115,87.438,31.915,87.687,31.915z"/>
	<path fill="#010101" d="M89.655,31.915c0.258,0,0.456,0.2,0.456,0.456c0,0.248-0.198,0.456-0.456,0.456
		c-0.246,0-0.453-0.208-0.453-0.456C89.2,32.115,89.407,31.915,89.655,31.915z"/>
	<path fill="#010101" d="M91.623,31.915c0.256,0,0.456,0.2,0.456,0.456c0,0.248-0.2,0.456-0.456,0.456
		c-0.248,0-0.456-0.208-0.456-0.456C91.167,32.115,91.375,31.915,91.623,31.915z"/>
	<path fill="#010101" d="M93.591,31.915c0.256,0,0.456,0.2,0.456,0.456c0,0.248-0.2,0.456-0.456,0.456
		c-0.248,0-0.455-0.208-0.455-0.456C93.136,32.115,93.343,31.915,93.591,31.915z"/>
	<path fill="#010101" d="M95.559,31.915c0.256,0,0.456,0.2,0.456,0.456c0,0.248-0.2,0.456-0.456,0.456
		c-0.248,0-0.456-0.208-0.456-0.456C95.103,32.115,95.311,31.915,95.559,31.915z"/>
	<path fill="#010101" d="M97.527,31.915c0.258,0,0.456,0.2,0.456,0.456c0,0.248-0.198,0.456-0.456,0.456
		c-0.248,0-0.456-0.208-0.456-0.456C97.071,32.115,97.279,31.915,97.527,31.915z"/>
	<path fill="#010101" d="M99.495,31.915c0.256,0,0.457,0.2,0.457,0.456c0,0.248-0.201,0.456-0.457,0.456
		c-0.248,0-0.455-0.208-0.455-0.456C99.04,32.115,99.247,31.915,99.495,31.915z"/>
	<path fill="#010101" d="M101.463,31.915c0.256,0,0.455,0.2,0.455,0.456c0,0.248-0.199,0.456-0.455,0.456
		c-0.248,0-0.457-0.208-0.457-0.456C101.006,32.115,101.215,31.915,101.463,31.915z"/>
	<path fill="#010101" d="M103.43,31.915c0.256,0,0.457,0.2,0.457,0.456c0,0.248-0.201,0.456-0.457,0.456
		c-0.248,0-0.455-0.208-0.455-0.456C102.975,32.115,103.182,31.915,103.43,31.915z"/>
	<path fill="#010101" d="M105.399,31.915c0.256,0,0.455,0.2,0.455,0.456c0,0.248-0.199,0.456-0.455,0.456
		c-0.248,0-0.457-0.208-0.457-0.456C104.942,32.115,105.151,31.915,105.399,31.915z"/>
	<path fill="#010101" d="M107.368,31.915c0.256,0,0.455,0.2,0.455,0.456c0,0.248-0.199,0.456-0.455,0.456
		c-0.248,0-0.457-0.208-0.457-0.456C106.911,32.115,107.12,31.915,107.368,31.915z"/>
	<path fill="#010101" d="M109.334,31.915c0.256,0,0.457,0.2,0.457,0.456c0,0.248-0.201,0.456-0.457,0.456
		c-0.248,0-0.455-0.208-0.455-0.456C108.879,32.115,109.086,31.915,109.334,31.915z"/>
	<path fill="#010101" d="M111.303,31.915c0.256,0,0.455,0.2,0.455,0.456c0,0.248-0.199,0.456-0.455,0.456
		c-0.248,0-0.457-0.208-0.457-0.456C110.846,32.115,111.055,31.915,111.303,31.915z"/>
	<path fill="#010101" d="M113.27,31.915c0.256,0,0.457,0.2,0.457,0.456c0,0.248-0.201,0.456-0.457,0.456
		c-0.248,0-0.455-0.208-0.455-0.456C112.815,32.115,113.022,31.915,113.27,31.915z"/>
	<path fill="#010101" d="M115.239,31.915c0.258,0,0.455,0.2,0.455,0.456c0,0.248-0.197,0.456-0.455,0.456
		c-0.246,0-0.455-0.208-0.455-0.456C114.782,32.115,114.991,31.915,115.239,31.915z"/>
	<path fill="#010101" d="M117.208,31.915c0.256,0,0.455,0.2,0.455,0.456c0,0.248-0.199,0.456-0.455,0.456
		c-0.248,0-0.457-0.208-0.457-0.456C116.75,32.115,116.959,31.915,117.208,31.915z"/>
	<path fill="#010101" d="M119.174,31.915c0.256,0,0.457,0.2,0.457,0.456c0,0.248-0.201,0.456-0.457,0.456
		c-0.248,0-0.455-0.208-0.455-0.456C118.719,32.115,118.926,31.915,119.174,31.915z"/>
	<path fill="#010101" d="M121.143,31.915c0.256,0,0.455,0.2,0.455,0.456c0,0.248-0.199,0.456-0.455,0.456
		c-0.248,0-0.457-0.208-0.457-0.456C120.686,32.115,120.895,31.915,121.143,31.915z"/>
	<path fill="#010101" d="M123.11,31.915c0.258,0,0.457,0.2,0.457,0.456c0,0.248-0.199,0.456-0.457,0.456
		c-0.248,0-0.455-0.208-0.455-0.456C122.655,32.115,122.862,31.915,123.11,31.915z"/>
	<path fill="#010101" d="M125.079,31.915c0.256,0,0.457,0.2,0.457,0.456c0,0.248-0.201,0.456-0.457,0.456
		c-0.248,0-0.455-0.208-0.455-0.456C124.624,32.115,124.831,31.915,125.079,31.915z"/>
	<path fill="#010101" d="M127.047,31.915c0.256,0,0.455,0.2,0.455,0.456c0,0.248-0.199,0.456-0.455,0.456
		c-0.248,0-0.457-0.208-0.457-0.456C126.59,32.115,126.799,31.915,127.047,31.915z"/>
	<path fill="#010101" d="M129.014,31.915c0.256,0,0.457,0.2,0.457,0.456c0,0.248-0.201,0.456-0.457,0.456
		c-0.248,0-0.455-0.208-0.455-0.456C128.559,32.115,128.766,31.915,129.014,31.915z"/>
	<path fill="#010101" d="M130.983,31.915c0.256,0,0.455,0.2,0.455,0.456c0,0.248-0.199,0.456-0.455,0.456
		c-0.248,0-0.457-0.208-0.457-0.456C130.526,32.115,130.735,31.915,130.983,31.915z"/>
	<path fill="#010101" d="M132.95,31.915c0.256,0,0.457,0.2,0.457,0.456c0,0.248-0.201,0.456-0.457,0.456
		c-0.248,0-0.455-0.208-0.455-0.456C132.495,32.115,132.702,31.915,132.95,31.915z"/>
	<path fill="#010101" d="M134.918,31.915c0.256,0,0.457,0.2,0.457,0.456c0,0.248-0.201,0.456-0.457,0.456
		c-0.248,0-0.455-0.208-0.455-0.456C134.463,32.115,134.67,31.915,134.918,31.915z"/>
	<path fill="#010101" d="M136.887,31.915c0.256,0,0.455,0.2,0.455,0.456c0,0.248-0.199,0.456-0.455,0.456
		c-0.248,0-0.457-0.208-0.457-0.456C136.43,32.115,136.639,31.915,136.887,31.915z"/>
	<path fill="#010101" d="M138.854,31.915c0.256,0,0.457,0.2,0.457,0.456c0,0.248-0.201,0.456-0.457,0.456
		c-0.248,0-0.455-0.208-0.455-0.456C138.399,32.115,138.606,31.915,138.854,31.915z"/>
	<path fill="#010101" d="M140.823,31.915c0.256,0,0.453,0.2,0.453,0.456c0,0.248-0.197,0.456-0.453,0.456
		c-0.248,0-0.457-0.208-0.457-0.456C140.366,32.115,140.575,31.915,140.823,31.915z"/>
	<path fill="#010101" d="M142.79,31.915c0.256,0,0.457,0.2,0.457,0.456c0,0.248-0.201,0.456-0.457,0.456
		c-0.248,0-0.455-0.208-0.455-0.456C142.334,32.115,142.542,31.915,142.79,31.915z"/>
	<path fill="#010101" d="M144.758,31.915c0.256,0,0.457,0.2,0.457,0.456c0,0.248-0.201,0.456-0.457,0.456
		c-0.248,0-0.455-0.208-0.455-0.456C144.303,32.115,144.51,31.915,144.758,31.915z"/>
	<path fill="#010101" d="M146.727,31.915c0.256,0,0.455,0.2,0.455,0.456c0,0.248-0.199,0.456-0.455,0.456
		c-0.248,0-0.457-0.208-0.457-0.456C146.27,32.115,146.479,31.915,146.727,31.915z"/>
	<path fill="#010101" d="M148.694,31.915c0.258,0,0.457,0.2,0.457,0.456c0,0.248-0.199,0.456-0.457,0.456
		c-0.248,0-0.455-0.208-0.455-0.456C148.239,32.115,148.446,31.915,148.694,31.915z"/>
	<path fill="#010101" d="M150.663,31.915c0.256,0,0.455,0.2,0.455,0.456c0,0.248-0.199,0.456-0.455,0.456
		c-0.248,0-0.457-0.208-0.457-0.456C150.206,32.115,150.415,31.915,150.663,31.915z"/>
	<path fill="#010101" d="M152.631,31.915c0.256,0,0.455,0.2,0.455,0.456c0,0.248-0.199,0.456-0.455,0.456
		c-0.248,0-0.457-0.208-0.457-0.456C152.174,32.115,152.383,31.915,152.631,31.915z"/>
	<path fill="#010101" d="M154.598,31.915c0.256,0,0.457,0.2,0.457,0.456c0,0.248-0.201,0.456-0.457,0.456
		c-0.248,0-0.455-0.208-0.455-0.456C154.143,32.115,154.35,31.915,154.598,31.915z"/>
	<path fill="#010101" d="M156.567,31.915c0.258,0,0.455,0.2,0.455,0.456c0,0.248-0.197,0.456-0.455,0.456
		c-0.248,0-0.457-0.208-0.457-0.456C156.11,32.115,156.319,31.915,156.567,31.915z"/>
	<path fill="#010101" d="M158.534,31.915c0.256,0,0.457,0.2,0.457,0.456c0,0.248-0.201,0.456-0.457,0.456
		c-0.248,0-0.455-0.208-0.455-0.456C158.079,32.115,158.286,31.915,158.534,31.915z"/>
	<path fill="#010101" d="M160.502,31.915c0.256,0,0.455,0.2,0.455,0.456c0,0.248-0.199,0.456-0.455,0.456
		c-0.248,0-0.457-0.208-0.457-0.456C160.045,32.115,160.254,31.915,160.502,31.915z"/>
	<path fill="#010101" d="M162.471,31.915c0.256,0,0.455,0.2,0.455,0.456c0,0.248-0.199,0.456-0.455,0.456
		c-0.248,0-0.457-0.208-0.457-0.456C162.014,32.115,162.223,31.915,162.471,31.915z"/>
	<path fill="#010101" d="M164.438,31.915c0.256,0,0.457,0.2,0.457,0.456c0,0.248-0.201,0.456-0.457,0.456
		c-0.248,0-0.455-0.208-0.455-0.456C163.983,32.115,164.19,31.915,164.438,31.915z"/>
	<path fill="#010101" d="M166.407,31.915c0.256,0,0.453,0.2,0.453,0.456c0,0.248-0.197,0.456-0.453,0.456
		c-0.248,0-0.457-0.208-0.457-0.456C165.95,32.115,166.159,31.915,166.407,31.915z"/>
	<path fill="#010101" d="M168.374,31.915c0.256,0,0.457,0.2,0.457,0.456c0,0.248-0.201,0.456-0.457,0.456
		c-0.248,0-0.455-0.208-0.455-0.456C167.918,32.115,168.125,31.915,168.374,31.915z"/>
	<path fill="#010101" d="M170.342,31.915c0.256,0,0.455,0.2,0.455,0.456c0,0.248-0.199,0.456-0.455,0.456
		c-0.248,0-0.457-0.208-0.457-0.456C169.885,32.115,170.094,31.915,170.342,31.915z"/>
	<path fill="#010101" d="M172.311,31.915c0.256,0,0.455,0.2,0.455,0.456c0,0.248-0.199,0.456-0.455,0.456
		c-0.248,0-0.457-0.208-0.457-0.456C171.854,32.115,172.063,31.915,172.311,31.915z"/>
	<path fill="#010101" d="M174.278,31.915c0.258,0,0.457,0.2,0.457,0.456c0,0.248-0.199,0.456-0.457,0.456
		c-0.248,0-0.453-0.208-0.453-0.456C173.823,32.115,174.03,31.915,174.278,31.915z"/>
	<path fill="#010101" d="M176.247,31.915c0.256,0,0.455,0.2,0.455,0.456c0,0.248-0.199,0.456-0.455,0.456
		c-0.248,0-0.457-0.208-0.457-0.456C175.79,32.115,175.999,31.915,176.247,31.915z"/>
	<path fill="#010101" d="M178.213,31.915c0.256,0,0.457,0.2,0.457,0.456c0,0.248-0.201,0.456-0.457,0.456
		c-0.248,0-0.455-0.208-0.455-0.456C177.758,32.115,177.965,31.915,178.213,31.915z"/>
	<path fill="#010101" d="M180.182,31.915c0.256,0,0.457,0.2,0.457,0.456c0,0.248-0.201,0.456-0.457,0.456
		c-0.248,0-0.455-0.208-0.455-0.456C179.727,32.115,179.934,31.915,180.182,31.915z"/>
	<path fill="#010101" d="M182.151,31.915c0.258,0,0.455,0.2,0.455,0.456c0,0.248-0.197,0.456-0.455,0.456
		c-0.248,0-0.457-0.208-0.457-0.456C181.694,32.115,181.903,31.915,182.151,31.915z"/>
	<path fill="#010101" d="M184.118,31.915c0.256,0,0.457,0.2,0.457,0.456c0,0.248-0.201,0.456-0.457,0.456
		c-0.248,0-0.455-0.208-0.455-0.456C183.663,32.115,183.87,31.915,184.118,31.915z"/>
	<path fill="#010101" d="M186.086,31.915c0.256,0,0.455,0.2,0.455,0.456c0,0.248-0.199,0.456-0.455,0.456
		c-0.248,0-0.457-0.208-0.457-0.456C185.629,32.115,185.838,31.915,186.086,31.915z"/>
	<path fill="#010101" d="M188.053,31.915c0.256,0,0.457,0.2,0.457,0.456c0,0.248-0.201,0.456-0.457,0.456
		c-0.248,0-0.455-0.208-0.455-0.456C187.598,32.115,187.805,31.915,188.053,31.915z"/>
	<path fill="#010101" d="M190.022,31.915c0.256,0,0.457,0.2,0.457,0.456c0,0.248-0.201,0.456-0.457,0.456
		c-0.248,0-0.455-0.208-0.455-0.456C189.567,32.115,189.774,31.915,190.022,31.915z"/>
	<path fill="#010101" d="M191.991,31.915c0.256,0,0.453,0.2,0.453,0.456c0,0.248-0.197,0.456-0.453,0.456
		c-0.248,0-0.457-0.208-0.457-0.456C191.534,32.115,191.743,31.915,191.991,31.915z"/>
	<path fill="#010101" d="M193.958,31.915c0.256,0,0.457,0.2,0.457,0.456c0,0.248-0.201,0.456-0.457,0.456
		c-0.248,0-0.455-0.208-0.455-0.456C193.502,32.115,193.709,31.915,193.958,31.915z"/>
</g>
<g>
	<path fill="#FFFFFF" d="M17.033,12.323c-0.097-0.208,0.031-0.416,0.271-0.416h0.64c0.146,0,0.24,0.096,0.272,0.176l3.984,8.963
		h0.063l3.984-8.963c0.031-0.08,0.146-0.176,0.271-0.176h0.642c0.238,0,0.366,0.208,0.271,0.416L22.57,23.096
		c-0.048,0.096-0.144,0.176-0.271,0.176h-0.16c-0.112,0-0.226-0.08-0.271-0.176L17.033,12.323z"/>
	<path fill="#FFFFFF" d="M29.497,12.212c0-0.16,0.145-0.304,0.305-0.304h0.641c0.16,0,0.305,0.144,0.305,0.304v10.597
		c0,0.159-0.145,0.305-0.305,0.305h-0.641c-0.16,0-0.305-0.146-0.305-0.305V12.212z"/>
	<path fill="#FFFFFF" d="M34.329,12.212c0-0.16,0.128-0.304,0.305-0.304h6.307c0.177,0,0.306,0.144,0.306,0.304v0.464
		c0,0.16-0.129,0.304-0.306,0.304h-5.378v3.904h4.595c0.159,0,0.304,0.146,0.304,0.306v0.466c0,0.176-0.145,0.303-0.304,0.303
		h-4.595v4.082h5.378c0.177,0,0.306,0.145,0.306,0.305v0.465c0,0.158-0.129,0.304-0.306,0.304h-6.307
		c-0.177,0-0.305-0.146-0.305-0.304V12.212z"/>
	<path fill="#FFFFFF" d="M43.08,12.292c-0.062-0.224,0.063-0.384,0.288-0.384h0.673c0.128,0,0.257,0.112,0.288,0.224l2.226,8.292
		h0.063l2.673-8.5c0.032-0.096,0.128-0.176,0.271-0.176h0.288c0.128,0,0.24,0.08,0.271,0.176l2.723,8.5h0.062l2.177-8.292
		c0.032-0.112,0.16-0.224,0.288-0.224h0.673c0.225,0,0.353,0.16,0.288,0.384l-3.024,10.756c-0.032,0.127-0.16,0.226-0.288,0.226
		h-0.256c-0.112,0-0.226-0.08-0.271-0.179l-2.77-8.658h-0.08l-2.723,8.658c-0.048,0.099-0.159,0.179-0.271,0.179h-0.257
		c-0.128,0-0.256-0.099-0.288-0.226L43.08,12.292z"/>
	<path fill="#FFFFFF" d="M64.01,11.971c0.03-0.128,0.159-0.224,0.288-0.224h0.256c0.111,0,0.239,0.08,0.271,0.176l3.169,8.819
		c0.031,0,0.048,0,0.08,0l3.12-8.819c0.032-0.096,0.16-0.176,0.272-0.176h0.256c0.128,0,0.256,0.096,0.288,0.224l2.063,10.757
		c0.05,0.223-0.047,0.383-0.287,0.383h-0.641c-0.128,0-0.257-0.111-0.288-0.226l-1.425-8.242c-0.017,0-0.048,0-0.063,0l-2.943,8.451
		c-0.032,0.097-0.178,0.177-0.272,0.177h-0.287c-0.097,0-0.24-0.08-0.271-0.177l-2.978-8.451c-0.018,0-0.05,0-0.063,0l-1.394,8.242
		C63.146,23,63,23.111,62.872,23.111h-0.642c-0.239,0-0.336-0.16-0.288-0.383L64.01,11.971z"/>
	<path fill="#FFFFFF" d="M78.843,17.719l-3.857-5.347c-0.128-0.208,0-0.464,0.257-0.464h0.752c0.111,0,0.208,0.08,0.257,0.144
		l3.232,4.466l3.232-4.466c0.049-0.064,0.145-0.144,0.257-0.144h0.752c0.256,0,0.384,0.256,0.256,0.464l-3.904,5.331v5.105
		c0,0.159-0.146,0.305-0.305,0.305h-0.625c-0.176,0-0.304-0.146-0.304-0.305V17.719z"/>
	<path fill="#FFFFFF" d="M89.818,12.212c0-0.16,0.128-0.304,0.305-0.304h3.538c1.969,0,3.585,1.601,3.585,3.538
		c0,1.985-1.616,3.603-3.568,3.603h-2.642v3.762c0,0.158-0.146,0.304-0.306,0.304H90.12c-0.177,0-0.305-0.146-0.305-0.304
		L89.818,12.212L89.818,12.212z M93.578,17.861c1.312,0,2.434-1.072,2.434-2.449c0-1.296-1.12-2.289-2.434-2.289h-2.545v4.738
		H93.578L93.578,17.861z"/>
	<path fill="#FFFFFF" d="M104.602,11.747c3.201,0,5.765,2.577,5.765,5.778s-2.562,5.746-5.765,5.746s-5.746-2.545-5.746-5.746
		S101.401,11.747,104.602,11.747z M104.602,22.152c2.545,0,4.644-2.08,4.644-4.627c0-2.544-2.099-4.657-4.644-4.657
		s-4.625,2.113-4.625,4.657C99.977,20.072,102.058,22.152,104.602,22.152z"/>
	<path fill="#FFFFFF" d="M113.129,12.212c0-0.16,0.128-0.304,0.304-0.304h4.146c1.92,0,3.489,1.505,3.489,3.41
		c0,1.473-0.977,2.706-2.368,3.266l2.19,4.064c0.112,0.209,0,0.465-0.271,0.465h-0.815c-0.146,0-0.226-0.08-0.256-0.146l-2.13-4.239
		h-3.058v4.08c0,0.159-0.145,0.305-0.305,0.305h-0.625c-0.176,0-0.304-0.146-0.304-0.305L113.129,12.212L113.129,12.212z
		 M117.498,17.67c1.231,0,2.306-1.024,2.306-2.336c0-1.216-1.072-2.257-2.306-2.257h-3.104v4.594L117.498,17.67L117.498,17.67z"/>
	<path fill="#FFFFFF" d="M125.61,12.98h-2.784c-0.179,0-0.306-0.144-0.306-0.304v-0.464c0-0.16,0.127-0.304,0.306-0.304h6.784
		c0.177,0,0.306,0.144,0.306,0.304v0.464c0,0.16-0.129,0.304-0.306,0.304h-2.784v9.829c0,0.159-0.144,0.305-0.304,0.305h-0.608
		c-0.16,0-0.304-0.146-0.304-0.305V12.98L125.61,12.98z"/>
	<path fill="#FFFFFF" d="M131.992,12.212c0-0.16,0.129-0.304,0.306-0.304h6.307c0.177,0,0.306,0.144,0.306,0.304v0.464
		c0,0.16-0.129,0.304-0.306,0.304h-5.379v4.386h4.594c0.16,0,0.306,0.146,0.306,0.306v0.463c0,0.16-0.146,0.305-0.306,0.305h-4.594
		v4.371c0,0.158-0.146,0.304-0.303,0.304h-0.625c-0.177,0-0.306-0.146-0.306-0.304V12.212L131.992,12.212z"/>
	<path fill="#FFFFFF" d="M146.347,11.747c3.201,0,5.764,2.577,5.764,5.778s-2.562,5.746-5.764,5.746s-5.746-2.545-5.746-5.746
		S143.145,11.747,146.347,11.747z M146.347,22.152c2.545,0,4.644-2.08,4.644-4.627c0-2.544-2.099-4.657-4.644-4.657
		s-4.625,2.113-4.625,4.657C141.722,20.072,143.802,22.152,146.347,22.152z"/>
	<path fill="#FFFFFF" d="M154.873,12.212c0-0.16,0.127-0.304,0.304-0.304h0.625c0.159,0,0.305,0.144,0.305,0.304v9.829h4.609
		c0.176,0,0.305,0.145,0.305,0.305v0.465c0,0.158-0.129,0.304-0.305,0.304h-5.539c-0.177,0-0.304-0.146-0.304-0.304V12.212
		L154.873,12.212z"/>
	<path fill="#FFFFFF" d="M163.05,12.212c0-0.16,0.143-0.304,0.303-0.304h0.642c0.159,0,0.306,0.144,0.306,0.304v10.597
		c0,0.159-0.146,0.305-0.306,0.305h-0.642c-0.16,0-0.303-0.146-0.303-0.305V12.212z"/>
	<path fill="#FFFFFF" d="M172.811,11.747c3.201,0,5.763,2.577,5.763,5.778s-2.562,5.746-5.763,5.746s-5.746-2.545-5.746-5.746
		S169.61,11.747,172.811,11.747z M172.811,22.152c2.545,0,4.642-2.08,4.642-4.627c0-2.544-2.097-4.657-4.642-4.657
		s-4.627,2.113-4.627,4.657C168.184,20.072,170.266,22.152,172.811,22.152z"/>
</g>
<polygon opacity="0.5" fill="#030303" stroke="#010101" stroke-miterlimit="10" enable-background="new    " points="5.601,14.845 
	6.009,16.231 7.155,15.35 6.67,16.711 8.114,16.672 6.923,17.489 8.114,18.305 6.67,18.266 7.155,19.627 6.009,18.747 5.601,20.131 
	5.192,18.747 4.047,19.627 4.531,18.266 3.087,18.305 4.279,17.489 3.087,16.672 4.531,16.711 4.047,15.35 5.192,16.231 "/>
<line fill="none" stroke="#FFFFFF" stroke-miterlimit="10" x1="18.216" y1="26.5" x2="178.216" y2="26.5"/>
</svg>
