<?xml version="1.0" encoding="utf-8"?>
<!-- Generator: Adobe Illustrator 16.0.0, SVG Export Plug-In . SVG Version: 6.00 Build 0)  -->
<!DOCTYPE svg PUBLIC "-//W3C//DTD SVG 1.1//EN" "http://www.w3.org/Graphics/SVG/1.1/DTD/svg11.dtd">
<svg version="1.1" id="Layer_1" xmlns="http://www.w3.org/2000/svg" xmlns:xlink="http://www.w3.org/1999/xlink" x="0px" y="0px"
	 width="195.432px" height="34px" viewBox="0 0 195.432 34" enable-background="new 0 0 195.432 34" xml:space="preserve">
<rect x="0" y="0" fill="#E68C8B" width="195.334" height="34"/>
<polygon opacity="0.7" fill="#030303" stroke="#010101" stroke-miterlimit="10" points="191.236,15.128 191.644,16.514 
	192.791,15.633 192.305,16.995 193.75,16.956 192.558,17.772 193.75,18.588 192.305,18.548 192.791,19.911 191.644,19.03 
	191.236,20.415 190.828,19.03 189.682,19.911 190.167,18.548 188.722,18.588 189.915,17.772 188.722,16.956 190.167,16.995 
	189.682,15.633 190.828,16.514 "/>
<g opacity="0.7">
	<path fill="#010101" d="M1.096,0.915c0.256,0,0.456,0.2,0.456,0.456c0,0.248-0.2,0.456-0.456,0.456
		c-0.248,0-0.456-0.208-0.456-0.456C0.64,1.115,0.848,0.915,1.096,0.915z"/>
	<path fill="#010101" d="M3.063,0.915c0.256,0,0.456,0.2,0.456,0.456c0,0.248-0.2,0.456-0.456,0.456
		c-0.248,0-0.455-0.208-0.455-0.456C2.608,1.115,2.815,0.915,3.063,0.915z"/>
	<path fill="#010101" d="M5.031,0.915c0.256,0,0.456,0.2,0.456,0.456c0,0.248-0.2,0.456-0.456,0.456
		c-0.248,0-0.456-0.208-0.456-0.456C4.575,1.115,4.783,0.915,5.031,0.915z"/>
	<path fill="#010101" d="M7,0.915c0.256,0,0.456,0.2,0.456,0.456c0,0.248-0.2,0.456-0.456,0.456c-0.248,0-0.456-0.208-0.456-0.456
		C6.544,1.115,6.752,0.915,7,0.915z"/>
	<path fill="#010101" d="M8.968,0.915c0.256,0,0.456,0.2,0.456,0.456c0,0.248-0.2,0.456-0.456,0.456
		c-0.248,0-0.455-0.208-0.455-0.456C8.513,1.115,8.72,0.915,8.968,0.915z"/>
	<path fill="#010101" d="M10.936,0.915c0.256,0,0.456,0.2,0.456,0.456c0,0.248-0.2,0.456-0.456,0.456
		c-0.248,0-0.456-0.208-0.456-0.456C10.479,1.115,10.688,0.915,10.936,0.915z"/>
	<path fill="#010101" d="M12.903,0.915c0.256,0,0.456,0.2,0.456,0.456c0,0.248-0.2,0.456-0.456,0.456
		c-0.248,0-0.455-0.208-0.455-0.456C12.448,1.115,12.655,0.915,12.903,0.915z"/>
	<path fill="#010101" d="M14.872,0.915c0.256,0,0.456,0.2,0.456,0.456c0,0.248-0.2,0.456-0.456,0.456
		c-0.248,0-0.455-0.208-0.455-0.456C14.417,1.115,14.624,0.915,14.872,0.915z"/>
	<path fill="#010101" d="M16.84,0.915c0.256,0,0.456,0.2,0.456,0.456c0,0.248-0.2,0.456-0.456,0.456
		c-0.248,0-0.456-0.208-0.456-0.456C16.384,1.115,16.592,0.915,16.84,0.915z"/>
	<path fill="#010101" d="M18.808,0.915c0.256,0,0.456,0.2,0.456,0.456c0,0.248-0.2,0.456-0.456,0.456
		c-0.248,0-0.455-0.208-0.455-0.456C18.353,1.115,18.56,0.915,18.808,0.915z"/>
	<path fill="#010101" d="M20.775,0.915c0.256,0,0.456,0.2,0.456,0.456c0,0.248-0.2,0.456-0.456,0.456
		c-0.248,0-0.456-0.208-0.456-0.456C20.319,1.115,20.527,0.915,20.775,0.915z"/>
	<path fill="#010101" d="M22.743,0.915c0.256,0,0.456,0.2,0.456,0.456c0,0.248-0.2,0.456-0.456,0.456
		c-0.248,0-0.455-0.208-0.455-0.456C22.288,1.115,22.495,0.915,22.743,0.915z"/>
	<path fill="#010101" d="M24.712,0.915c0.256,0,0.456,0.2,0.456,0.456c0,0.248-0.2,0.456-0.456,0.456
		c-0.248,0-0.455-0.208-0.455-0.456C24.257,1.115,24.464,0.915,24.712,0.915z"/>
	<path fill="#010101" d="M26.68,0.915c0.256,0,0.456,0.2,0.456,0.456c0,0.248-0.2,0.456-0.456,0.456
		c-0.248,0-0.456-0.208-0.456-0.456C26.224,1.115,26.432,0.915,26.68,0.915z"/>
	<path fill="#010101" d="M28.647,0.915c0.256,0,0.456,0.2,0.456,0.456c0,0.248-0.2,0.456-0.456,0.456
		c-0.248,0-0.455-0.208-0.455-0.456C28.192,1.115,28.399,0.915,28.647,0.915z"/>
	<path fill="#010101" d="M30.615,0.915c0.256,0,0.456,0.2,0.456,0.456c0,0.248-0.2,0.456-0.456,0.456
		c-0.248,0-0.456-0.208-0.456-0.456C30.159,1.115,30.367,0.915,30.615,0.915z"/>
	<path fill="#010101" d="M32.583,0.915c0.256,0,0.456,0.2,0.456,0.456c0,0.248-0.2,0.456-0.456,0.456
		c-0.248,0-0.455-0.208-0.455-0.456C32.128,1.115,32.335,0.915,32.583,0.915z"/>
	<path fill="#010101" d="M34.552,0.915c0.256,0,0.456,0.2,0.456,0.456c0,0.248-0.2,0.456-0.456,0.456
		c-0.248,0-0.455-0.208-0.455-0.456C34.097,1.115,34.304,0.915,34.552,0.915z"/>
	<path fill="#010101" d="M36.52,0.915c0.256,0,0.456,0.2,0.456,0.456c0,0.248-0.2,0.456-0.456,0.456
		c-0.248,0-0.456-0.208-0.456-0.456C36.063,1.115,36.271,0.915,36.52,0.915z"/>
	<path fill="#010101" d="M38.487,0.915c0.256,0,0.456,0.2,0.456,0.456c0,0.248-0.2,0.456-0.456,0.456
		c-0.248,0-0.455-0.208-0.455-0.456C38.032,1.115,38.239,0.915,38.487,0.915z"/>
	<path fill="#010101" d="M40.455,0.915c0.256,0,0.456,0.2,0.456,0.456c0,0.248-0.2,0.456-0.456,0.456
		c-0.248,0-0.456-0.208-0.456-0.456C39.999,1.115,40.207,0.915,40.455,0.915z"/>
	<path fill="#010101" d="M42.424,0.915c0.256,0,0.456,0.2,0.456,0.456c0,0.248-0.2,0.456-0.456,0.456
		c-0.248,0-0.456-0.208-0.456-0.456C41.968,1.115,42.176,0.915,42.424,0.915z"/>
	<path fill="#010101" d="M44.392,0.915c0.256,0,0.456,0.2,0.456,0.456c0,0.248-0.2,0.456-0.456,0.456
		c-0.248,0-0.455-0.208-0.455-0.456C43.937,1.115,44.144,0.915,44.392,0.915z"/>
	<path fill="#010101" d="M46.359,0.915c0.256,0,0.456,0.2,0.456,0.456c0,0.248-0.2,0.456-0.456,0.456
		c-0.248,0-0.456-0.208-0.456-0.456C45.903,1.115,46.111,0.915,46.359,0.915z"/>
	<path fill="#010101" d="M48.327,0.915c0.256,0,0.456,0.2,0.456,0.456c0,0.248-0.2,0.456-0.456,0.456
		c-0.248,0-0.455-0.208-0.455-0.456C47.872,1.115,48.079,0.915,48.327,0.915z"/>
	<path fill="#010101" d="M50.295,0.915c0.256,0,0.456,0.2,0.456,0.456c0,0.248-0.2,0.456-0.456,0.456
		c-0.248,0-0.456-0.208-0.456-0.456C49.839,1.115,50.047,0.915,50.295,0.915z"/>
	<path fill="#010101" d="M52.264,0.915c0.256,0,0.456,0.2,0.456,0.456c0,0.248-0.2,0.456-0.456,0.456
		c-0.248,0-0.456-0.208-0.456-0.456C51.808,1.115,52.016,0.915,52.264,0.915z"/>
	<path fill="#010101" d="M54.231,0.915c0.256,0,0.456,0.2,0.456,0.456c0,0.248-0.2,0.456-0.456,0.456
		c-0.248,0-0.455-0.208-0.455-0.456C53.776,1.115,53.983,0.915,54.231,0.915z"/>
	<path fill="#010101" d="M56.199,0.915c0.256,0,0.456,0.2,0.456,0.456c0,0.248-0.2,0.456-0.456,0.456
		c-0.248,0-0.456-0.208-0.456-0.456C55.743,1.115,55.951,0.915,56.199,0.915z"/>
	<path fill="#010101" d="M58.167,0.915c0.256,0,0.456,0.2,0.456,0.456c0,0.248-0.2,0.456-0.456,0.456
		c-0.248,0-0.455-0.208-0.455-0.456C57.712,1.115,57.919,0.915,58.167,0.915z"/>
	<path fill="#010101" d="M60.135,0.915c0.256,0,0.456,0.2,0.456,0.456c0,0.248-0.2,0.456-0.456,0.456
		c-0.248,0-0.456-0.208-0.456-0.456C59.679,1.115,59.887,0.915,60.135,0.915z"/>
	<path fill="#010101" d="M62.104,0.915c0.256,0,0.456,0.2,0.456,0.456c0,0.248-0.2,0.456-0.456,0.456
		c-0.248,0-0.456-0.208-0.456-0.456C61.647,1.115,61.855,0.915,62.104,0.915z"/>
	<path fill="#010101" d="M64.071,0.915c0.256,0,0.456,0.2,0.456,0.456c0,0.248-0.2,0.456-0.456,0.456
		c-0.248,0-0.455-0.208-0.455-0.456C63.616,1.115,63.823,0.915,64.071,0.915z"/>
	<path fill="#010101" d="M66.039,0.915c0.256,0,0.456,0.2,0.456,0.456c0,0.248-0.2,0.456-0.456,0.456
		c-0.248,0-0.456-0.208-0.456-0.456C65.583,1.115,65.791,0.915,66.039,0.915z"/>
	<path fill="#010101" d="M68.007,0.915c0.256,0,0.456,0.2,0.456,0.456c0,0.248-0.2,0.456-0.456,0.456
		c-0.248,0-0.455-0.208-0.455-0.456C67.552,1.115,67.759,0.915,68.007,0.915z"/>
	<path fill="#010101" d="M69.976,0.915c0.256,0,0.456,0.2,0.456,0.456c0,0.248-0.2,0.456-0.456,0.456
		c-0.248,0-0.455-0.208-0.455-0.456C69.521,1.115,69.728,0.915,69.976,0.915z"/>
	<path fill="#010101" d="M71.943,0.915c0.256,0,0.456,0.2,0.456,0.456c0,0.248-0.2,0.456-0.456,0.456
		c-0.248,0-0.456-0.208-0.456-0.456C71.487,1.115,71.695,0.915,71.943,0.915z"/>
	<path fill="#010101" d="M73.911,0.915c0.256,0,0.456,0.2,0.456,0.456c0,0.248-0.2,0.456-0.456,0.456
		c-0.248,0-0.455-0.208-0.455-0.456C73.456,1.115,73.663,0.915,73.911,0.915z"/>
	<path fill="#010101" d="M75.879,0.915c0.256,0,0.456,0.2,0.456,0.456c0,0.248-0.2,0.456-0.456,0.456
		c-0.248,0-0.456-0.208-0.456-0.456C75.423,1.115,75.631,0.915,75.879,0.915z"/>
	<path fill="#010101" d="M77.847,0.915c0.256,0,0.456,0.2,0.456,0.456c0,0.248-0.2,0.456-0.456,0.456
		c-0.248,0-0.455-0.208-0.455-0.456C77.392,1.115,77.599,0.915,77.847,0.915z"/>
	<path fill="#010101" d="M79.815,0.915c0.256,0,0.456,0.2,0.456,0.456c0,0.248-0.2,0.456-0.456,0.456
		c-0.248,0-0.455-0.208-0.455-0.456C79.36,1.115,79.567,0.915,79.815,0.915z"/>
	<path fill="#010101" d="M81.783,0.915c0.256,0,0.456,0.2,0.456,0.456c0,0.248-0.2,0.456-0.456,0.456
		c-0.248,0-0.456-0.208-0.456-0.456C81.327,1.115,81.535,0.915,81.783,0.915z"/>
	<path fill="#010101" d="M83.751,0.915c0.256,0,0.456,0.2,0.456,0.456c0,0.248-0.2,0.456-0.456,0.456
		c-0.248,0-0.455-0.208-0.455-0.456C83.296,1.115,83.503,0.915,83.751,0.915z"/>
	<path fill="#010101" d="M85.719,0.915c0.256,0,0.456,0.2,0.456,0.456c0,0.248-0.2,0.456-0.456,0.456
		c-0.248,0-0.456-0.208-0.456-0.456C85.263,1.115,85.471,0.915,85.719,0.915z"/>
	<path fill="#010101" d="M87.687,0.915c0.256,0,0.456,0.2,0.456,0.456c0,0.248-0.2,0.456-0.456,0.456
		c-0.248,0-0.455-0.208-0.455-0.456C87.231,1.115,87.438,0.915,87.687,0.915z"/>
	<path fill="#010101" d="M89.655,0.915c0.256,0,0.456,0.2,0.456,0.456c0,0.248-0.2,0.456-0.456,0.456
		c-0.248,0-0.455-0.208-0.455-0.456C89.2,1.115,89.407,0.915,89.655,0.915z"/>
	<path fill="#010101" d="M91.623,0.915c0.256,0,0.456,0.2,0.456,0.456c0,0.248-0.2,0.456-0.456,0.456
		c-0.248,0-0.456-0.208-0.456-0.456C91.167,1.115,91.375,0.915,91.623,0.915z"/>
	<path fill="#010101" d="M93.591,0.915c0.256,0,0.456,0.2,0.456,0.456c0,0.248-0.2,0.456-0.456,0.456
		c-0.248,0-0.455-0.208-0.455-0.456C93.136,1.115,93.343,0.915,93.591,0.915z"/>
	<path fill="#010101" d="M95.559,0.915c0.256,0,0.456,0.2,0.456,0.456c0,0.248-0.2,0.456-0.456,0.456
		c-0.248,0-0.456-0.208-0.456-0.456C95.103,1.115,95.311,0.915,95.559,0.915z"/>
	<path fill="#010101" d="M97.527,0.915c0.256,0,0.456,0.2,0.456,0.456c0,0.248-0.2,0.456-0.456,0.456
		c-0.248,0-0.456-0.208-0.456-0.456C97.071,1.115,97.279,0.915,97.527,0.915z"/>
	<path fill="#010101" d="M99.495,0.915c0.256,0,0.457,0.2,0.457,0.456c0,0.248-0.201,0.456-0.457,0.456
		c-0.248,0-0.455-0.208-0.455-0.456C99.04,1.115,99.247,0.915,99.495,0.915z"/>
	<path fill="#010101" d="M101.463,0.915c0.256,0,0.455,0.2,0.455,0.456c0,0.248-0.199,0.456-0.455,0.456
		c-0.248,0-0.457-0.208-0.457-0.456C101.006,1.115,101.215,0.915,101.463,0.915z"/>
	<path fill="#010101" d="M103.43,0.915c0.256,0,0.457,0.2,0.457,0.456c0,0.248-0.201,0.456-0.457,0.456
		c-0.248,0-0.455-0.208-0.455-0.456C102.975,1.115,103.182,0.915,103.43,0.915z"/>
	<path fill="#010101" d="M105.399,0.915c0.256,0,0.455,0.2,0.455,0.456c0,0.248-0.199,0.456-0.455,0.456
		c-0.248,0-0.457-0.208-0.457-0.456C104.942,1.115,105.151,0.915,105.399,0.915z"/>
	<path fill="#010101" d="M107.368,0.915c0.256,0,0.455,0.2,0.455,0.456c0,0.248-0.199,0.456-0.455,0.456
		c-0.248,0-0.457-0.208-0.457-0.456C106.911,1.115,107.12,0.915,107.368,0.915z"/>
	<path fill="#010101" d="M109.334,0.915c0.256,0,0.457,0.2,0.457,0.456c0,0.248-0.201,0.456-0.457,0.456
		c-0.248,0-0.455-0.208-0.455-0.456C108.879,1.115,109.086,0.915,109.334,0.915z"/>
	<path fill="#010101" d="M111.303,0.915c0.256,0,0.455,0.2,0.455,0.456c0,0.248-0.199,0.456-0.455,0.456
		c-0.248,0-0.457-0.208-0.457-0.456C110.846,1.115,111.055,0.915,111.303,0.915z"/>
	<path fill="#010101" d="M113.27,0.915c0.256,0,0.457,0.2,0.457,0.456c0,0.248-0.201,0.456-0.457,0.456
		c-0.248,0-0.455-0.208-0.455-0.456C112.815,1.115,113.022,0.915,113.27,0.915z"/>
	<path fill="#010101" d="M115.239,0.915c0.256,0,0.455,0.2,0.455,0.456c0,0.248-0.199,0.456-0.455,0.456
		c-0.248,0-0.457-0.208-0.457-0.456C114.782,1.115,114.991,0.915,115.239,0.915z"/>
	<path fill="#010101" d="M117.208,0.915c0.256,0,0.455,0.2,0.455,0.456c0,0.248-0.199,0.456-0.455,0.456
		c-0.248,0-0.457-0.208-0.457-0.456C116.75,1.115,116.959,0.915,117.208,0.915z"/>
	<path fill="#010101" d="M119.174,0.915c0.256,0,0.457,0.2,0.457,0.456c0,0.248-0.201,0.456-0.457,0.456
		c-0.248,0-0.455-0.208-0.455-0.456C118.719,1.115,118.926,0.915,119.174,0.915z"/>
	<path fill="#010101" d="M121.143,0.915c0.256,0,0.455,0.2,0.455,0.456c0,0.248-0.199,0.456-0.455,0.456
		c-0.248,0-0.457-0.208-0.457-0.456C120.686,1.115,120.895,0.915,121.143,0.915z"/>
	<path fill="#010101" d="M123.11,0.915c0.256,0,0.457,0.2,0.457,0.456c0,0.248-0.201,0.456-0.457,0.456
		c-0.248,0-0.455-0.208-0.455-0.456C122.655,1.115,122.862,0.915,123.11,0.915z"/>
	<path fill="#010101" d="M125.079,0.915c0.256,0,0.457,0.2,0.457,0.456c0,0.248-0.201,0.456-0.457,0.456
		c-0.248,0-0.455-0.208-0.455-0.456C124.624,1.115,124.831,0.915,125.079,0.915z"/>
	<path fill="#010101" d="M127.047,0.915c0.256,0,0.455,0.2,0.455,0.456c0,0.248-0.199,0.456-0.455,0.456
		c-0.248,0-0.457-0.208-0.457-0.456C126.59,1.115,126.799,0.915,127.047,0.915z"/>
	<path fill="#010101" d="M129.014,0.915c0.256,0,0.457,0.2,0.457,0.456c0,0.248-0.201,0.456-0.457,0.456
		c-0.248,0-0.455-0.208-0.455-0.456C128.559,1.115,128.766,0.915,129.014,0.915z"/>
	<path fill="#010101" d="M130.983,0.915c0.256,0,0.455,0.2,0.455,0.456c0,0.248-0.199,0.456-0.455,0.456
		c-0.248,0-0.457-0.208-0.457-0.456C130.526,1.115,130.735,0.915,130.983,0.915z"/>
	<path fill="#010101" d="M132.95,0.915c0.256,0,0.457,0.2,0.457,0.456c0,0.248-0.201,0.456-0.457,0.456
		c-0.248,0-0.455-0.208-0.455-0.456C132.495,1.115,132.702,0.915,132.95,0.915z"/>
	<path fill="#010101" d="M134.918,0.915c0.256,0,0.457,0.2,0.457,0.456c0,0.248-0.201,0.456-0.457,0.456
		c-0.248,0-0.455-0.208-0.455-0.456C134.463,1.115,134.67,0.915,134.918,0.915z"/>
	<path fill="#010101" d="M136.887,0.915c0.256,0,0.455,0.2,0.455,0.456c0,0.248-0.199,0.456-0.455,0.456
		c-0.248,0-0.457-0.208-0.457-0.456C136.43,1.115,136.639,0.915,136.887,0.915z"/>
	<path fill="#010101" d="M138.854,0.915c0.256,0,0.457,0.2,0.457,0.456c0,0.248-0.201,0.456-0.457,0.456
		c-0.248,0-0.455-0.208-0.455-0.456C138.399,1.115,138.606,0.915,138.854,0.915z"/>
	<path fill="#010101" d="M140.823,0.915c0.256,0,0.455,0.2,0.455,0.456c0,0.248-0.199,0.456-0.455,0.456
		c-0.248,0-0.457-0.208-0.457-0.456C140.366,1.115,140.575,0.915,140.823,0.915z"/>
	<path fill="#010101" d="M142.79,0.915c0.256,0,0.457,0.2,0.457,0.456c0,0.248-0.201,0.456-0.457,0.456
		c-0.248,0-0.455-0.208-0.455-0.456C142.334,1.115,142.542,0.915,142.79,0.915z"/>
	<path fill="#010101" d="M144.758,0.915c0.256,0,0.457,0.2,0.457,0.456c0,0.248-0.201,0.456-0.457,0.456
		c-0.248,0-0.455-0.208-0.455-0.456C144.303,1.115,144.51,0.915,144.758,0.915z"/>
	<path fill="#010101" d="M146.727,0.915c0.256,0,0.455,0.2,0.455,0.456c0,0.248-0.199,0.456-0.455,0.456
		c-0.248,0-0.457-0.208-0.457-0.456C146.27,1.115,146.479,0.915,146.727,0.915z"/>
	<path fill="#010101" d="M148.694,0.915c0.256,0,0.457,0.2,0.457,0.456c0,0.248-0.201,0.456-0.457,0.456
		c-0.248,0-0.455-0.208-0.455-0.456C148.239,1.115,148.446,0.915,148.694,0.915z"/>
	<path fill="#010101" d="M150.663,0.915c0.256,0,0.455,0.2,0.455,0.456c0,0.248-0.199,0.456-0.455,0.456
		c-0.248,0-0.457-0.208-0.457-0.456C150.206,1.115,150.415,0.915,150.663,0.915z"/>
	<path fill="#010101" d="M152.631,0.915c0.256,0,0.455,0.2,0.455,0.456c0,0.248-0.199,0.456-0.455,0.456
		c-0.248,0-0.457-0.208-0.457-0.456C152.174,1.115,152.383,0.915,152.631,0.915z"/>
	<path fill="#010101" d="M154.598,0.915c0.256,0,0.457,0.2,0.457,0.456c0,0.248-0.201,0.456-0.457,0.456
		c-0.248,0-0.455-0.208-0.455-0.456C154.143,1.115,154.35,0.915,154.598,0.915z"/>
	<path fill="#010101" d="M156.567,0.915c0.256,0,0.455,0.2,0.455,0.456c0,0.248-0.199,0.456-0.455,0.456
		c-0.248,0-0.457-0.208-0.457-0.456C156.11,1.115,156.319,0.915,156.567,0.915z"/>
	<path fill="#010101" d="M158.534,0.915c0.256,0,0.457,0.2,0.457,0.456c0,0.248-0.201,0.456-0.457,0.456
		c-0.248,0-0.455-0.208-0.455-0.456C158.079,1.115,158.286,0.915,158.534,0.915z"/>
	<path fill="#010101" d="M160.502,0.915c0.256,0,0.455,0.2,0.455,0.456c0,0.248-0.199,0.456-0.455,0.456
		c-0.248,0-0.457-0.208-0.457-0.456C160.045,1.115,160.254,0.915,160.502,0.915z"/>
	<path fill="#010101" d="M162.471,0.915c0.256,0,0.455,0.2,0.455,0.456c0,0.248-0.199,0.456-0.455,0.456
		c-0.248,0-0.457-0.208-0.457-0.456C162.014,1.115,162.223,0.915,162.471,0.915z"/>
	<path fill="#010101" d="M164.438,0.915c0.256,0,0.457,0.2,0.457,0.456c0,0.248-0.201,0.456-0.457,0.456
		c-0.248,0-0.455-0.208-0.455-0.456C163.983,1.115,164.19,0.915,164.438,0.915z"/>
	<path fill="#010101" d="M166.407,0.915c0.256,0,0.455,0.2,0.455,0.456c0,0.248-0.199,0.456-0.455,0.456
		c-0.248,0-0.457-0.208-0.457-0.456C165.95,1.115,166.159,0.915,166.407,0.915z"/>
	<path fill="#010101" d="M168.374,0.915c0.256,0,0.457,0.2,0.457,0.456c0,0.248-0.201,0.456-0.457,0.456
		c-0.248,0-0.455-0.208-0.455-0.456C167.918,1.115,168.125,0.915,168.374,0.915z"/>
	<path fill="#010101" d="M170.342,0.915c0.256,0,0.455,0.2,0.455,0.456c0,0.248-0.199,0.456-0.455,0.456
		c-0.248,0-0.457-0.208-0.457-0.456C169.885,1.115,170.094,0.915,170.342,0.915z"/>
	<path fill="#010101" d="M172.311,0.915c0.256,0,0.455,0.2,0.455,0.456c0,0.248-0.199,0.456-0.455,0.456
		c-0.248,0-0.457-0.208-0.457-0.456C171.854,1.115,172.063,0.915,172.311,0.915z"/>
	<path fill="#010101" d="M174.278,0.915c0.256,0,0.457,0.2,0.457,0.456c0,0.248-0.201,0.456-0.457,0.456
		c-0.248,0-0.455-0.208-0.455-0.456C173.823,1.115,174.03,0.915,174.278,0.915z"/>
	<path fill="#010101" d="M176.247,0.915c0.256,0,0.455,0.2,0.455,0.456c0,0.248-0.199,0.456-0.455,0.456
		c-0.248,0-0.457-0.208-0.457-0.456C175.79,1.115,175.999,0.915,176.247,0.915z"/>
	<path fill="#010101" d="M178.213,0.915c0.256,0,0.457,0.2,0.457,0.456c0,0.248-0.201,0.456-0.457,0.456
		c-0.248,0-0.455-0.208-0.455-0.456C177.758,1.115,177.965,0.915,178.213,0.915z"/>
	<path fill="#010101" d="M180.182,0.915c0.256,0,0.457,0.2,0.457,0.456c0,0.248-0.201,0.456-0.457,0.456
		c-0.248,0-0.455-0.208-0.455-0.456C179.727,1.115,179.934,0.915,180.182,0.915z"/>
	<path fill="#010101" d="M182.151,0.915c0.256,0,0.455,0.2,0.455,0.456c0,0.248-0.199,0.456-0.455,0.456
		c-0.248,0-0.457-0.208-0.457-0.456C181.694,1.115,181.903,0.915,182.151,0.915z"/>
	<path fill="#010101" d="M184.118,0.915c0.256,0,0.457,0.2,0.457,0.456c0,0.248-0.201,0.456-0.457,0.456
		c-0.248,0-0.455-0.208-0.455-0.456C183.663,1.115,183.87,0.915,184.118,0.915z"/>
	<path fill="#010101" d="M186.086,0.915c0.256,0,0.455,0.2,0.455,0.456c0,0.248-0.199,0.456-0.455,0.456
		c-0.248,0-0.457-0.208-0.457-0.456C185.629,1.115,185.838,0.915,186.086,0.915z"/>
	<path fill="#010101" d="M188.053,0.915c0.256,0,0.457,0.2,0.457,0.456c0,0.248-0.201,0.456-0.457,0.456
		c-0.248,0-0.455-0.208-0.455-0.456C187.598,1.115,187.805,0.915,188.053,0.915z"/>
	<path fill="#010101" d="M190.022,0.915c0.256,0,0.457,0.2,0.457,0.456c0,0.248-0.201,0.456-0.457,0.456
		c-0.248,0-0.455-0.208-0.455-0.456C189.567,1.115,189.774,0.915,190.022,0.915z"/>
	<path fill="#010101" d="M191.991,0.915c0.256,0,0.455,0.2,0.455,0.456c0,0.248-0.199,0.456-0.455,0.456
		c-0.248,0-0.457-0.208-0.457-0.456C191.534,1.115,191.743,0.915,191.991,0.915z"/>
	<path fill="#010101" d="M193.958,0.915c0.256,0,0.457,0.2,0.457,0.456c0,0.248-0.201,0.456-0.457,0.456
		c-0.248,0-0.455-0.208-0.455-0.456C193.502,1.115,193.709,0.915,193.958,0.915z"/>
</g>
<g opacity="0.7">
	<path fill="#010101" d="M1.096,31.915c0.256,0,0.456,0.2,0.456,0.456c0,0.248-0.2,0.456-0.456,0.456
		c-0.248,0-0.456-0.208-0.456-0.456C0.64,32.115,0.848,31.915,1.096,31.915z"/>
	<path fill="#010101" d="M3.063,31.915c0.256,0,0.456,0.2,0.456,0.456c0,0.248-0.2,0.456-0.456,0.456
		c-0.248,0-0.455-0.208-0.455-0.456C2.608,32.115,2.815,31.915,3.063,31.915z"/>
	<path fill="#010101" d="M5.031,31.915c0.256,0,0.456,0.2,0.456,0.456c0,0.248-0.2,0.456-0.456,0.456
		c-0.248,0-0.456-0.208-0.456-0.456C4.575,32.115,4.783,31.915,5.031,31.915z"/>
	<path fill="#010101" d="M7,31.915c0.256,0,0.456,0.2,0.456,0.456c0,0.248-0.2,0.456-0.456,0.456c-0.248,0-0.456-0.208-0.456-0.456
		C6.544,32.115,6.752,31.915,7,31.915z"/>
	<path fill="#010101" d="M8.968,31.915c0.256,0,0.456,0.2,0.456,0.456c0,0.248-0.2,0.456-0.456,0.456
		c-0.248,0-0.455-0.208-0.455-0.456C8.513,32.115,8.72,31.915,8.968,31.915z"/>
	<path fill="#010101" d="M10.936,31.915c0.256,0,0.456,0.2,0.456,0.456c0,0.248-0.2,0.456-0.456,0.456
		c-0.248,0-0.456-0.208-0.456-0.456C10.479,32.115,10.688,31.915,10.936,31.915z"/>
	<path fill="#010101" d="M12.903,31.915c0.256,0,0.456,0.2,0.456,0.456c0,0.248-0.2,0.456-0.456,0.456
		c-0.248,0-0.455-0.208-0.455-0.456C12.448,32.115,12.655,31.915,12.903,31.915z"/>
	<path fill="#010101" d="M14.872,31.915c0.256,0,0.456,0.2,0.456,0.456c0,0.248-0.2,0.456-0.456,0.456
		c-0.248,0-0.455-0.208-0.455-0.456C14.417,32.115,14.624,31.915,14.872,31.915z"/>
	<path fill="#010101" d="M16.84,31.915c0.256,0,0.456,0.2,0.456,0.456c0,0.248-0.2,0.456-0.456,0.456
		c-0.248,0-0.456-0.208-0.456-0.456C16.384,32.115,16.592,31.915,16.84,31.915z"/>
	<path fill="#010101" d="M18.808,31.915c0.256,0,0.456,0.2,0.456,0.456c0,0.248-0.2,0.456-0.456,0.456
		c-0.248,0-0.455-0.208-0.455-0.456C18.353,32.115,18.56,31.915,18.808,31.915z"/>
	<path fill="#010101" d="M20.775,31.915c0.256,0,0.456,0.2,0.456,0.456c0,0.248-0.2,0.456-0.456,0.456
		c-0.248,0-0.456-0.208-0.456-0.456C20.319,32.115,20.527,31.915,20.775,31.915z"/>
	<path fill="#010101" d="M22.743,31.915c0.256,0,0.456,0.2,0.456,0.456c0,0.248-0.2,0.456-0.456,0.456
		c-0.248,0-0.455-0.208-0.455-0.456C22.288,32.115,22.495,31.915,22.743,31.915z"/>
	<path fill="#010101" d="M24.712,31.915c0.256,0,0.456,0.2,0.456,0.456c0,0.248-0.2,0.456-0.456,0.456
		c-0.248,0-0.455-0.208-0.455-0.456C24.257,32.115,24.464,31.915,24.712,31.915z"/>
	<path fill="#010101" d="M26.68,31.915c0.256,0,0.456,0.2,0.456,0.456c0,0.248-0.2,0.456-0.456,0.456
		c-0.248,0-0.456-0.208-0.456-0.456C26.224,32.115,26.432,31.915,26.68,31.915z"/>
	<path fill="#010101" d="M28.647,31.915c0.256,0,0.456,0.2,0.456,0.456c0,0.248-0.2,0.456-0.456,0.456
		c-0.248,0-0.455-0.208-0.455-0.456C28.192,32.115,28.399,31.915,28.647,31.915z"/>
	<path fill="#010101" d="M30.615,31.915c0.256,0,0.456,0.2,0.456,0.456c0,0.248-0.2,0.456-0.456,0.456
		c-0.248,0-0.456-0.208-0.456-0.456C30.159,32.115,30.367,31.915,30.615,31.915z"/>
	<path fill="#010101" d="M32.583,31.915c0.256,0,0.456,0.2,0.456,0.456c0,0.248-0.2,0.456-0.456,0.456
		c-0.248,0-0.455-0.208-0.455-0.456C32.128,32.115,32.335,31.915,32.583,31.915z"/>
	<path fill="#010101" d="M34.552,31.915c0.256,0,0.456,0.2,0.456,0.456c0,0.248-0.2,0.456-0.456,0.456
		c-0.248,0-0.455-0.208-0.455-0.456C34.097,32.115,34.304,31.915,34.552,31.915z"/>
	<path fill="#010101" d="M36.52,31.915c0.256,0,0.456,0.2,0.456,0.456c0,0.248-0.2,0.456-0.456,0.456
		c-0.248,0-0.456-0.208-0.456-0.456C36.063,32.115,36.271,31.915,36.52,31.915z"/>
	<path fill="#010101" d="M38.487,31.915c0.256,0,0.456,0.2,0.456,0.456c0,0.248-0.2,0.456-0.456,0.456
		c-0.248,0-0.455-0.208-0.455-0.456C38.032,32.115,38.239,31.915,38.487,31.915z"/>
	<path fill="#010101" d="M40.455,31.915c0.256,0,0.456,0.2,0.456,0.456c0,0.248-0.2,0.456-0.456,0.456
		c-0.248,0-0.456-0.208-0.456-0.456C39.999,32.115,40.207,31.915,40.455,31.915z"/>
	<path fill="#010101" d="M42.424,31.915c0.256,0,0.456,0.2,0.456,0.456c0,0.248-0.2,0.456-0.456,0.456
		c-0.248,0-0.456-0.208-0.456-0.456C41.968,32.115,42.176,31.915,42.424,31.915z"/>
	<path fill="#010101" d="M44.392,31.915c0.256,0,0.456,0.2,0.456,0.456c0,0.248-0.2,0.456-0.456,0.456
		c-0.248,0-0.455-0.208-0.455-0.456C43.937,32.115,44.144,31.915,44.392,31.915z"/>
	<path fill="#010101" d="M46.359,31.915c0.256,0,0.456,0.2,0.456,0.456c0,0.248-0.2,0.456-0.456,0.456
		c-0.248,0-0.456-0.208-0.456-0.456C45.903,32.115,46.111,31.915,46.359,31.915z"/>
	<path fill="#010101" d="M48.327,31.915c0.256,0,0.456,0.2,0.456,0.456c0,0.248-0.2,0.456-0.456,0.456
		c-0.248,0-0.455-0.208-0.455-0.456C47.872,32.115,48.079,31.915,48.327,31.915z"/>
	<path fill="#010101" d="M50.295,31.915c0.256,0,0.456,0.2,0.456,0.456c0,0.248-0.2,0.456-0.456,0.456
		c-0.248,0-0.456-0.208-0.456-0.456C49.839,32.115,50.047,31.915,50.295,31.915z"/>
	<path fill="#010101" d="M52.264,31.915c0.256,0,0.456,0.2,0.456,0.456c0,0.248-0.2,0.456-0.456,0.456
		c-0.248,0-0.456-0.208-0.456-0.456C51.808,32.115,52.016,31.915,52.264,31.915z"/>
	<path fill="#010101" d="M54.231,31.915c0.256,0,0.456,0.2,0.456,0.456c0,0.248-0.2,0.456-0.456,0.456
		c-0.248,0-0.455-0.208-0.455-0.456C53.776,32.115,53.983,31.915,54.231,31.915z"/>
	<path fill="#010101" d="M56.199,31.915c0.256,0,0.456,0.2,0.456,0.456c0,0.248-0.2,0.456-0.456,0.456
		c-0.248,0-0.456-0.208-0.456-0.456C55.743,32.115,55.951,31.915,56.199,31.915z"/>
	<path fill="#010101" d="M58.167,31.915c0.256,0,0.456,0.2,0.456,0.456c0,0.248-0.2,0.456-0.456,0.456
		c-0.248,0-0.455-0.208-0.455-0.456C57.712,32.115,57.919,31.915,58.167,31.915z"/>
	<path fill="#010101" d="M60.135,31.915c0.256,0,0.456,0.2,0.456,0.456c0,0.248-0.2,0.456-0.456,0.456
		c-0.248,0-0.456-0.208-0.456-0.456C59.679,32.115,59.887,31.915,60.135,31.915z"/>
	<path fill="#010101" d="M62.104,31.915c0.256,0,0.456,0.2,0.456,0.456c0,0.248-0.2,0.456-0.456,0.456
		c-0.248,0-0.456-0.208-0.456-0.456C61.647,32.115,61.855,31.915,62.104,31.915z"/>
	<path fill="#010101" d="M64.071,31.915c0.256,0,0.456,0.2,0.456,0.456c0,0.248-0.2,0.456-0.456,0.456
		c-0.248,0-0.455-0.208-0.455-0.456C63.616,32.115,63.823,31.915,64.071,31.915z"/>
	<path fill="#010101" d="M66.039,31.915c0.256,0,0.456,0.2,0.456,0.456c0,0.248-0.2,0.456-0.456,0.456
		c-0.248,0-0.456-0.208-0.456-0.456C65.583,32.115,65.791,31.915,66.039,31.915z"/>
	<path fill="#010101" d="M68.007,31.915c0.256,0,0.456,0.2,0.456,0.456c0,0.248-0.2,0.456-0.456,0.456
		c-0.248,0-0.455-0.208-0.455-0.456C67.552,32.115,67.759,31.915,68.007,31.915z"/>
	<path fill="#010101" d="M69.976,31.915c0.256,0,0.456,0.2,0.456,0.456c0,0.248-0.2,0.456-0.456,0.456
		c-0.248,0-0.455-0.208-0.455-0.456C69.521,32.115,69.728,31.915,69.976,31.915z"/>
	<path fill="#010101" d="M71.943,31.915c0.256,0,0.456,0.2,0.456,0.456c0,0.248-0.2,0.456-0.456,0.456
		c-0.248,0-0.456-0.208-0.456-0.456C71.487,32.115,71.695,31.915,71.943,31.915z"/>
	<path fill="#010101" d="M73.911,31.915c0.256,0,0.456,0.2,0.456,0.456c0,0.248-0.2,0.456-0.456,0.456
		c-0.248,0-0.455-0.208-0.455-0.456C73.456,32.115,73.663,31.915,73.911,31.915z"/>
	<path fill="#010101" d="M75.879,31.915c0.256,0,0.456,0.2,0.456,0.456c0,0.248-0.2,0.456-0.456,0.456
		c-0.248,0-0.456-0.208-0.456-0.456C75.423,32.115,75.631,31.915,75.879,31.915z"/>
	<path fill="#010101" d="M77.847,31.915c0.256,0,0.456,0.2,0.456,0.456c0,0.248-0.2,0.456-0.456,0.456
		c-0.248,0-0.455-0.208-0.455-0.456C77.392,32.115,77.599,31.915,77.847,31.915z"/>
	<path fill="#010101" d="M79.815,31.915c0.256,0,0.456,0.2,0.456,0.456c0,0.248-0.2,0.456-0.456,0.456
		c-0.248,0-0.455-0.208-0.455-0.456C79.36,32.115,79.567,31.915,79.815,31.915z"/>
	<path fill="#010101" d="M81.783,31.915c0.256,0,0.456,0.2,0.456,0.456c0,0.248-0.2,0.456-0.456,0.456
		c-0.248,0-0.456-0.208-0.456-0.456C81.327,32.115,81.535,31.915,81.783,31.915z"/>
	<path fill="#010101" d="M83.751,31.915c0.256,0,0.456,0.2,0.456,0.456c0,0.248-0.2,0.456-0.456,0.456
		c-0.248,0-0.455-0.208-0.455-0.456C83.296,32.115,83.503,31.915,83.751,31.915z"/>
	<path fill="#010101" d="M85.719,31.915c0.256,0,0.456,0.2,0.456,0.456c0,0.248-0.2,0.456-0.456,0.456
		c-0.248,0-0.456-0.208-0.456-0.456C85.263,32.115,85.471,31.915,85.719,31.915z"/>
	<path fill="#010101" d="M87.687,31.915c0.256,0,0.456,0.2,0.456,0.456c0,0.248-0.2,0.456-0.456,0.456
		c-0.248,0-0.455-0.208-0.455-0.456C87.231,32.115,87.438,31.915,87.687,31.915z"/>
	<path fill="#010101" d="M89.655,31.915c0.256,0,0.456,0.2,0.456,0.456c0,0.248-0.2,0.456-0.456,0.456
		c-0.248,0-0.455-0.208-0.455-0.456C89.2,32.115,89.407,31.915,89.655,31.915z"/>
	<path fill="#010101" d="M91.623,31.915c0.256,0,0.456,0.2,0.456,0.456c0,0.248-0.2,0.456-0.456,0.456
		c-0.248,0-0.456-0.208-0.456-0.456C91.167,32.115,91.375,31.915,91.623,31.915z"/>
	<path fill="#010101" d="M93.591,31.915c0.256,0,0.456,0.2,0.456,0.456c0,0.248-0.2,0.456-0.456,0.456
		c-0.248,0-0.455-0.208-0.455-0.456C93.136,32.115,93.343,31.915,93.591,31.915z"/>
	<path fill="#010101" d="M95.559,31.915c0.256,0,0.456,0.2,0.456,0.456c0,0.248-0.2,0.456-0.456,0.456
		c-0.248,0-0.456-0.208-0.456-0.456C95.103,32.115,95.311,31.915,95.559,31.915z"/>
	<path fill="#010101" d="M97.527,31.915c0.256,0,0.456,0.2,0.456,0.456c0,0.248-0.2,0.456-0.456,0.456
		c-0.248,0-0.456-0.208-0.456-0.456C97.071,32.115,97.279,31.915,97.527,31.915z"/>
	<path fill="#010101" d="M99.495,31.915c0.256,0,0.457,0.2,0.457,0.456c0,0.248-0.201,0.456-0.457,0.456
		c-0.248,0-0.455-0.208-0.455-0.456C99.04,32.115,99.247,31.915,99.495,31.915z"/>
	<path fill="#010101" d="M101.463,31.915c0.256,0,0.455,0.2,0.455,0.456c0,0.248-0.199,0.456-0.455,0.456
		c-0.248,0-0.457-0.208-0.457-0.456C101.006,32.115,101.215,31.915,101.463,31.915z"/>
	<path fill="#010101" d="M103.43,31.915c0.256,0,0.457,0.2,0.457,0.456c0,0.248-0.201,0.456-0.457,0.456
		c-0.248,0-0.455-0.208-0.455-0.456C102.975,32.115,103.182,31.915,103.43,31.915z"/>
	<path fill="#010101" d="M105.399,31.915c0.256,0,0.455,0.2,0.455,0.456c0,0.248-0.199,0.456-0.455,0.456
		c-0.248,0-0.457-0.208-0.457-0.456C104.942,32.115,105.151,31.915,105.399,31.915z"/>
	<path fill="#010101" d="M107.368,31.915c0.256,0,0.455,0.2,0.455,0.456c0,0.248-0.199,0.456-0.455,0.456
		c-0.248,0-0.457-0.208-0.457-0.456C106.911,32.115,107.12,31.915,107.368,31.915z"/>
	<path fill="#010101" d="M109.334,31.915c0.256,0,0.457,0.2,0.457,0.456c0,0.248-0.201,0.456-0.457,0.456
		c-0.248,0-0.455-0.208-0.455-0.456C108.879,32.115,109.086,31.915,109.334,31.915z"/>
	<path fill="#010101" d="M111.303,31.915c0.256,0,0.455,0.2,0.455,0.456c0,0.248-0.199,0.456-0.455,0.456
		c-0.248,0-0.457-0.208-0.457-0.456C110.846,32.115,111.055,31.915,111.303,31.915z"/>
	<path fill="#010101" d="M113.27,31.915c0.256,0,0.457,0.2,0.457,0.456c0,0.248-0.201,0.456-0.457,0.456
		c-0.248,0-0.455-0.208-0.455-0.456C112.815,32.115,113.022,31.915,113.27,31.915z"/>
	<path fill="#010101" d="M115.239,31.915c0.256,0,0.455,0.2,0.455,0.456c0,0.248-0.199,0.456-0.455,0.456
		c-0.248,0-0.457-0.208-0.457-0.456C114.782,32.115,114.991,31.915,115.239,31.915z"/>
	<path fill="#010101" d="M117.208,31.915c0.256,0,0.455,0.2,0.455,0.456c0,0.248-0.199,0.456-0.455,0.456
		c-0.248,0-0.457-0.208-0.457-0.456C116.75,32.115,116.959,31.915,117.208,31.915z"/>
	<path fill="#010101" d="M119.174,31.915c0.256,0,0.457,0.2,0.457,0.456c0,0.248-0.201,0.456-0.457,0.456
		c-0.248,0-0.455-0.208-0.455-0.456C118.719,32.115,118.926,31.915,119.174,31.915z"/>
	<path fill="#010101" d="M121.143,31.915c0.256,0,0.455,0.2,0.455,0.456c0,0.248-0.199,0.456-0.455,0.456
		c-0.248,0-0.457-0.208-0.457-0.456C120.686,32.115,120.895,31.915,121.143,31.915z"/>
	<path fill="#010101" d="M123.11,31.915c0.256,0,0.457,0.2,0.457,0.456c0,0.248-0.201,0.456-0.457,0.456
		c-0.248,0-0.455-0.208-0.455-0.456C122.655,32.115,122.862,31.915,123.11,31.915z"/>
	<path fill="#010101" d="M125.079,31.915c0.256,0,0.457,0.2,0.457,0.456c0,0.248-0.201,0.456-0.457,0.456
		c-0.248,0-0.455-0.208-0.455-0.456C124.624,32.115,124.831,31.915,125.079,31.915z"/>
	<path fill="#010101" d="M127.047,31.915c0.256,0,0.455,0.2,0.455,0.456c0,0.248-0.199,0.456-0.455,0.456
		c-0.248,0-0.457-0.208-0.457-0.456C126.59,32.115,126.799,31.915,127.047,31.915z"/>
	<path fill="#010101" d="M129.014,31.915c0.256,0,0.457,0.2,0.457,0.456c0,0.248-0.201,0.456-0.457,0.456
		c-0.248,0-0.455-0.208-0.455-0.456C128.559,32.115,128.766,31.915,129.014,31.915z"/>
	<path fill="#010101" d="M130.983,31.915c0.256,0,0.455,0.2,0.455,0.456c0,0.248-0.199,0.456-0.455,0.456
		c-0.248,0-0.457-0.208-0.457-0.456C130.526,32.115,130.735,31.915,130.983,31.915z"/>
	<path fill="#010101" d="M132.95,31.915c0.256,0,0.457,0.2,0.457,0.456c0,0.248-0.201,0.456-0.457,0.456
		c-0.248,0-0.455-0.208-0.455-0.456C132.495,32.115,132.702,31.915,132.95,31.915z"/>
	<path fill="#010101" d="M134.918,31.915c0.256,0,0.457,0.2,0.457,0.456c0,0.248-0.201,0.456-0.457,0.456
		c-0.248,0-0.455-0.208-0.455-0.456C134.463,32.115,134.67,31.915,134.918,31.915z"/>
	<path fill="#010101" d="M136.887,31.915c0.256,0,0.455,0.2,0.455,0.456c0,0.248-0.199,0.456-0.455,0.456
		c-0.248,0-0.457-0.208-0.457-0.456C136.43,32.115,136.639,31.915,136.887,31.915z"/>
	<path fill="#010101" d="M138.854,31.915c0.256,0,0.457,0.2,0.457,0.456c0,0.248-0.201,0.456-0.457,0.456
		c-0.248,0-0.455-0.208-0.455-0.456C138.399,32.115,138.606,31.915,138.854,31.915z"/>
	<path fill="#010101" d="M140.823,31.915c0.256,0,0.455,0.2,0.455,0.456c0,0.248-0.199,0.456-0.455,0.456
		c-0.248,0-0.457-0.208-0.457-0.456C140.366,32.115,140.575,31.915,140.823,31.915z"/>
	<path fill="#010101" d="M142.79,31.915c0.256,0,0.457,0.2,0.457,0.456c0,0.248-0.201,0.456-0.457,0.456
		c-0.248,0-0.455-0.208-0.455-0.456C142.334,32.115,142.542,31.915,142.79,31.915z"/>
	<path fill="#010101" d="M144.758,31.915c0.256,0,0.457,0.2,0.457,0.456c0,0.248-0.201,0.456-0.457,0.456
		c-0.248,0-0.455-0.208-0.455-0.456C144.303,32.115,144.51,31.915,144.758,31.915z"/>
	<path fill="#010101" d="M146.727,31.915c0.256,0,0.455,0.2,0.455,0.456c0,0.248-0.199,0.456-0.455,0.456
		c-0.248,0-0.457-0.208-0.457-0.456C146.27,32.115,146.479,31.915,146.727,31.915z"/>
	<path fill="#010101" d="M148.694,31.915c0.256,0,0.457,0.2,0.457,0.456c0,0.248-0.201,0.456-0.457,0.456
		c-0.248,0-0.455-0.208-0.455-0.456C148.239,32.115,148.446,31.915,148.694,31.915z"/>
	<path fill="#010101" d="M150.663,31.915c0.256,0,0.455,0.2,0.455,0.456c0,0.248-0.199,0.456-0.455,0.456
		c-0.248,0-0.457-0.208-0.457-0.456C150.206,32.115,150.415,31.915,150.663,31.915z"/>
	<path fill="#010101" d="M152.631,31.915c0.256,0,0.455,0.2,0.455,0.456c0,0.248-0.199,0.456-0.455,0.456
		c-0.248,0-0.457-0.208-0.457-0.456C152.174,32.115,152.383,31.915,152.631,31.915z"/>
	<path fill="#010101" d="M154.598,31.915c0.256,0,0.457,0.2,0.457,0.456c0,0.248-0.201,0.456-0.457,0.456
		c-0.248,0-0.455-0.208-0.455-0.456C154.143,32.115,154.35,31.915,154.598,31.915z"/>
	<path fill="#010101" d="M156.567,31.915c0.256,0,0.455,0.2,0.455,0.456c0,0.248-0.199,0.456-0.455,0.456
		c-0.248,0-0.457-0.208-0.457-0.456C156.11,32.115,156.319,31.915,156.567,31.915z"/>
	<path fill="#010101" d="M158.534,31.915c0.256,0,0.457,0.2,0.457,0.456c0,0.248-0.201,0.456-0.457,0.456
		c-0.248,0-0.455-0.208-0.455-0.456C158.079,32.115,158.286,31.915,158.534,31.915z"/>
	<path fill="#010101" d="M160.502,31.915c0.256,0,0.455,0.2,0.455,0.456c0,0.248-0.199,0.456-0.455,0.456
		c-0.248,0-0.457-0.208-0.457-0.456C160.045,32.115,160.254,31.915,160.502,31.915z"/>
	<path fill="#010101" d="M162.471,31.915c0.256,0,0.455,0.2,0.455,0.456c0,0.248-0.199,0.456-0.455,0.456
		c-0.248,0-0.457-0.208-0.457-0.456C162.014,32.115,162.223,31.915,162.471,31.915z"/>
	<path fill="#010101" d="M164.438,31.915c0.256,0,0.457,0.2,0.457,0.456c0,0.248-0.201,0.456-0.457,0.456
		c-0.248,0-0.455-0.208-0.455-0.456C163.983,32.115,164.19,31.915,164.438,31.915z"/>
	<path fill="#010101" d="M166.407,31.915c0.256,0,0.455,0.2,0.455,0.456c0,0.248-0.199,0.456-0.455,0.456
		c-0.248,0-0.457-0.208-0.457-0.456C165.95,32.115,166.159,31.915,166.407,31.915z"/>
	<path fill="#010101" d="M168.374,31.915c0.256,0,0.457,0.2,0.457,0.456c0,0.248-0.201,0.456-0.457,0.456
		c-0.248,0-0.455-0.208-0.455-0.456C167.918,32.115,168.125,31.915,168.374,31.915z"/>
	<path fill="#010101" d="M170.342,31.915c0.256,0,0.455,0.2,0.455,0.456c0,0.248-0.199,0.456-0.455,0.456
		c-0.248,0-0.457-0.208-0.457-0.456C169.885,32.115,170.094,31.915,170.342,31.915z"/>
	<path fill="#010101" d="M172.311,31.915c0.256,0,0.455,0.2,0.455,0.456c0,0.248-0.199,0.456-0.455,0.456
		c-0.248,0-0.457-0.208-0.457-0.456C171.854,32.115,172.063,31.915,172.311,31.915z"/>
	<path fill="#010101" d="M174.278,31.915c0.256,0,0.457,0.2,0.457,0.456c0,0.248-0.201,0.456-0.457,0.456
		c-0.248,0-0.455-0.208-0.455-0.456C173.823,32.115,174.03,31.915,174.278,31.915z"/>
	<path fill="#010101" d="M176.247,31.915c0.256,0,0.455,0.2,0.455,0.456c0,0.248-0.199,0.456-0.455,0.456
		c-0.248,0-0.457-0.208-0.457-0.456C175.79,32.115,175.999,31.915,176.247,31.915z"/>
	<path fill="#010101" d="M178.213,31.915c0.256,0,0.457,0.2,0.457,0.456c0,0.248-0.201,0.456-0.457,0.456
		c-0.248,0-0.455-0.208-0.455-0.456C177.758,32.115,177.965,31.915,178.213,31.915z"/>
	<path fill="#010101" d="M180.182,31.915c0.256,0,0.457,0.2,0.457,0.456c0,0.248-0.201,0.456-0.457,0.456
		c-0.248,0-0.455-0.208-0.455-0.456C179.727,32.115,179.934,31.915,180.182,31.915z"/>
	<path fill="#010101" d="M182.151,31.915c0.256,0,0.455,0.2,0.455,0.456c0,0.248-0.199,0.456-0.455,0.456
		c-0.248,0-0.457-0.208-0.457-0.456C181.694,32.115,181.903,31.915,182.151,31.915z"/>
	<path fill="#010101" d="M184.118,31.915c0.256,0,0.457,0.2,0.457,0.456c0,0.248-0.201,0.456-0.457,0.456
		c-0.248,0-0.455-0.208-0.455-0.456C183.663,32.115,183.87,31.915,184.118,31.915z"/>
	<path fill="#010101" d="M186.086,31.915c0.256,0,0.455,0.2,0.455,0.456c0,0.248-0.199,0.456-0.455,0.456
		c-0.248,0-0.457-0.208-0.457-0.456C185.629,32.115,185.838,31.915,186.086,31.915z"/>
	<path fill="#010101" d="M188.053,31.915c0.256,0,0.457,0.2,0.457,0.456c0,0.248-0.201,0.456-0.457,0.456
		c-0.248,0-0.455-0.208-0.455-0.456C187.598,32.115,187.805,31.915,188.053,31.915z"/>
	<path fill="#010101" d="M190.022,31.915c0.256,0,0.457,0.2,0.457,0.456c0,0.248-0.201,0.456-0.457,0.456
		c-0.248,0-0.455-0.208-0.455-0.456C189.567,32.115,189.774,31.915,190.022,31.915z"/>
	<path fill="#010101" d="M191.991,31.915c0.256,0,0.455,0.2,0.455,0.456c0,0.248-0.199,0.456-0.455,0.456
		c-0.248,0-0.457-0.208-0.457-0.456C191.534,32.115,191.743,31.915,191.991,31.915z"/>
	<path fill="#010101" d="M193.958,31.915c0.256,0,0.457,0.2,0.457,0.456c0,0.248-0.201,0.456-0.457,0.456
		c-0.248,0-0.455-0.208-0.455-0.456C193.502,32.115,193.709,31.915,193.958,31.915z"/>
</g>
<g>
	<path fill="#FFFFFF" d="M18.143,12.212c-0.096-0.208,0.032-0.416,0.272-0.416h0.64c0.144,0,0.24,0.096,0.272,0.176l3.985,8.963
		h0.064l3.985-8.963c0.032-0.08,0.145-0.176,0.272-0.176h0.641c0.239,0,0.367,0.208,0.271,0.416l-4.866,10.772
		c-0.048,0.096-0.144,0.176-0.271,0.176h-0.16c-0.112,0-0.225-0.08-0.272-0.176L18.143,12.212z"/>
	<path fill="#FFFFFF" d="M30.607,12.101c0-0.16,0.144-0.304,0.304-0.304h0.641c0.16,0,0.304,0.144,0.304,0.304v10.596
		c0,0.16-0.144,0.304-0.304,0.304h-0.641c-0.16,0-0.304-0.144-0.304-0.304V12.101z"/>
	<path fill="#FFFFFF" d="M35.439,12.101c0-0.16,0.128-0.304,0.304-0.304h6.307c0.176,0,0.305,0.144,0.305,0.304v0.464
		c0,0.16-0.129,0.304-0.305,0.304h-5.378v3.905h4.594c0.16,0,0.304,0.145,0.304,0.305v0.465c0,0.176-0.144,0.303-0.304,0.303h-4.594
		v4.082h5.378c0.176,0,0.305,0.145,0.305,0.305v0.464c0,0.16-0.129,0.304-0.305,0.304h-6.307c-0.176,0-0.304-0.144-0.304-0.304
		V12.101z"/>
	<path fill="#FFFFFF" d="M44.19,12.181c-0.063-0.224,0.064-0.384,0.288-0.384h0.673c0.128,0,0.256,0.112,0.288,0.224l2.225,8.292
		h0.064l2.673-8.5c0.032-0.096,0.128-0.176,0.272-0.176h0.288c0.128,0,0.24,0.08,0.271,0.176l2.722,8.5h0.063l2.177-8.292
		c0.032-0.112,0.16-0.224,0.288-0.224h0.673c0.224,0,0.352,0.16,0.288,0.384l-3.025,10.756c-0.032,0.128-0.16,0.224-0.288,0.224
		h-0.256c-0.112,0-0.225-0.08-0.272-0.176l-2.769-8.659h-0.08l-2.722,8.659c-0.048,0.096-0.16,0.176-0.271,0.176h-0.257
		c-0.128,0-0.256-0.096-0.288-0.224L44.19,12.181z"/>
	<path fill="#FFFFFF" d="M65.119,11.86c0.031-0.128,0.16-0.224,0.288-0.224h0.256c0.112,0,0.24,0.08,0.272,0.176l3.169,8.819
		c0.032,0,0.048,0,0.08,0l3.121-8.819c0.032-0.096,0.16-0.176,0.272-0.176h0.256c0.128,0,0.256,0.096,0.288,0.224l2.064,10.756
		C75.235,22.84,75.139,23,74.898,23h-0.64c-0.128,0-0.257-0.111-0.288-0.224l-1.425-8.243c-0.016,0-0.048,0-0.064,0l-2.944,8.451
		c-0.032,0.096-0.177,0.176-0.272,0.176h-0.288c-0.096,0-0.24-0.08-0.272-0.176l-2.977-8.451c-0.017,0-0.049,0-0.064,0l-1.393,8.243
		C64.255,22.889,64.11,23,63.982,23h-0.641c-0.24,0-0.336-0.16-0.288-0.384L65.119,11.86z"/>
	<path fill="#FFFFFF" d="M79.952,17.607l-3.857-5.346c-0.128-0.208,0-0.464,0.256-0.464h0.752c0.112,0,0.208,0.08,0.257,0.144
		l3.233,4.466l3.232-4.466c0.049-0.064,0.145-0.144,0.257-0.144h0.752c0.256,0,0.384,0.256,0.256,0.464l-3.905,5.33v5.106
		c0,0.16-0.145,0.304-0.304,0.304h-0.625c-0.176,0-0.304-0.144-0.304-0.304V17.607z"/>
	<path fill="#FFFFFF" d="M90.927,12.101c0-0.16,0.128-0.304,0.304-0.304h3.538c1.969,0,3.585,1.601,3.585,3.538
		c0,1.985-1.616,3.602-3.569,3.602h-2.641v3.761c0,0.16-0.145,0.304-0.305,0.304H91.23c-0.176,0-0.304-0.144-0.304-0.304V12.101z
		 M94.688,17.75c1.312,0,2.433-1.072,2.433-2.449c0-1.296-1.12-2.289-2.433-2.289h-2.545v4.737H94.688z"/>
	<path fill="#FFFFFF" d="M105.711,11.636c3.201,0,5.764,2.577,5.764,5.778s-2.562,5.746-5.764,5.746s-5.746-2.545-5.746-5.746
		S102.51,11.636,105.711,11.636z M105.711,22.041c2.545,0,4.643-2.081,4.643-4.626s-2.098-4.658-4.643-4.658
		s-4.625,2.113-4.625,4.658S103.167,22.041,105.711,22.041z"/>
	<path fill="#FFFFFF" d="M114.239,12.101c0-0.16,0.127-0.304,0.303-0.304h4.146c1.92,0,3.49,1.505,3.49,3.41
		c0,1.472-0.977,2.705-2.369,3.265L122,22.537c0.113,0.208,0,0.464-0.271,0.464h-0.816c-0.145,0-0.225-0.08-0.256-0.144
		l-2.129-4.241h-3.057v4.081c0,0.16-0.145,0.304-0.305,0.304h-0.625c-0.176,0-0.303-0.144-0.303-0.304V12.101z M118.608,17.559
		c1.232,0,2.305-1.025,2.305-2.337c0-1.216-1.072-2.257-2.305-2.257h-3.105v4.594H118.608z"/>
	<path fill="#FFFFFF" d="M126.719,12.869h-2.785c-0.178,0-0.305-0.144-0.305-0.304v-0.464c0-0.16,0.127-0.304,0.305-0.304h6.785
		c0.176,0,0.305,0.144,0.305,0.304v0.464c0,0.16-0.129,0.304-0.305,0.304h-2.785v9.828c0,0.16-0.143,0.304-0.303,0.304h-0.609
		c-0.16,0-0.303-0.144-0.303-0.304V12.869z"/>
	<path fill="#FFFFFF" d="M133.102,12.101c0-0.16,0.129-0.304,0.305-0.304h6.307c0.176,0,0.305,0.144,0.305,0.304v0.464
		c0,0.16-0.129,0.304-0.305,0.304h-5.379v4.386h4.594c0.16,0,0.305,0.145,0.305,0.305v0.464c0,0.16-0.145,0.304-0.305,0.304h-4.594
		v4.37c0,0.16-0.145,0.304-0.303,0.304h-0.625c-0.176,0-0.305-0.144-0.305-0.304V12.101z"/>
	<path fill="#FFFFFF" d="M147.456,11.636c3.201,0,5.764,2.577,5.764,5.778s-2.562,5.746-5.764,5.746s-5.746-2.545-5.746-5.746
		S144.254,11.636,147.456,11.636z M147.456,22.041c2.545,0,4.643-2.081,4.643-4.626s-2.098-4.658-4.643-4.658
		s-4.625,2.113-4.625,4.658S144.911,22.041,147.456,22.041z"/>
	<path fill="#FFFFFF" d="M155.983,12.101c0-0.16,0.127-0.304,0.303-0.304h0.625c0.16,0,0.305,0.144,0.305,0.304v9.828h4.609
		c0.176,0,0.305,0.145,0.305,0.305v0.464c0,0.16-0.129,0.304-0.305,0.304h-5.539c-0.176,0-0.303-0.144-0.303-0.304V12.101z"/>
	<path fill="#FFFFFF" d="M164.159,12.101c0-0.16,0.143-0.304,0.303-0.304h0.641c0.16,0,0.305,0.144,0.305,0.304v10.596
		c0,0.16-0.145,0.304-0.305,0.304h-0.641c-0.16,0-0.303-0.144-0.303-0.304V12.101z"/>
	<path fill="#FFFFFF" d="M173.92,11.636c3.201,0,5.762,2.577,5.762,5.778s-2.561,5.746-5.762,5.746s-5.746-2.545-5.746-5.746
		S170.719,11.636,173.92,11.636z M173.92,22.041c2.545,0,4.641-2.081,4.641-4.626s-2.096-4.658-4.641-4.658
		s-4.627,2.113-4.627,4.658S171.375,22.041,173.92,22.041z"/>
</g>
<polygon opacity="0.7" fill="#030303" stroke="#010101" stroke-miterlimit="10" points="5.601,14.845 6.009,16.231 7.155,15.35 
	6.67,16.711 8.114,16.672 6.923,17.489 8.114,18.305 6.67,18.265 7.155,19.627 6.009,18.747 5.601,20.131 5.192,18.747 
	4.047,19.627 4.531,18.265 3.087,18.305 4.279,17.489 3.087,16.672 4.531,16.711 4.047,15.35 5.192,16.231 "/>
</svg>
