<?xml version="1.0" encoding="utf-8"?>
<!-- Generator: Adobe Illustrator 16.0.0, SVG Export Plug-In . SVG Version: 6.00 Build 0)  -->
<!DOCTYPE svg PUBLIC "-//W3C//DTD SVG 1.1//EN" "http://www.w3.org/Graphics/SVG/1.1/DTD/svg11.dtd">
<svg version="1.1" id="Layer_1" xmlns="http://www.w3.org/2000/svg" xmlns:xlink="http://www.w3.org/1999/xlink" x="0px" y="0px"
	 width="383.446px" height="156px" viewBox="0 0 383.446 156" enable-background="new 0 0 383.446 156" xml:space="preserve">
<g id="Layer_2">
	<polygon points="-13.653,0 383.446,0 383.446,160.123 -13.653,159.306 	"/>
</g>
<g id="Layer_1_1_" display="none">
	<g display="inline">
		<path fill="#77C4BC" d="M30.394,12.106c0.66,1.469,1.081,2.42,1.265,2.86c0.183,0.44,0.348,1.174,0.495,2.2
			c-0.88-0.732-1.65-1.356-2.31-1.87c-0.66-0.512-1.32-0.971-1.98-1.375c-0.66-0.402-1.394-0.751-2.2-1.045
			c-0.808-0.292-1.76-0.55-2.86-0.771c-2.934-0.365-5.703-0.256-8.305,0.33c-2.604,0.588-4.804,1.522-6.6,2.806
			C6.101,16.524,4.836,18.1,4.104,19.97c-0.734,1.87-0.734,3.905,0,6.105c0.806,2.42,2.052,4.749,3.74,6.984
			c1.686,2.238,3.611,4.419,5.775,6.545c2.162,2.128,4.472,4.125,6.93,5.995c2.456,1.87,4.802,3.63,7.04,5.28
			c2.236,1.65,4.307,3.135,6.215,4.455c1.906,1.32,3.373,2.458,4.4,3.41c2.272-1.172,4.4-2.163,6.38-2.971
			c1.98-0.806,4.032-1.611,6.16-2.42h0.66c0.292,0.074,0.33,0.294,0.11,0.66c-0.66,0.587-1.449,1.21-2.365,1.87
			c-0.918,0.66-1.853,1.339-2.805,2.035c-0.954,0.698-1.889,1.375-2.805,2.035c-0.918,0.66-1.743,1.248-2.475,1.76
			c2.126,2.128,3.52,4.052,4.18,5.775c0.66,1.725,0.696,3.409,0.11,5.061c-0.588,1.649-1.798,3.338-3.63,5.06
			c-1.834,1.723-4.218,3.575-7.15,5.557c-1.908,1.318-3.96,2.455-6.16,3.409c-2.2,0.95-4.235,1.521-6.105,1.704
			s-3.374-0.164-4.51-1.045c-1.138-0.881-1.523-2.529-1.155-4.949c1.172-3.96,3.336-7.626,6.49-11
			c3.152-3.372,6.782-6.781,10.89-10.229c0-0.22-0.715-0.842-2.145-1.87c-1.43-1.025-3.264-2.346-5.5-3.96
			c-2.238-1.611-4.694-3.481-7.37-5.609c-2.678-2.126-5.244-4.362-7.7-6.71c-2.458-2.347-4.639-4.803-6.545-7.37
			c-1.908-2.566-3.19-5.097-3.85-7.59c-0.88-3.152-1.081-5.902-0.605-8.25c0.478-2.347,1.246-4.308,2.31-5.886
			c1.062-1.576,2.236-2.805,3.52-3.685c1.282-0.88,2.327-1.466,3.135-1.76c1.686-0.513,3.391-0.952,5.115-1.32
			c1.722-0.366,3.465-0.477,5.225-0.33c1.76,0.148,3.537,0.643,5.335,1.485C26.745,9.045,28.56,10.346,30.394,12.106z
			 M21.374,81.736c-0.148,0.514,0.036,0.936,0.55,1.266c0.512,0.33,1.356,0.457,2.53,0.385c1.172-0.072,2.657-0.422,4.455-1.045
			c1.796-0.623,3.941-1.668,6.435-3.135c1.833-1.246,3.245-2.603,4.235-4.07c0.99-1.465,1.576-2.914,1.76-4.344
			c0.182-1.432-0.055-2.75-0.715-3.961c-0.66-1.209-1.76-2.182-3.3-2.914c-0.734,0.367-1.962,1.229-3.685,2.584
			c-1.724,1.357-3.484,2.916-5.28,4.676c-1.798,1.76-3.393,3.594-4.785,5.5C22.18,78.584,21.446,80.27,21.374,81.736z"/>
		<path fill="#77C4BC" d="M57.454,0.116c0.072,0.22,0.146,1.154,0.22,2.805c0.072,1.649,0.127,3.759,0.165,6.325
			c0.036,2.567,0.055,5.481,0.055,8.745c0,3.264,0.017,6.618,0.055,10.064c0.036,3.448,0.055,6.857,0.055,10.23
			c0,3.374,0,6.473,0,9.295c0,2.824,0,5.208,0,7.149c0,1.944,0,3.245,0,3.905c0.806-3.592,1.961-6.562,3.465-8.91
			c1.502-2.346,2.877-3.592,4.125-3.74c1.466-0.292,2.585,0.02,3.355,0.936c0.77,0.918,1.392,2.164,1.87,3.74
			c0.476,1.578,0.953,3.337,1.43,5.279c0.476,1.944,1.117,3.795,1.925,5.556c0.806,1.76,1.906,3.318,3.3,4.674
			c1.392,1.357,3.3,2.184,5.72,2.476c-1.908,1.614-3.613,2.349-5.115,2.2c-1.504-0.146-2.843-0.807-4.015-1.979
			c-1.174-1.173-2.2-2.677-3.08-4.511c-0.88-1.832-1.614-3.63-2.2-5.39c-0.588-1.76-1.064-3.3-1.43-4.62
			c-0.368-1.32-0.624-2.09-0.77-2.31c-0.44-0.586-0.918-0.623-1.43-0.11c-0.514,0.514-1.045,1.32-1.595,2.42
			c-0.55,1.1-1.064,2.365-1.54,3.795c-0.478,1.43-0.899,2.788-1.265,4.07c-0.368,1.283-0.66,2.364-0.88,3.244
			c-0.22,0.881-0.33,1.284-0.33,1.211c-0.22,0.953-0.404,2.199-0.55,3.738c-0.148,1.54-0.239,3.063-0.275,4.565
			c-0.038,1.504-0.038,2.859,0,4.07c0.036,1.209,0.127,1.961,0.275,2.254c-0.514,0-1.248-0.164-2.2-0.494
			c-0.954-0.33-1.688-0.495-2.2-0.495c0-2.2,0-5.077,0-8.636c0-3.557,0-7.517,0-11.879c0-4.362-0.019-9.037-0.055-14.025
			c-0.038-4.986-0.11-10.027-0.22-15.125c-0.11-5.096-0.239-10.156-0.385-15.18c-0.148-5.022-0.368-9.771-0.66-14.245
			c0-0.146,0.44-0.421,1.32-0.825C55.474-0.01,56.426-0.104,57.454,0.116z"/>
		<path fill="#77C4BC" d="M84.622,46.316c1.393,0.074,2.933,0.275,4.62,0.605c1.686,0.33,3.336,0.77,4.95,1.32
			c1.612,0.55,3.097,1.174,4.455,1.869c1.356,0.698,2.475,1.485,3.355,2.365c0.88,0.809,1.392,2.035,1.54,3.686
			c0.146,1.649,0.036,3.465-0.33,5.444c-0.368,1.98-0.935,4.017-1.705,6.105s-1.633,3.979-2.585,5.664
			c-0.954,1.688-1.98,3.08-3.08,4.181c-1.1,1.101-2.128,1.649-3.08,1.649c-1.614,0-2.97-0.386-4.07-1.154
			c-1.1-0.771-1.98-1.705-2.64-2.805c-0.66-1.102-1.155-2.256-1.485-3.466c-0.33-1.211-0.531-2.256-0.605-3.136
			c-0.22-3.886-0.256-7.332-0.11-10.34c0.148-3.006,0.402-5.5,0.77-7.479c-0.22-0.366-0.44-0.696-0.66-0.99
			c-0.22-0.292-0.44-0.567-0.66-0.825c-0.22-0.256-0.476-0.495-0.77-0.715c0.294-0.146,0.588-0.366,0.88-0.66
			C84,47.196,84.402,46.756,84.622,46.316z M88.582,72.497c0.22,0.293,0.512,0.604,0.88,0.935c0.366,0.329,0.825,0.587,1.375,0.771
			c0.55,0.185,1.117,0.203,1.705,0.056c0.586-0.146,1.21-0.551,1.87-1.211c1.76-1.832,3.08-3.721,3.96-5.664
			c0.88-1.942,1.447-3.776,1.705-5.5c0.256-1.722,0.22-3.245-0.11-4.565c-0.33-1.319-0.863-2.271-1.595-2.859
			c-0.587-0.366-1.083-0.677-1.485-0.936c-0.404-0.256-0.918-0.495-1.54-0.715c-0.624-0.22-1.413-0.458-2.365-0.715
			c-0.954-0.256-2.2-0.604-3.74-1.045c-0.734,2.348-1.248,4.694-1.54,7.04c-0.294,2.348-0.423,4.493-0.385,6.435
			c0.036,1.944,0.182,3.63,0.44,5.061C88.013,71.011,88.289,71.984,88.582,72.497z"/>
		<path fill="#77C4BC" d="M112.672,45.767c0,2.054-0.019,4.107-0.055,6.16c-0.038,2.054-0.074,4.034-0.11,5.94
			c-0.038,1.907-0.074,3.703-0.11,5.391c-0.038,1.688-0.093,3.189-0.165,4.51c0-0.293,0.165-1.008,0.495-2.145
			c0.33-1.138,0.787-2.438,1.375-3.906c0.586-1.466,1.227-3.025,1.925-4.675c0.696-1.65,1.447-3.116,2.255-4.4
			c0.806-1.282,1.631-2.292,2.475-3.024c0.842-0.732,1.631-0.952,2.365-0.66c1.612,0.733,2.75,1.798,3.41,3.189
			c0.66,1.395,1.136,2.989,1.43,4.785c0.292,1.797,0.586,3.795,0.88,5.995c0.292,2.199,0.952,4.51,1.98,6.93
			c0.44,1.101,1.081,1.908,1.925,2.42c0.842,0.515,1.65,0.881,2.42,1.101c0.77,0.221,1.392,0.35,1.87,0.385
			c0.476,0.039,0.641,0.166,0.495,0.386c-1.833,1.395-3.41,1.87-4.73,1.431c-1.32-0.44-2.438-1.411-3.355-2.915
			c-0.917-1.502-1.669-3.301-2.255-5.391c-0.588-2.09-1.119-4.105-1.595-6.05c-0.478-1.941-0.899-3.592-1.265-4.95
			c-0.368-1.355-0.77-2.035-1.21-2.035c-0.66,0.074-1.375,0.698-2.145,1.87c-0.77,1.175-1.559,2.641-2.365,4.4
			c-0.808,1.76-1.578,3.685-2.31,5.775c-0.734,2.091-1.413,4.053-2.035,5.886c-0.624,1.834-1.119,3.409-1.485,4.729
			c-0.368,1.319-0.587,2.128-0.66,2.419c-1.1,0-1.779,0.037-2.035,0.111c-0.258,0.071-0.679-0.294-1.265-1.102
			c0.366-6.452,0.495-12.559,0.385-18.315c-0.11-5.756-0.275-10.761-0.495-15.015c0-0.66,0.165-0.99,0.495-0.99
			s0.696,0.147,1.1,0.44c0.402,0.294,0.825,0.588,1.265,0.88C112.012,45.62,112.378,45.767,112.672,45.767z"/>
		<path fill="#77C4BC" d="M161.622,46.977c-0.074,0.44-0.239,1.357-0.495,2.75c-0.258,1.395-0.533,3.025-0.825,4.896
			c-0.294,1.87-0.55,3.833-0.77,5.885c-0.22,2.054-0.349,3.999-0.385,5.831c-0.038,1.834,0.072,3.393,0.33,4.674
			c0.256,1.285,0.677,2.073,1.265,2.365c1.687,0.809,3.41,0.533,5.17-0.824c1.76-1.355,3.812-3.428,6.16-6.215
			c0.22,0,0.237,0.293,0.055,0.879c-0.184,0.588-0.478,1.229-0.88,1.926c-0.404,0.697-0.808,1.395-1.21,2.09
			c-0.404,0.697-0.715,1.154-0.935,1.375c-0.588,0.734-1.43,1.56-2.53,2.476c-1.1,0.918-2.274,1.649-3.52,2.2
			c-1.248,0.55-2.439,0.789-3.575,0.716c-1.138-0.072-2.073-0.732-2.805-1.98c-0.368-0.881-0.588-1.961-0.66-3.245
			c-0.074-1.281-0.074-2.585,0-3.904c0.072-1.32,0.182-2.529,0.33-3.63c0.146-1.102,0.256-1.906,0.33-2.421
			c-1.54,2.86-3.3,5.573-5.28,8.141c-1.98,2.568-3.924,4.584-5.83,6.051c-1.908,1.467-3.668,2.254-5.28,2.365
			c-1.614,0.108-2.86-0.826-3.74-2.807c-0.512-1.905-0.512-4.052,0-6.435c0.514-2.383,1.284-4.527,2.31-6.436
			c1.54-2.641,3.152-5.061,4.84-7.261c1.686-2.199,3.482-4.069,5.39-5.609c1.906-1.54,3.905-2.657,5.995-3.355
			C157.167,46.775,159.348,46.61,161.622,46.977z M140.941,74.917c0.732,0.146,1.906-0.402,3.52-1.65
			c1.612-1.246,3.3-2.986,5.06-5.225c1.76-2.236,3.355-4.841,4.785-7.812c1.43-2.97,2.365-6.104,2.805-9.404
			c-0.294,0-0.715,0-1.265,0c-0.55,0-1.192,0.22-1.925,0.659c-2.788,1.834-5.17,3.979-7.15,6.436c-1.98,2.458-3.52,4.839-4.62,7.149
			c-1.1,2.312-1.76,4.384-1.98,6.216C139.951,73.12,140.208,74.33,140.941,74.917z"/>
		<path fill="#77C4BC" d="M240.488,28.716c-1.1,1.248-2.879,2.475-5.335,3.685c-2.457,1.21-5.17,2.329-8.14,3.355
			c-2.972,1.028-5.938,1.925-8.91,2.695s-5.481,1.375-7.534,1.814c0.73,1.98,1.611,3.521,2.641,4.62
			c1.025,1.1,2.347,2.458,3.961,4.07c2.42,1.908,4.51,3.539,6.27,4.895c1.76,1.357,3.428,2.585,5.005,3.686
			c1.576,1.1,3.19,2.145,4.841,3.135c1.649,0.99,3.574,2.109,5.774,3.354c2.933,1.175,5.206,2.019,6.819,2.53
			c1.613,0.514,2.858,0.862,3.74,1.045c0.881,0.185,1.502,0.274,1.868,0.274s0.771,0.109,1.212,0.33
			c0.146,0.439-0.186,0.753-0.99,0.936c-0.81,0.185-1.76,0.275-2.859,0.275s-2.219-0.057-3.355-0.166
			c-1.138-0.109-1.961-0.236-2.475-0.385c-1.1-0.292-2.385-0.695-3.85-1.21c-1.469-0.514-3.19-1.229-5.17-2.146
			c-1.98-0.916-4.199-2.125-6.655-3.629c-2.458-1.502-5.188-3.427-8.195-5.775c-1.247-0.952-2.384-1.776-3.409-2.475
			c-1.027-0.696-1.908-1.301-2.641-1.815c-0.809-0.586-1.578-1.1-2.311-1.54c0.146,0.881,0.348,2.146,0.604,3.795
			c0.256,1.65,0.529,3.504,0.824,5.556c0.291,2.054,0.605,4.18,0.936,6.38c0.33,2.199,0.643,4.289,0.938,6.27
			c0.291,1.98,0.586,3.74,0.88,5.28c0.292,1.54,0.55,2.64,0.771,3.3c-1.101,0.438-2.164,0.513-3.188,0.221
			c-1.028-0.294-1.8-0.403-2.312-0.329c-0.295-4.842-0.789-9.938-1.486-15.291c-0.695-5.353-1.264-11.256-1.702-17.709
			c-0.074-0.221-0.095-0.275-0.058-0.165c0.037,0.109,0.072,0.203,0.11,0.274c0.036,0.074,0.036,0.074,0,0
			c-0.038-0.071-0.129-0.365-0.274-0.88c-0.809-1.1-1.449-1.925-1.926-2.475c-0.479-0.55-0.935-1.045-1.375-1.485
			c-0.439-0.439-0.918-0.935-1.43-1.484c-0.514-0.551-1.248-1.411-2.2-2.586c0.22-0.292,0.788-0.55,1.705-0.77
			c0.916-0.22,1.925-0.512,3.024-0.88c-0.367-2.492-0.659-4.821-0.879-6.985c-0.223-2.162-0.44-4.271-0.66-6.325
			c-0.221-2.052-0.44-4.087-0.66-6.104c-0.221-2.016-0.479-4.161-0.77-6.436c-0.66,0-2.365-0.055-5.115-0.164
			c-2.75-0.11-5.85-0.201-9.295-0.275c-0.586-0.366-1.045-0.677-1.375-0.936c-0.33-0.256-0.422-0.971-0.275-2.145
			c1.248-0.146,2.843-0.201,4.785-0.165c1.941,0.038,3.922,0.093,5.939,0.165c2.016,0.074,3.961,0.184,5.828,0.33
			c1.87,0.147,3.393,0.258,4.564,0.33c9.094,1.028,16.262,2.403,21.506,4.125c5.24,1.724,9.037,3.539,11.385,5.445
			c2.348,1.907,3.467,3.812,3.354,5.72C242.854,25.784,242.028,27.396,240.488,28.716z M208.918,36.856
			c2.42-0.439,5.297-1.154,8.636-2.145c3.336-0.99,6.524-2.052,9.569-3.19c3.041-1.136,5.627-2.31,7.754-3.52
			s3.152-2.327,3.08-3.355v-0.989c-0.293-1.101-1.467-2.236-3.521-3.41c-2.054-1.172-4.603-2.272-7.646-3.301
			c-3.045-1.025-6.345-1.979-9.899-2.859c-3.558-0.88-6.983-1.54-10.285-1.98c0.293,3.229,0.586,6.895,0.881,11
			C207.78,27.214,208.258,31.796,208.918,36.856z"/>
		<path fill="#77C4BC" d="M263.479,48.187c0.221-0.071,0.842-0.274,1.869-0.604c1.025-0.33,1.869-0.385,2.529-0.165
			c2.125-0.072,3.758,0.478,4.896,1.649c1.137,1.175,1.229,3.448,0.273,6.82c-1.395,3.74-3.246,6.858-5.555,9.35
			c-2.311,2.494-5.043,4.879-8.195,7.149c0.731,1.908,1.832,2.971,3.301,3.19c1.467,0.22,3.007-0.018,4.619-0.716
			c1.611-0.695,3.189-1.631,4.729-2.805c1.54-1.173,2.786-2.2,3.74-3.08c1.54-1.319,2.767-2.438,3.685-3.354
			c0.916-0.917,1.889-2.035,2.916-3.355c0.219-0.146,0.348-0.127,0.385,0.056c0.035,0.184,0.019,0.459-0.055,0.824
			c-0.074,0.368-0.185,0.88-0.33,1.54c-0.221,0.515-0.439,0.974-0.66,1.375c-0.221,0.404-0.531,0.845-0.936,1.32
			c-0.404,0.478-0.936,1.045-1.596,1.705c-0.659,0.66-1.469,1.539-2.42,2.64c-1.1,1.028-2.164,2.034-3.189,3.024
			c-1.027,0.99-2.109,1.854-3.244,2.586c-1.139,0.732-2.385,1.247-3.74,1.539c-1.356,0.295-2.916,0.295-4.676,0
			c-1.468-0.512-2.64-1.062-3.52-1.649c-0.881-0.587-1.561-1.19-2.035-1.814c-0.479-0.622-0.824-1.191-1.045-1.705
			c-0.221-0.513-0.368-0.951-0.439-1.32c-0.369-1.465-0.515-3.445-0.439-5.938c0.07-2.492,0.807-5.721,2.199-9.681
			c0.951-2.052,1.979-3.795,3.08-5.225C260.729,50.111,262.01,48.994,263.479,48.187z M258.638,67.656
			c0.95-0.514,2.069-1.229,3.354-2.146c1.281-0.916,2.491-1.979,3.629-3.189c1.137-1.21,2.127-2.547,2.971-4.015
			c0.844-1.466,1.303-3.006,1.375-4.62c0.222-1.1,0.184-1.87-0.108-2.31c-0.147-0.22-0.294-0.33-0.438-0.33
			c-1.248-0.586-2.494-0.402-3.74,0.55c-1.247,0.954-2.385,2.311-3.409,4.07c-1.028,1.76-1.89,3.723-2.585,5.885
			C258.985,63.716,258.638,65.751,258.638,67.656z"/>
		<path fill="#77C4BC" d="M292.627,48.187c0.221-0.071,0.843-0.274,1.869-0.604c1.025-0.33,1.869-0.385,2.529-0.165
			c2.126-0.072,3.758,0.478,4.896,1.649c1.136,1.175,1.227,3.448,0.272,6.82c-1.396,3.74-3.243,6.858-5.555,9.35
			c-2.312,2.494-5.043,4.879-8.195,7.149c0.731,1.908,1.832,2.971,3.302,3.19c1.467,0.22,3.006-0.018,4.618-0.716
			c1.612-0.695,3.19-1.631,4.729-2.805c1.539-1.173,2.785-2.2,3.74-3.08c1.539-1.319,2.766-2.438,3.684-3.354
			c0.916-0.917,1.891-2.035,2.916-3.355c0.223-0.146,0.35-0.127,0.387,0.056c0.037,0.184,0.018,0.459-0.057,0.824
			c-0.072,0.368-0.184,0.88-0.33,1.54c-0.221,0.515-0.438,0.974-0.658,1.375c-0.223,0.404-0.531,0.845-0.938,1.32
			c-0.404,0.478-0.936,1.045-1.596,1.705c-0.658,0.66-1.467,1.539-2.42,2.64c-1.1,1.028-2.162,2.034-3.189,3.024
			c-1.026,0.99-2.107,1.854-3.243,2.586c-1.14,0.732-2.386,1.247-3.74,1.539c-1.356,0.295-2.915,0.295-4.675,0
			c-1.469-0.512-2.641-1.062-3.521-1.649s-1.56-1.19-2.035-1.814c-0.479-0.622-0.824-1.191-1.045-1.705
			c-0.221-0.513-0.367-0.951-0.438-1.32c-0.368-1.465-0.515-3.445-0.438-5.938c0.07-2.492,0.807-5.721,2.198-9.681
			c0.952-2.052,1.979-3.795,3.08-5.225C289.877,50.111,291.161,48.994,292.627,48.187z M287.788,67.656
			c0.951-0.514,2.07-1.229,3.354-2.146c1.28-0.916,2.491-1.979,3.63-3.189c1.137-1.21,2.126-2.547,2.971-4.015
			c0.844-1.466,1.303-3.006,1.375-4.62c0.221-1.1,0.184-1.87-0.109-2.31c-0.147-0.22-0.293-0.33-0.439-0.33
			c-1.248-0.586-2.494-0.402-3.74,0.55c-1.246,0.954-2.384,2.311-3.408,4.07c-1.027,1.76-1.891,3.723-2.586,5.885
			C288.133,63.716,287.788,65.751,287.788,67.656z"/>
		<path fill="#77C4BC" d="M348.178,21.457c-0.221,1.319-0.479,2.714-0.77,4.18c-0.293,1.468-0.605,2.86-0.938,4.18
			c-0.33,1.32-0.604,2.458-0.822,3.41c-0.223,0.954-0.367,1.54-0.439,1.76c-0.439,1.248-1.027,2.86-1.76,4.841
			c-0.734,1.979-1.598,4.053-2.586,6.215c-0.988,2.164-2.107,4.328-3.355,6.49c-1.248,2.163-2.531,4.015-3.852,5.555
			c0,1.1,0.129,2.953,0.387,5.555c0.256,2.604,0.566,5.408,0.934,8.415c0.367,3.008,0.719,5.958,1.049,8.854
			c0.326,2.896,0.527,5.15,0.604,6.766c-0.367,0.365-0.697,0.292-0.99-0.221c-0.293-0.516-0.732-1.395-1.318-2.641
			c-0.439-1.906-0.789-3.668-1.045-5.279c-0.26-1.611-0.496-3.244-0.717-4.896c-0.219-1.65-0.459-3.391-0.715-5.225
			c-0.258-1.833-0.643-3.923-1.154-6.271c-1.395,1.761-3.062,3.759-5.006,5.995c-1.943,2.238-3.959,4.218-6.049,5.939
			c-2.09,1.725-4.145,2.934-6.16,3.631c-2.018,0.695-3.76,0.386-5.225-0.937c-0.881-1.172-1.266-2.547-1.156-4.125
			c0.111-1.575,0.551-3.188,1.32-4.84c0.77-1.649,1.76-3.281,2.971-4.895c1.209-1.614,2.438-3.117,3.686-4.512
			c1.246-1.392,2.42-2.602,3.52-3.63c1.104-1.025,1.906-1.76,2.42-2.199c1.027-0.66,1.891-1.191,2.586-1.596
			c0.695-0.401,1.32-0.731,1.869-0.99c0.551-0.256,1.117-0.439,1.705-0.55c0.586-0.109,1.32-0.127,2.199-0.055
			c-0.146-1.686-0.238-3.702-0.273-6.05c-0.039-2.347-0.039-4.711,0-7.096c0.035-2.382,0.109-4.601,0.223-6.654
			c0.107-2.052,0.271-3.63,0.492-4.73c0.146-1.611,0.494-3.3,1.047-5.06c0.551-1.76,1.244-3.465,2.09-5.115
			c0.844-1.65,1.775-3.116,2.807-4.4c1.025-1.281,2.145-2.199,3.354-2.75c1.211-0.55,2.455-0.677,3.74-0.385
			c1.281,0.294,2.547,1.21,3.795,2.75c1.025,1.248,1.539,2.806,1.539,4.675C348.178,17.438,348.178,19.404,348.178,21.457z
			 M317.708,61.057c-1.98,2.054-3.43,3.942-4.346,5.665c-0.916,1.724-1.668,3.318-2.254,4.785c0,0.22,0,0.568,0,1.045
			c0,0.479,0.055,0.935,0.164,1.375c0.109,0.439,0.33,0.824,0.66,1.154s0.861,0.424,1.596,0.274c0.73-0.292,1.338-0.586,1.814-0.88
			c0.477-0.292,0.916-0.604,1.32-0.935c0.4-0.33,0.842-0.678,1.318-1.045c0.475-0.367,1.082-0.844,1.812-1.432
			c1.027-1.101,2.291-2.347,3.795-3.739c1.502-1.393,2.822-2.86,3.961-4.399c1.139-1.541,1.889-3.116,2.254-4.73
			c0.367-1.611-0.107-3.189-1.43-4.729c-0.514,0-1.045,0.074-1.596,0.22c-0.549,0.147-1.229,0.495-2.033,1.045
			c-0.809,0.551-1.779,1.32-2.916,2.311C320.698,58.031,319.323,59.37,317.708,61.057z M333.659,50.826
			c1.318-1.467,2.422-3.025,3.301-4.676c0.881-1.649,1.871-3.61,2.971-5.885c0.951-1.979,1.814-4.51,2.584-7.59
			c0.771-3.08,1.303-6.105,1.596-9.075c0.293-2.97,0.293-5.555,0-7.755c-0.293-2.2-1.027-3.372-2.199-3.52
			c-1.027-0.146-1.98,0.238-2.859,1.154c-0.881,0.918-1.688,2.055-2.42,3.41c-0.732,1.357-1.357,2.805-1.871,4.345
			s-0.879,2.898-1.1,4.07c-0.295,1.468-0.494,2.788-0.605,3.96c-0.107,1.174-0.184,2.403-0.219,3.686
			c-0.039,1.283-0.094,2.678-0.166,4.18c-0.074,1.504-0.221,3.354-0.438,5.555c0,1.101,0.055,2.2,0.164,3.3
			c0.109,1.101,0.258,2.035,0.439,2.806c0.182,0.77,0.346,1.357,0.494,1.76C333.473,50.955,333.584,51.046,333.659,50.826z"/>
	</g>
	<g display="inline">
		<g>
			<path fill="#77C4BC" d="M0,102.859c0-0.318,0.288-0.607,0.608-0.607h1.216c0.352,0,0.608,0.289,0.608,0.607v13.344
				c0,3.646,2.271,6.496,6.016,6.496c3.775,0,6.08-2.784,6.08-6.434v-13.406c0-0.318,0.256-0.607,0.608-0.607h1.216
				c0.32,0,0.608,0.289,0.608,0.607v13.535c0,4.863-3.456,8.574-8.511,8.574c-5.024,0-8.448-3.711-8.448-8.574L0,102.859L0,102.859z
				"/>
			<path fill="#77C4BC" d="M28.256,113.163l-6.24-10.017c-0.256-0.416,0-0.896,0.544-0.896h1.728c0.224,0,0.448,0.129,0.544,0.289
				l4.928,8.479h0.032l4.991-8.479c0.096-0.16,0.288-0.289,0.544-0.289h1.728c0.544,0,0.8,0.479,0.544,0.896l-6.239,10.017
				l6.463,10.591c0.256,0.448,0,0.896-0.544,0.896h-1.472c-0.256,0-0.479-0.159-0.544-0.287l-5.471-9.057H29.76l-5.408,9.057
				c-0.096,0.16-0.288,0.287-0.544,0.287h-1.472c-0.576,0-0.832-0.479-0.576-0.896L28.256,113.163z"/>
			<path fill="#77C4BC" d="M50.783,102.859c0-0.318,0.256-0.607,0.608-0.607h8.288c3.84,0,6.976,3.008,6.976,6.814
				c0,2.943-1.952,5.408-4.736,6.527l4.384,8.127c0.224,0.416,0,0.928-0.544,0.928h-1.632c-0.288,0-0.448-0.158-0.512-0.287
				l-4.255-8.479h-6.112v8.16c0,0.318-0.288,0.605-0.608,0.605h-1.248c-0.352,0-0.608-0.287-0.608-0.605L50.783,102.859
				L50.783,102.859z M59.519,113.771c2.464,0,4.608-2.049,4.608-4.672c0-2.433-2.144-4.513-4.608-4.513h-6.208v9.185H59.519z"/>
			<path fill="#77C4BC" d="M75.967,111.531c3.36,0,5.792,2.494,5.792,5.854c0,0.225-0.032,0.641-0.064,0.865
				c-0.032,0.318-0.288,0.543-0.576,0.543h-9.215c0.128,2.145,2.016,4.16,4.288,4.16c1.344,0,2.432-0.514,3.168-0.96
				c0.448-0.257,0.64-0.416,0.896-0.063c0.192,0.256,0.352,0.479,0.544,0.735c0.224,0.288,0.352,0.479-0.128,0.832
				c-0.768,0.606-2.496,1.472-4.704,1.472c-3.872,0-6.271-3.039-6.271-6.719C69.695,114.635,72.095,111.531,75.967,111.531z
				 M79.551,117.003c-0.096-1.856-1.632-3.521-3.584-3.521c-2.144,0-3.808,1.535-4.032,3.521H79.551z"/>
			<path fill="#77C4BC" d="M85.119,122.857c0.128-0.19,0.352-0.641,0.448-0.801c0.16-0.256,0.512-0.318,0.864-0.096
				c0,0,1.376,1.12,3.008,1.12c1.312,0,2.08-0.672,2.08-1.536c0-1.119-0.96-1.632-2.816-2.561c-1.696-0.832-3.647-1.951-3.647-4.129
				c0-1.344,1.088-3.328,4.063-3.328c1.664,0,2.944,0.576,3.552,0.992c0.288,0.192,0.384,0.643,0.192,0.992l-0.256,0.512
				c-0.192,0.354-0.64,0.449-0.928,0.289c0,0-1.376-0.769-2.56-0.769c-1.44,0-1.824,0.735-1.824,1.28
				c0,1.055,1.056,1.533,2.368,2.176c2.208,1.057,4.192,2.047,4.192,4.352c0,1.855-1.792,3.615-4.416,3.615
				c-2.144,0-3.456-0.896-4.16-1.439C85.119,123.4,85.023,123.082,85.119,122.857z"/>
			<path fill="#77C4BC" d="M103.262,111.531c3.36,0,5.792,2.494,5.792,5.854c0,0.225-0.032,0.641-0.064,0.865
				c-0.032,0.318-0.288,0.543-0.576,0.543h-9.215c0.128,2.145,2.016,4.16,4.288,4.16c1.344,0,2.432-0.514,3.168-0.96
				c0.448-0.257,0.64-0.416,0.896-0.063c0.192,0.256,0.352,0.479,0.544,0.735c0.224,0.288,0.352,0.479-0.128,0.832
				c-0.768,0.606-2.496,1.472-4.704,1.472c-3.872,0-6.271-3.039-6.271-6.719C96.99,114.635,99.39,111.531,103.262,111.531z
				 M106.846,117.003c-0.096-1.856-1.632-3.521-3.584-3.521c-2.144,0-3.808,1.535-4.032,3.521H106.846z"/>
			<path fill="#77C4BC" d="M117.374,116.521c1.376,0,2.72,0.416,2.72,0.416c0.032-2.367-0.256-3.455-2.08-3.455
				c-1.76,0-3.264,0.479-3.84,0.703c-0.32,0.129-0.512-0.029-0.608-0.318l-0.256-0.801c-0.128-0.385,0.064-0.574,0.352-0.705
				c0.192-0.096,2.048-0.83,4.448-0.83c3.264,0,4.063,1.662,4.063,5.406v7.104c0,0.319-0.288,0.606-0.608,0.606h-0.608
				c-0.352,0-0.448-0.19-0.544-0.479l-0.256-0.864c-0.672,0.672-1.984,1.664-3.968,1.664c-2.24,0-3.936-1.632-3.936-4.191
				C112.254,118.348,114.078,116.521,117.374,116.521z M116.542,123.05c1.6,0,2.976-0.991,3.52-1.791v-2.528
				c-0.384-0.224-1.28-0.513-2.688-0.513c-1.792,0-3.072,0.896-3.072,2.562C114.302,122.059,115.166,123.05,116.542,123.05z"/>
			<path fill="#77C4BC" d="M127.262,112.459c0-0.32,0.288-0.607,0.608-0.607h0.608c0.256,0,0.48,0.159,0.544,0.447l0.256,0.928
				c0,0,1.184-1.694,3.84-1.694c0.96,0,2.56,0.159,2.24,1.057l-0.384,1.088c-0.16,0.416-0.448,0.416-0.768,0.288
				c-0.288-0.128-0.768-0.257-1.248-0.257c-2.432,0-3.488,1.793-3.488,1.793v8.543c0,0.319-0.288,0.606-0.608,0.606h-0.992
				c-0.32,0-0.608-0.287-0.608-0.606V112.459L127.262,112.459z"/>
			<path fill="#77C4BC" d="M144.093,111.531c1.92,0,3.424,0.769,4.576,2.238c0.224,0.289,0.16,0.672-0.128,0.896l-0.608,0.512
				c-0.48,0.447-0.64,0.129-0.928-0.128c-0.64-0.735-1.696-1.345-2.944-1.345c-2.4,0-4.256,1.982-4.256,4.545
				c0,2.559,1.824,4.605,4.224,4.605c1.92,0,2.656-0.961,3.392-1.664c0.384-0.385,0.608-0.318,0.96-0.062l0.352,0.256
				c0.32,0.225,0.416,0.576,0.224,0.896c-0.96,1.533-2.72,2.688-4.896,2.688c-3.552,0-6.56-2.848-6.56-6.688
				C137.502,114.507,140.605,111.531,144.093,111.531z"/>
			<path fill="#77C4BC" d="M153.246,102.859c0-0.318,0.288-0.607,0.608-0.607h0.992c0.32,0,0.608,0.289,0.608,0.607v10.367
				c0,0,1.696-1.695,4.288-1.695c3.168,0,4.959,2.017,4.959,5.76v6.752c0,0.318-0.288,0.605-0.608,0.605h-1.024
				c-0.32,0-0.608-0.287-0.608-0.605v-6.752c0-2.434-1.088-3.615-2.88-3.615c-2.432,0-4.127,1.792-4.127,1.792v8.575
				c0,0.318-0.288,0.605-0.608,0.605h-0.992c-0.32,0-0.608-0.287-0.608-0.605V102.859L153.246,102.859z"/>
			<path fill="#77C4BC" d="M175.069,111.531c3.36,0,5.792,2.494,5.792,5.854c0,0.225-0.031,0.641-0.064,0.865
				c-0.031,0.318-0.287,0.543-0.575,0.543h-9.215c0.128,2.145,2.016,4.16,4.289,4.16c1.344,0,2.432-0.514,3.168-0.96
				c0.447-0.257,0.64-0.416,0.896-0.063c0.192,0.256,0.353,0.479,0.544,0.735c0.225,0.288,0.352,0.479-0.128,0.832
				c-0.769,0.606-2.496,1.472-4.704,1.472c-3.872,0-6.271-3.039-6.271-6.719C168.797,114.635,171.197,111.531,175.069,111.531z
				 M178.653,117.003c-0.096-1.856-1.632-3.521-3.584-3.521c-2.144,0-3.808,1.535-4.031,3.521H178.653z"/>
			<path fill="#77C4BC" d="M184.989,112.459c0-0.32,0.288-0.607,0.608-0.607h0.607c0.256,0,0.48,0.159,0.545,0.447l0.256,0.928
				c0,0,1.184-1.694,3.84-1.694c0.96,0,2.56,0.159,2.239,1.057l-0.385,1.088c-0.16,0.416-0.447,0.416-0.768,0.288
				c-0.288-0.128-0.768-0.257-1.248-0.257c-2.432,0-3.488,1.793-3.488,1.793v8.543c0,0.319-0.287,0.606-0.607,0.606h-0.992
				c-0.32,0-0.608-0.287-0.608-0.606V112.459L184.989,112.459z"/>
			<path fill="#77C4BC" d="M208.86,112.684v-0.063l-0.77-0.832c-1.248-1.312-2.305-2.751-2.238-4.671
				c0-2.434,1.791-5.186,5.664-5.186c3.455,0,5.404,2.272,5.404,4.928c0,2.85-2.879,4.992-4.732,6.146l5.277,5.279
				c0.832-1.695,1.279-3.647,1.279-5.695c0-0.704,0.256-0.735,0.736-0.735h0.768c0.672,0,0.607,0.479,0.607,0.735
				c0,2.464-0.703,5.088-1.887,7.199l3.072,3.071c0.383,0.416,0.639,0.734-0.033,1.473l-0.383,0.354
				c-0.385,0.353-0.865,0.414-1.344-0.098l-2.723-2.814c-1.729,1.951-4.098,3.199-6.977,3.199c-4.031,0-6.176-2.753-6.176-5.888
				C204.415,115.626,207.131,113.706,208.86,112.684z M210.685,122.984c2.207,0,4.096-1.055,5.471-2.719l-5.92-6.207
				c-1.471,0.896-3.584,2.527-3.584,5.057C206.651,121.354,208.444,122.984,210.685,122.984z M214.685,106.923
				c0-1.534-1.187-3.104-3.36-3.104c-2.111,0-3.326,1.506-3.326,3.359c-0.063,1.377,0.83,2.465,2.047,3.648l0.703,0.701
				C212.188,110.667,214.685,109.229,214.685,106.923z"/>
			<path fill="#77C4BC" d="M234.749,102.859c0-0.318,0.256-0.607,0.576-0.607h7.168c6.176,0,11.229,5.023,11.229,11.168
				c0,6.207-5.057,11.229-11.229,11.229h-7.168c-0.32,0-0.576-0.287-0.576-0.605V102.859z M241.979,122.441
				c5.248,0,9.057-3.742,9.057-9.021c0-5.248-3.809-8.992-9.057-8.992h-4.801v18.016L241.979,122.441L241.979,122.441z"/>
			<path fill="#77C4BC" d="M263.292,111.531c3.358,0,5.791,2.494,5.791,5.854c0,0.225-0.031,0.641-0.063,0.865
				c-0.031,0.318-0.287,0.543-0.576,0.543h-9.215c0.129,2.145,2.017,4.16,4.289,4.16c1.344,0,2.433-0.514,3.166-0.96
				c0.448-0.257,0.642-0.416,0.896-0.063c0.19,0.256,0.353,0.479,0.545,0.735c0.224,0.288,0.353,0.479-0.129,0.832
				c-0.769,0.606-2.496,1.472-4.703,1.472c-3.871,0-6.271-3.039-6.271-6.719C257.021,114.635,259.42,111.531,263.292,111.531z
				 M266.875,117.003c-0.097-1.856-1.633-3.521-3.584-3.521c-2.146,0-3.81,1.535-4.031,3.521H266.875z"/>
			<path fill="#77C4BC" d="M272.442,122.857c0.129-0.19,0.354-0.641,0.449-0.801c0.158-0.256,0.512-0.318,0.861-0.096
				c0,0,1.375,1.12,3.01,1.12c1.312,0,2.078-0.672,2.078-1.536c0-1.119-0.961-1.632-2.814-2.561
				c-1.693-0.832-3.646-1.951-3.646-4.129c0-1.344,1.088-3.328,4.062-3.328c1.664,0,2.941,0.576,3.555,0.992
				c0.285,0.192,0.383,0.643,0.189,0.992l-0.256,0.512c-0.191,0.354-0.643,0.449-0.93,0.289c0,0-1.377-0.769-2.561-0.769
				c-1.439,0-1.824,0.735-1.824,1.28c0,1.055,1.057,1.533,2.369,2.176c2.207,1.057,4.191,2.047,4.191,4.352
				c0,1.855-1.793,3.615-4.416,3.615c-2.145,0-3.455-0.896-4.16-1.439C272.442,123.4,272.347,123.082,272.442,122.857z"/>
			<path fill="#77C4BC" d="M284.795,104.427c0-0.862,0.672-1.534,1.504-1.534c0.863,0,1.535,0.672,1.535,1.534
				c0,0.832-0.672,1.505-1.535,1.505C285.467,105.932,284.795,105.259,284.795,104.427z M285.245,112.459
				c0-0.32,0.285-0.607,0.605-0.607h0.99c0.32,0,0.607,0.287,0.607,0.607v11.583c0,0.319-0.287,0.606-0.607,0.606h-0.99
				c-0.32,0-0.605-0.287-0.605-0.606V112.459z"/>
			<path fill="#77C4BC" d="M293.5,120.361c0,0-1.023-1.312-1.023-3.197c0-2.979,2.078-5.633,5.406-5.633h5.408
				c0.352,0,0.605,0.256,0.605,0.607v0.543c0,0.227-0.127,0.512-0.354,0.545l-1.729,0.354c0,0,1.441,1.056,1.441,3.584
				c0,2.911-2.08,5.438-5.377,5.438c-2.047,0-3.039-0.801-3.039-0.801s-1.408,0.641-1.408,1.92c0,0.801,0.576,1.568,1.76,1.568
				h4.607c2.688,0,4.801,1.312,4.801,4.096c0,2.656-2.752,5.184-6.625,5.184c-4.287,0-6.143-2.305-6.143-4.416
				c0-1.92,1.535-2.781,1.854-2.976v-0.097c-0.832-0.225-2.336-1.057-2.336-3.039C291.354,121.609,293.5,120.361,293.5,120.361z
				 M297.946,132.49c2.111,0,4.287-1.186,4.287-3.039c0-0.416-0.189-2.08-2.434-2.08c-1.184,0-2.365,0-3.551,0
				c0,0-2.145,0.574-2.145,2.463C294.106,131.37,295.771,132.49,297.946,132.49z M301.116,117.1c0-2.111-1.279-3.584-3.199-3.584
				c-1.953,0-3.361,1.473-3.361,3.584c0,2.11,1.408,3.584,3.361,3.584C299.834,120.684,301.116,119.21,301.116,117.1z"/>
			<path fill="#77C4BC" d="M307.961,112.459c0-0.32,0.289-0.607,0.609-0.607h0.605c0.287,0,0.447,0.129,0.514,0.385l0.287,0.99
				c0,0,1.822-1.694,4.48-1.694c3.713,0,4.959,2.433,4.959,5.76v6.752c0,0.319-0.287,0.606-0.607,0.606h-1.023
				c-0.32,0-0.607-0.287-0.607-0.606v-6.752c0-2.433-1.088-3.615-2.881-3.615c-2.395,0-4.127,1.824-4.127,1.824v8.543
				c0,0.319-0.289,0.606-0.604,0.606h-0.992c-0.32,0-0.609-0.287-0.609-0.606V112.46L307.961,112.459L307.961,112.459z"/>
			<path fill="#77C4BC" d="M329.788,111.531c3.355,0,5.791,2.494,5.791,5.854c0,0.225-0.031,0.641-0.064,0.865
				c-0.031,0.318-0.287,0.543-0.576,0.543h-9.215c0.129,2.145,2.016,4.16,4.289,4.16c1.344,0,2.432-0.514,3.166-0.96
				c0.449-0.257,0.641-0.416,0.896-0.063c0.188,0.256,0.352,0.479,0.545,0.735c0.223,0.288,0.352,0.479-0.129,0.832
				c-0.771,0.606-2.496,1.472-4.703,1.472c-3.871,0-6.271-3.039-6.271-6.719C323.514,114.635,325.917,111.531,329.788,111.531z
				 M333.372,117.003c-0.096-1.856-1.633-3.521-3.584-3.521c-2.146,0-3.812,1.535-4.031,3.521H333.372z"/>
			<path fill="#77C4BC" d="M339.708,112.459c0-0.32,0.287-0.607,0.605-0.607h0.605c0.258,0,0.48,0.159,0.545,0.447l0.256,0.928
				c0,0,1.188-1.694,3.84-1.694c0.961,0,2.562,0.159,2.24,1.057l-0.385,1.088c-0.16,0.416-0.447,0.416-0.768,0.288
				c-0.287-0.128-0.768-0.257-1.248-0.257c-2.432,0-3.488,1.793-3.488,1.793v8.543c0,0.319-0.287,0.606-0.607,0.606h-0.99
				c-0.318,0-0.605-0.287-0.605-0.606V112.459z"/>
		</g>
	</g>
</g>
<g>
	<path fill="#77C4BC" d="M39.407,30.301c0.66,1.468,1.081,2.42,1.265,2.86c0.183,0.44,0.348,1.174,0.495,2.2
		c-0.88-0.732-1.65-1.356-2.31-1.87c-0.66-0.512-1.32-0.971-1.98-1.375c-0.66-0.402-1.394-0.751-2.2-1.045
		c-0.808-0.292-1.76-0.55-2.86-0.77c-2.934-0.366-5.703-0.256-8.305,0.33c-2.604,0.588-4.804,1.522-6.6,2.805
		c-1.798,1.284-3.063,2.86-3.795,4.73c-0.734,1.87-0.734,3.905,0,6.105c0.806,2.42,2.052,4.749,3.74,6.985
		c1.686,2.238,3.611,4.419,5.775,6.545c2.162,2.128,4.472,4.125,6.93,5.995c2.456,1.87,4.802,3.63,7.04,5.28
		c2.236,1.65,4.307,3.135,6.215,4.455c1.906,1.32,3.373,2.458,4.4,3.41c2.272-1.172,4.4-2.163,6.38-2.97
		c1.98-0.806,4.032-1.612,6.16-2.42h0.66c0.292,0.074,0.33,0.294,0.11,0.66c-0.66,0.587-1.449,1.21-2.365,1.87
		c-0.918,0.66-1.853,1.339-2.805,2.035c-0.954,0.698-1.889,1.375-2.805,2.035c-0.918,0.66-1.743,1.248-2.475,1.759
		c2.126,2.129,3.52,4.054,4.18,5.774c0.66,1.726,0.696,3.41,0.11,5.062c-0.588,1.649-1.798,3.338-3.63,5.061
		c-1.834,1.723-4.218,3.574-7.15,5.555c-1.908,1.32-3.96,2.457-6.16,3.41c-2.2,0.952-4.235,1.521-6.105,1.705
		c-1.87,0.182-3.374-0.166-4.51-1.045c-1.138-0.881-1.523-2.529-1.155-4.949c1.172-3.961,3.336-7.627,6.49-11
		c3.152-3.373,6.782-6.783,10.89-10.23c0-0.221-0.715-0.842-2.145-1.87c-1.43-1.026-3.264-2.346-5.5-3.96
		c-2.238-1.612-4.694-3.482-7.37-5.61c-2.678-2.126-5.244-4.362-7.7-6.71c-2.458-2.346-4.639-4.802-6.545-7.37
		c-1.908-2.566-3.19-5.096-3.85-7.59c-0.88-3.152-1.081-5.902-0.605-8.25c0.478-2.346,1.246-4.307,2.31-5.885
		c1.062-1.576,2.236-2.805,3.52-3.685c1.282-0.88,2.327-1.466,3.135-1.76c1.686-0.512,3.391-0.952,5.115-1.32
		c1.722-0.366,3.465-0.476,5.225-0.33c1.76,0.148,3.537,0.643,5.335,1.485C35.758,27.24,37.573,28.541,39.407,30.301z
		 M30.387,99.931c-0.148,0.513,0.036,0.935,0.55,1.265c0.512,0.33,1.356,0.457,2.53,0.385c1.172-0.072,2.657-0.422,4.455-1.045
		c1.796-0.623,3.941-1.668,6.435-3.135c1.833-1.246,3.245-2.603,4.235-4.07c0.99-1.465,1.576-2.914,1.76-4.344
		c0.182-1.431-0.055-2.75-0.715-3.961c-0.66-1.209-1.76-2.181-3.3-2.914c-0.734,0.366-1.962,1.229-3.685,2.584
		c-1.724,1.358-3.484,2.916-5.28,4.676c-1.798,1.76-3.393,3.594-4.785,5.5C31.193,96.779,30.459,98.462,30.387,99.931z"/>
	<path fill="#77C4BC" d="M66.467,18.311c0.072,0.22,0.146,1.155,0.22,2.805c0.072,1.65,0.127,3.759,0.165,6.325
		c0.036,2.568,0.055,5.482,0.055,8.745c0,3.264,0.017,6.619,0.055,10.065c0.036,3.448,0.055,6.857,0.055,10.229
		c0,3.374,0,6.473,0,9.295c0,2.824,0,5.208,0,7.15c0,1.944,0,3.245,0,3.905c0.806-3.592,1.961-6.562,3.465-8.91
		c1.502-2.346,2.877-3.592,4.125-3.74c1.466-0.292,2.585,0.019,3.355,0.935c0.77,0.918,1.392,2.164,1.87,3.74
		c0.476,1.578,0.953,3.337,1.43,5.28c0.476,1.944,1.117,3.795,1.925,5.556c0.806,1.76,1.906,3.317,3.3,4.674
		c1.392,1.358,3.3,2.184,5.72,2.477c-1.908,1.613-3.613,2.348-5.115,2.199c-1.504-0.146-2.843-0.807-4.015-1.98
		c-1.174-1.172-2.2-2.676-3.08-4.51c-0.88-1.832-1.614-3.629-2.2-5.39c-0.588-1.76-1.064-3.3-1.43-4.62
		c-0.368-1.32-0.624-2.09-0.77-2.31c-0.44-0.586-0.918-0.623-1.43-0.11c-0.514,0.514-1.045,1.32-1.595,2.42
		c-0.55,1.1-1.064,2.365-1.54,3.795c-0.478,1.43-0.899,2.787-1.265,4.07c-0.368,1.282-0.66,2.364-0.88,3.244
		c-0.22,0.881-0.33,1.284-0.33,1.211c-0.22,0.952-0.404,2.198-0.55,3.739c-0.148,1.539-0.239,3.062-0.275,4.563
		c-0.038,1.505-0.038,2.861,0,4.07c0.036,1.211,0.127,1.961,0.275,2.256c-0.514,0-1.248-0.166-2.2-0.496
		c-0.954-0.33-1.688-0.493-2.2-0.493c0-2.201,0-5.078,0-8.636c0-3.557,0-7.518,0-11.88c0-4.362-0.019-9.037-0.055-14.025
		c-0.038-4.986-0.11-10.027-0.22-15.125c-0.11-5.096-0.239-10.156-0.385-15.18c-0.148-5.022-0.368-9.771-0.66-14.245
		c0-0.146,0.44-0.421,1.32-0.825C64.487,18.184,65.439,18.091,66.467,18.311z"/>
	<path fill="#77C4BC" d="M93.636,64.511c1.393,0.074,2.933,0.275,4.62,0.605c1.686,0.33,3.336,0.77,4.95,1.32
		c1.612,0.55,3.097,1.174,4.455,1.87c1.356,0.698,2.475,1.485,3.355,2.365c0.88,0.808,1.392,2.035,1.54,3.685
		c0.146,1.65,0.036,3.465-0.33,5.445c-0.368,1.98-0.935,4.016-1.705,6.105s-1.633,3.979-2.585,5.664
		c-0.954,1.688-1.98,3.08-3.08,4.182c-1.1,1.1-2.128,1.648-3.08,1.648c-1.614,0-2.97-0.386-4.07-1.154
		c-1.1-0.77-1.98-1.705-2.64-2.805c-0.66-1.101-1.155-2.257-1.485-3.466c-0.33-1.211-0.531-2.256-0.605-3.135
		c-0.22-3.888-0.256-7.333-0.11-10.34c0.148-3.006,0.402-5.5,0.77-7.48c-0.22-0.366-0.44-0.696-0.66-0.99
		c-0.22-0.292-0.44-0.567-0.66-0.825c-0.22-0.256-0.476-0.495-0.77-0.715c0.294-0.146,0.588-0.366,0.88-0.66
		C93.014,65.391,93.416,64.951,93.636,64.511z M97.596,90.691c0.22,0.293,0.512,0.604,0.88,0.936
		c0.366,0.328,0.825,0.587,1.375,0.77c0.55,0.184,1.117,0.203,1.705,0.055c0.586-0.146,1.21-0.549,1.87-1.209
		c1.76-1.832,3.08-3.723,3.96-5.666c0.88-1.94,1.447-3.774,1.705-5.5c0.256-1.722,0.22-3.245-0.11-4.564s-0.863-2.272-1.595-2.86
		c-0.587-0.366-1.083-0.677-1.485-0.935c-0.404-0.256-0.918-0.495-1.54-0.715c-0.624-0.22-1.413-0.458-2.365-0.715
		c-0.954-0.256-2.2-0.605-3.74-1.045c-0.734,2.348-1.248,4.694-1.54,7.04c-0.294,2.348-0.423,4.492-0.385,6.436
		c0.036,1.942,0.182,3.629,0.44,5.06C97.027,89.205,97.302,90.179,97.596,90.691z"/>
	<path fill="#77C4BC" d="M121.686,63.961c0,2.054-0.019,4.107-0.055,6.16c-0.038,2.054-0.074,4.034-0.11,5.94
		c-0.038,1.908-0.074,3.704-0.11,5.391c-0.038,1.688-0.093,3.188-0.165,4.51c0-0.292,0.165-1.008,0.495-2.145
		c0.33-1.138,0.787-2.438,1.375-3.906c0.586-1.465,1.227-3.024,1.925-4.674c0.696-1.65,1.447-3.116,2.255-4.4
		c0.806-1.282,1.631-2.292,2.475-3.025c0.842-0.732,1.631-0.952,2.365-0.66c1.612,0.734,2.75,1.798,3.41,3.19
		c0.66,1.394,1.136,2.989,1.43,4.785c0.292,1.797,0.586,3.795,0.88,5.995c0.292,2.199,0.952,4.51,1.98,6.93
		c0.44,1.102,1.081,1.908,1.925,2.42c0.842,0.516,1.65,0.881,2.42,1.102c0.77,0.22,1.392,0.349,1.87,0.385
		c0.476,0.037,0.641,0.164,0.495,0.386c-1.833,1.394-3.41,1.869-4.73,1.431c-1.32-0.44-2.438-1.412-3.355-2.916
		c-0.917-1.503-1.669-3.3-2.255-5.39c-0.588-2.09-1.119-4.106-1.595-6.051c-0.478-1.942-0.899-3.592-1.265-4.95
		c-0.368-1.356-0.77-2.035-1.21-2.035c-0.66,0.074-1.375,0.698-2.145,1.87c-0.77,1.174-1.559,2.64-2.365,4.399
		c-0.808,1.761-1.578,3.687-2.31,5.775c-0.734,2.09-1.413,4.053-2.035,5.885c-0.624,1.834-1.119,3.41-1.485,4.73
		c-0.368,1.318-0.587,2.127-0.66,2.42c-1.1,0-1.779,0.035-2.035,0.109c-0.258,0.072-0.679-0.293-1.265-1.101
		c0.366-6.452,0.495-12.558,0.385-18.315c-0.11-5.756-0.275-10.761-0.495-15.015c0-0.66,0.165-0.99,0.495-0.99s0.696,0.148,1.1,0.44
		c0.402,0.294,0.825,0.588,1.265,0.88C121.026,63.813,121.392,63.961,121.686,63.961z"/>
	<path fill="#77C4BC" d="M170.635,65.171c-0.074,0.44-0.239,1.357-0.495,2.75c-0.258,1.394-0.533,3.025-0.825,4.895
		c-0.294,1.87-0.55,3.833-0.77,5.885c-0.22,2.055-0.349,3.998-0.385,5.83c-0.038,1.834,0.072,3.393,0.33,4.674
		c0.256,1.285,0.677,2.074,1.265,2.365c1.687,0.809,3.41,0.532,5.17-0.824c1.76-1.355,3.812-3.428,6.16-6.215
		c0.22,0,0.237,0.293,0.055,0.879c-0.184,0.588-0.478,1.229-0.88,1.926c-0.404,0.697-0.808,1.395-1.21,2.09
		c-0.404,0.697-0.715,1.154-0.935,1.375c-0.588,0.734-1.43,1.561-2.53,2.477c-1.1,0.916-2.274,1.648-3.52,2.199
		c-1.248,0.551-2.439,0.789-3.575,0.715c-1.138-0.072-2.073-0.731-2.805-1.979c-0.368-0.88-0.588-1.961-0.66-3.244
		c-0.074-1.283-0.074-2.586,0-3.906c0.072-1.319,0.182-2.528,0.33-3.629c0.146-1.101,0.256-1.905,0.33-2.42
		c-1.54,2.858-3.3,5.573-5.28,8.14c-1.98,2.567-3.924,4.584-5.83,6.051c-1.908,1.468-3.668,2.255-5.28,2.365
		c-1.614,0.108-2.86-0.826-3.74-2.806c-0.512-1.905-0.512-4.052,0-6.437c0.514-2.383,1.284-4.526,2.31-6.436
		c1.54-2.639,3.152-5.06,4.84-7.259c1.686-2.2,3.482-4.07,5.39-5.61c1.906-1.54,3.905-2.657,5.995-3.354
		C166.18,64.97,168.361,64.805,170.635,65.171z M149.955,93.111c0.732,0.147,1.906-0.402,3.52-1.65
		c1.612-1.246,3.3-2.986,5.06-5.225c1.76-2.236,3.355-4.841,4.785-7.811c1.43-2.97,2.365-6.105,2.805-9.405
		c-0.294,0-0.715,0-1.265,0c-0.55,0-1.192,0.22-1.925,0.66c-2.788,1.834-5.17,3.979-7.15,6.435c-1.98,2.458-3.52,4.839-4.62,7.149
		c-1.1,2.312-1.76,4.384-1.98,6.216C148.965,91.313,149.221,92.525,149.955,93.111z"/>
	<path fill="#77C4BC" d="M249.5,46.911c-1.1,1.248-2.879,2.475-5.334,3.685c-2.457,1.21-5.17,2.329-8.141,3.355
		c-2.97,1.028-5.939,1.925-8.91,2.695c-2.969,0.77-5.481,1.375-7.533,1.815c0.73,1.98,1.611,3.52,2.64,4.62
		c1.026,1.1,2.346,2.458,3.96,4.07c2.421,1.908,4.512,3.539,6.271,4.895c1.76,1.357,3.428,2.585,5.004,3.685
		c1.576,1.1,3.19,2.146,4.84,3.135c1.65,0.99,3.576,2.108,5.775,3.354c2.934,1.174,5.207,2.019,6.819,2.531
		c1.612,0.514,2.858,0.862,3.74,1.045c0.881,0.184,1.502,0.274,1.868,0.274c0.367,0,0.771,0.109,1.211,0.33
		c0.146,0.439-0.184,0.752-0.989,0.935c-0.81,0.184-1.761,0.274-2.858,0.274c-1.1,0-2.22-0.055-3.355-0.164
		c-1.139-0.11-1.963-0.237-2.475-0.387c-1.101-0.291-2.386-0.695-3.851-1.209c-1.47-0.513-3.19-1.229-5.17-2.146
		c-1.979-0.916-4.199-2.125-6.656-3.629c-2.457-1.502-5.188-3.428-8.194-5.775c-1.248-0.952-2.383-1.777-3.41-2.475
		c-1.027-0.696-1.906-1.301-2.639-1.815c-0.81-0.586-1.578-1.1-2.312-1.54c0.146,0.88,0.348,2.145,0.604,3.795
		c0.256,1.65,0.531,3.503,0.824,5.555c0.293,2.054,0.605,4.181,0.936,6.38s0.642,4.289,0.937,6.27
		c0.291,1.98,0.586,3.74,0.879,5.281c0.293,1.539,0.552,2.639,0.771,3.299c-1.1,0.439-2.164,0.513-3.189,0.221
		c-1.027-0.294-1.797-0.404-2.311-0.33c-0.293-4.84-0.789-9.936-1.484-15.289c-0.697-5.354-1.266-11.257-1.705-17.71
		c-0.074-0.22-0.092-0.275-0.055-0.165c0.035,0.11,0.072,0.203,0.109,0.275c0.037,0.074,0.037,0.074,0,0
		c-0.037-0.072-0.129-0.366-0.274-0.88c-0.808-1.1-1.448-1.925-1.925-2.475c-0.479-0.55-0.937-1.045-1.375-1.485
		c-0.439-0.44-0.918-0.935-1.43-1.485c-0.515-0.55-1.248-1.411-2.201-2.585c0.221-0.292,0.787-0.55,1.705-0.77
		c0.916-0.22,1.926-0.512,3.024-0.88c-0.367-2.492-0.66-4.821-0.88-6.985c-0.221-2.162-0.439-4.271-0.659-6.325
		c-0.221-2.052-0.44-4.087-0.66-6.105c-0.221-2.016-0.479-4.161-0.771-6.435c-0.66,0-2.365-0.055-5.115-0.165
		c-2.75-0.11-5.848-0.201-9.295-0.275c-0.586-0.366-1.045-0.677-1.375-0.935c-0.33-0.256-0.421-0.971-0.273-2.145
		c1.248-0.146,2.842-0.201,4.784-0.165c1.94,0.038,3.923,0.093,5.938,0.165c2.017,0.074,3.961,0.184,5.83,0.33
		c1.869,0.148,3.392,0.258,4.564,0.33c9.094,1.028,16.262,2.403,21.506,4.125c5.242,1.724,9.037,3.539,11.385,5.445
		c2.347,1.908,3.465,3.814,3.355,5.72C251.868,43.979,251.042,45.591,249.5,46.911z M217.932,55.051
		c2.421-0.44,5.298-1.155,8.637-2.145c3.336-0.99,6.524-2.052,9.569-3.19c3.041-1.136,5.627-2.31,7.754-3.52s3.151-2.327,3.08-3.355
		v-0.99c-0.293-1.1-1.468-2.236-3.521-3.41c-2.055-1.172-4.604-2.272-7.645-3.3c-3.045-1.026-6.346-1.98-9.9-2.86
		c-3.559-0.88-6.984-1.54-10.285-1.98c0.293,3.228,0.586,6.894,0.881,11C216.793,45.409,217.273,49.991,217.932,55.051z"/>
	<path fill="#77C4BC" d="M272.493,66.381c0.221-0.072,0.842-0.275,1.869-0.605c1.026-0.33,1.87-0.385,2.53-0.165
		c2.125-0.072,3.758,0.478,4.896,1.65c1.137,1.174,1.227,3.448,0.274,6.82c-1.396,3.74-3.246,6.858-5.556,9.351
		c-2.311,2.494-5.043,4.877-8.194,7.148c0.731,1.908,1.832,2.971,3.299,3.19c1.468,0.22,3.009-0.018,4.621-0.715
		c1.611-0.696,3.188-1.631,4.729-2.805c1.539-1.173,2.785-2.201,3.74-3.08c1.539-1.32,2.767-2.438,3.685-3.354
		c0.916-0.916,1.889-2.035,2.916-3.355c0.219-0.146,0.348-0.127,0.385,0.055c0.035,0.186,0.019,0.459-0.056,0.826
		c-0.073,0.367-0.184,0.879-0.329,1.539c-0.222,0.514-0.441,0.973-0.66,1.375c-0.222,0.404-0.533,0.844-0.937,1.32
		c-0.403,0.479-0.936,1.045-1.596,1.705c-0.658,0.66-1.467,1.539-2.42,2.641c-1.1,1.027-2.162,2.033-3.189,3.023
		c-1.026,0.989-2.108,1.854-3.244,2.586c-1.139,0.733-2.385,1.248-3.739,1.539c-1.356,0.295-2.916,0.295-4.677,0
		c-1.467-0.513-2.639-1.062-3.52-1.648s-1.559-1.191-2.035-1.814c-0.479-0.623-0.824-1.191-1.045-1.705s-0.367-0.953-0.438-1.32
		c-0.369-1.467-0.515-3.446-0.441-5.94c0.072-2.491,0.808-5.719,2.201-9.679c0.951-2.052,1.979-3.795,3.08-5.225
		C269.743,68.306,271.025,67.188,272.493,66.381z M267.653,85.851c0.95-0.513,2.069-1.228,3.354-2.146
		c1.28-0.916,2.491-1.979,3.629-3.19c1.137-1.209,2.127-2.546,2.971-4.014c0.843-1.466,1.302-3.006,1.375-4.62
		c0.222-1.1,0.183-1.87-0.108-2.31c-0.148-0.22-0.295-0.33-0.441-0.33c-1.248-0.586-2.494-0.402-3.74,0.55
		c-1.246,0.954-2.383,2.31-3.408,4.07c-1.029,1.76-1.891,3.723-2.586,5.885C267.999,81.91,267.653,83.945,267.653,85.851z"/>
	<path fill="#77C4BC" d="M301.642,66.381c0.22-0.072,0.843-0.275,1.869-0.605c1.024-0.33,1.868-0.385,2.528-0.165
		c2.127-0.072,3.758,0.478,4.896,1.65c1.135,1.174,1.227,3.448,0.273,6.82c-1.394,3.74-3.244,6.858-5.555,9.351
		c-2.31,2.494-5.043,4.877-8.195,7.148c0.731,1.908,1.832,2.971,3.301,3.19c1.467,0.22,3.006-0.018,4.619-0.715
		c1.613-0.696,3.191-1.631,4.729-2.805c1.541-1.173,2.787-2.201,3.74-3.08c1.541-1.32,2.769-2.438,3.687-3.354
		c0.916-0.916,1.887-2.035,2.914-3.355c0.221-0.146,0.348-0.127,0.385,0.055c0.037,0.186,0.018,0.459-0.055,0.826
		c-0.074,0.367-0.185,0.879-0.33,1.539c-0.22,0.514-0.439,0.973-0.66,1.375c-0.219,0.404-0.531,0.844-0.935,1.32
		c-0.403,0.479-0.937,1.045-1.596,1.705c-0.66,0.66-1.47,1.539-2.421,2.641c-1.1,1.027-2.163,2.033-3.188,3.023
		c-1.028,0.989-2.108,1.854-3.245,2.586c-1.138,0.733-2.384,1.248-3.74,1.539c-1.357,0.295-2.914,0.295-4.674,0
		c-1.47-0.513-2.642-1.062-3.521-1.648c-0.882-0.587-1.562-1.191-2.035-1.814c-0.479-0.623-0.825-1.191-1.045-1.705
		c-0.222-0.514-0.369-0.953-0.44-1.32c-0.367-1.467-0.515-3.446-0.439-5.94c0.072-2.491,0.807-5.719,2.199-9.679
		c0.953-2.052,1.979-3.795,3.08-5.225C298.892,68.306,300.172,67.188,301.642,66.381z M296.8,85.851
		c0.952-0.513,2.071-1.228,3.354-2.146c1.283-0.916,2.492-1.979,3.631-3.19c1.135-1.209,2.125-2.546,2.969-4.014
		c0.845-1.466,1.304-3.006,1.375-4.62c0.222-1.1,0.185-1.87-0.108-2.31c-0.147-0.22-0.293-0.33-0.438-0.33
		c-1.248-0.586-2.494-0.402-3.74,0.55c-1.248,0.954-2.385,2.31-3.41,4.07c-1.027,1.76-1.889,3.723-2.584,5.885
		C297.148,81.91,296.8,83.945,296.8,85.851z"/>
	<path fill="#77C4BC" d="M357.194,39.651c-0.223,1.32-0.48,2.714-0.771,4.18c-0.293,1.468-0.604,2.86-0.934,4.18
		s-0.605,2.458-0.826,3.41c-0.219,0.954-0.367,1.54-0.439,1.76c-0.439,1.248-1.027,2.86-1.76,4.84
		c-0.734,1.98-1.596,4.053-2.586,6.215c-0.988,2.164-2.107,4.328-3.354,6.49c-1.248,2.164-2.531,4.015-3.854,5.555
		c0,1.1,0.129,2.954,0.389,5.555c0.256,2.604,0.564,5.408,0.934,8.416c0.367,3.008,0.715,5.958,1.045,8.854
		c0.33,2.896,0.531,5.151,0.605,6.766c-0.367,0.365-0.697,0.293-0.99-0.221c-0.293-0.515-0.734-1.394-1.32-2.64
		c-0.439-1.908-0.789-3.668-1.045-5.28c-0.258-1.611-0.494-3.244-0.715-4.896c-0.219-1.65-0.459-3.392-0.715-5.226
		c-0.258-1.832-0.645-3.922-1.154-6.27c-1.395,1.76-3.062,3.758-5.006,5.994c-1.943,2.238-3.959,4.219-6.049,5.939
		c-2.09,1.725-4.146,2.935-6.16,3.631c-2.019,0.695-3.761,0.385-5.226-0.937c-0.881-1.172-1.267-2.547-1.156-4.125
		c0.111-1.576,0.552-3.188,1.32-4.84c0.771-1.649,1.76-3.281,2.971-4.896c1.209-1.611,2.438-3.115,3.685-4.51
		c1.246-1.392,2.42-2.602,3.521-3.63c1.1-1.026,1.904-1.76,2.42-2.2c1.023-0.66,1.887-1.191,2.584-1.595
		c0.695-0.402,1.318-0.732,1.871-0.99c0.549-0.256,1.115-0.44,1.705-0.55c0.586-0.11,1.316-0.127,2.197-0.055
		c-0.146-1.686-0.236-3.702-0.273-6.05c-0.037-2.346-0.037-4.711,0-7.095c0.037-2.382,0.109-4.601,0.221-6.655
		c0.109-2.052,0.275-3.63,0.494-4.73c0.145-1.612,0.496-3.3,1.045-5.06c0.551-1.76,1.246-3.465,2.09-5.115
		c0.844-1.65,1.777-3.116,2.807-4.4c1.025-1.282,2.145-2.2,3.354-2.75c1.211-0.55,2.457-0.677,3.74-0.385
		c1.283,0.294,2.547,1.21,3.795,2.75c1.027,1.248,1.541,2.805,1.541,4.675S357.194,37.599,357.194,39.651z M326.721,79.251
		c-1.979,2.053-3.43,3.942-4.346,5.665c-0.916,1.725-1.668,3.318-2.254,4.785c0,0.221,0,0.567,0,1.045
		c0,0.479,0.056,0.936,0.164,1.375c0.111,0.438,0.33,0.824,0.66,1.154s0.861,0.424,1.596,0.274c0.732-0.291,1.338-0.586,1.814-0.879
		s0.916-0.604,1.32-0.937c0.402-0.33,0.842-0.678,1.32-1.045c0.477-0.365,1.08-0.842,1.814-1.43c1.025-1.102,2.291-2.348,3.795-3.74
		c1.502-1.393,2.82-2.859,3.961-4.4c1.135-1.539,1.887-3.115,2.254-4.729c0.367-1.612-0.109-3.19-1.43-4.73
		c-0.516,0-1.047,0.074-1.598,0.22c-0.549,0.147-1.229,0.495-2.033,1.045c-0.809,0.55-1.777,1.32-2.916,2.31
		C329.709,76.226,328.334,77.563,326.721,79.251z M342.67,69.021c1.32-1.466,2.422-3.025,3.301-4.675
		c0.883-1.65,1.871-3.611,2.973-5.885c0.951-1.98,1.812-4.51,2.584-7.59c0.77-3.08,1.301-6.105,1.596-9.075
		c0.291-2.97,0.291-5.555,0-7.755c-0.295-2.2-1.027-3.372-2.201-3.52c-1.027-0.146-1.979,0.239-2.859,1.155
		c-0.879,0.918-1.688,2.054-2.42,3.41c-0.734,1.357-1.357,2.805-1.869,4.345c-0.514,1.54-0.881,2.898-1.102,4.07
		c-0.293,1.468-0.494,2.788-0.604,3.96c-0.111,1.174-0.186,2.403-0.223,3.685c-0.035,1.284-0.092,2.678-0.162,4.18
		c-0.074,1.504-0.223,3.355-0.441,5.555c0,1.1,0.055,2.2,0.166,3.3c0.109,1.1,0.256,2.035,0.438,2.805
		c0.184,0.77,0.35,1.358,0.496,1.76C342.489,69.149,342.6,69.241,342.67,69.021z"/>
</g>
<g>
	<g>
		<path fill="#77C4BC" d="M9.014,121.054c0-0.319,0.288-0.606,0.608-0.606h1.216c0.352,0,0.608,0.287,0.608,0.606v13.344
			c0,3.647,2.271,6.496,6.016,6.496c3.775,0,6.08-2.784,6.08-6.432v-13.408c0-0.319,0.256-0.606,0.608-0.606h1.216
			c0.32,0,0.608,0.287,0.608,0.606v13.535c0,4.864-3.456,8.575-8.511,8.575c-5.024,0-8.448-3.711-8.448-8.575L9.014,121.054
			L9.014,121.054z"/>
		<path fill="#77C4BC" d="M29.718,141.053c0.128-0.191,0.352-0.641,0.448-0.8c0.16-0.257,0.512-0.32,0.864-0.097
			c0,0,1.376,1.119,3.008,1.119c1.312,0,2.08-0.672,2.08-1.535c0-1.119-0.96-1.633-2.816-2.561
			c-1.696-0.832-3.647-1.951-3.647-4.127c0-1.344,1.088-3.328,4.063-3.328c1.664,0,2.944,0.576,3.552,0.992
			c0.288,0.191,0.384,0.64,0.192,0.992l-0.256,0.512c-0.192,0.352-0.64,0.447-0.928,0.287c0,0-1.376-0.768-2.56-0.768
			c-1.44,0-1.824,0.735-1.824,1.279c0,1.057,1.056,1.536,2.368,2.176c2.208,1.057,4.192,2.049,4.192,4.353
			c0,1.856-1.792,3.616-4.416,3.616c-2.144,0-3.456-0.896-4.16-1.44C29.718,141.597,29.621,141.277,29.718,141.053z"/>
		<path fill="#77C4BC" d="M47.189,129.726c3.36,0,5.792,2.496,5.792,5.854c0,0.226-0.032,0.642-0.064,0.865
			c-0.032,0.318-0.288,0.543-0.576,0.543h-9.215c0.128,2.145,2.016,4.16,4.288,4.16c1.344,0,2.432-0.513,3.168-0.961
			c0.448-0.256,0.64-0.416,0.896-0.062c0.192,0.256,0.352,0.479,0.544,0.734c0.224,0.289,0.352,0.48-0.128,0.832
			c-0.768,0.608-2.496,1.473-4.704,1.473c-3.872,0-6.271-3.039-6.271-6.719C40.917,132.83,43.317,129.726,47.189,129.726z
			 M50.773,135.197c-0.096-1.855-1.632-3.52-3.584-3.52c-2.144,0-3.808,1.536-4.031,3.52H50.773z"/>
		<path fill="#77C4BC" d="M56.437,130.654c0-0.32,0.288-0.607,0.608-0.607h0.608c0.256,0,0.48,0.16,0.544,0.447l0.256,0.928
			c0,0,1.184-1.695,3.84-1.695c0.96,0,2.56,0.16,2.24,1.057l-0.384,1.088c-0.16,0.416-0.448,0.416-0.768,0.287
			c-0.288-0.127-0.768-0.256-1.248-0.256c-2.432,0-3.488,1.793-3.488,1.793v8.543c0,0.319-0.288,0.607-0.608,0.607h-0.992
			c-0.32,0-0.608-0.288-0.608-0.607V130.654z"/>
		<path fill="#77C4BC" d="M75.156,121.054c0-0.319,0.256-0.606,0.608-0.606h12.607c0.352,0,0.608,0.287,0.608,0.606v0.929
			c0,0.319-0.256,0.608-0.608,0.608H77.62v7.807h9.184c0.32,0,0.608,0.288,0.608,0.607v0.929c0,0.354-0.288,0.608-0.608,0.608H77.62
			v8.157h10.751c0.352,0,0.608,0.289,0.608,0.608v0.929c0,0.319-0.256,0.607-0.608,0.607H75.764c-0.352,0-0.608-0.288-0.608-0.607
			V121.054z"/>
		<path fill="#77C4BC" d="M95.924,136.318l-4.063-5.439c-0.32-0.416-0.128-0.832,0.416-0.832h1.344c0.224,0,0.416,0.128,0.512,0.256
			l3.04,4.352h0.032l3.167-4.352c0.096-0.128,0.288-0.256,0.512-0.256h1.344c0.544,0,0.736,0.416,0.416,0.832l-4.064,5.406
			l4.096,5.729c0.288,0.416,0.096,0.832-0.416,0.832h-1.184c-0.192,0-0.384-0.16-0.48-0.288l-3.392-4.704h-0.032l-3.328,4.736
			c-0.096,0.128-0.288,0.256-0.512,0.256h-1.184c-0.544,0-0.704-0.416-0.416-0.832L95.924,136.318z"/>
		<path fill="#77C4BC" d="M108.372,151.836c0,0.32-0.288,0.607-0.608,0.607h-0.992c-0.32,0-0.608-0.287-0.608-0.607v-21.184
			c0-0.319,0.288-0.606,0.608-0.606h0.672c0.288,0,0.384,0.096,0.512,0.416l0.224,0.606c0,0,1.408-1.344,3.711-1.344
			c3.488,0,6.048,3.072,6.048,6.752c0,3.743-2.624,6.688-6.144,6.688c-2.112,0-3.424-1.057-3.424-1.057L108.372,151.836
			L108.372,151.836z M111.508,141.021c2.464,0,4.192-2.016,4.192-4.575c0-2.496-1.472-4.703-4.032-4.703
			c-2.08,0-3.264,1.567-3.264,1.567v6.593C108.404,139.902,109.748,141.021,111.508,141.021z"/>
		<path fill="#77C4BC" d="M126.868,129.726c3.36,0,5.792,2.496,5.792,5.854c0,0.226-0.032,0.642-0.064,0.865
			c-0.032,0.318-0.288,0.543-0.576,0.543h-9.215c0.128,2.145,2.016,4.16,4.288,4.16c1.344,0,2.432-0.513,3.168-0.961
			c0.448-0.256,0.64-0.416,0.896-0.062c0.192,0.256,0.352,0.479,0.544,0.734c0.224,0.289,0.352,0.48-0.128,0.832
			c-0.768,0.608-2.496,1.473-4.704,1.473c-3.872,0-6.271-3.039-6.271-6.719C120.596,132.83,122.996,129.726,126.868,129.726z
			 M130.452,135.197c-0.096-1.855-1.632-3.52-3.584-3.52c-2.144,0-3.808,1.536-4.031,3.52H130.452z"/>
		<path fill="#77C4BC" d="M136.116,130.654c0-0.32,0.288-0.607,0.608-0.607h0.608c0.256,0,0.48,0.16,0.544,0.447l0.256,0.928
			c0,0,1.184-1.695,3.84-1.695c0.96,0,2.56,0.16,2.24,1.057l-0.384,1.088c-0.16,0.416-0.448,0.416-0.768,0.287
			c-0.288-0.127-0.768-0.256-1.248-0.256c-2.432,0-3.488,1.793-3.488,1.793v8.543c0,0.319-0.288,0.607-0.608,0.607h-0.992
			c-0.32,0-0.608-0.288-0.608-0.607V130.654z"/>
		<path fill="#77C4BC" d="M146.324,122.623c0-0.863,0.672-1.535,1.504-1.535c0.864,0,1.536,0.672,1.536,1.535
			c0,0.832-0.672,1.504-1.536,1.504C146.995,124.126,146.324,123.455,146.324,122.623z M146.772,130.654
			c0-0.32,0.288-0.607,0.608-0.607h0.992c0.32,0,0.608,0.287,0.608,0.607v11.584c0,0.318-0.288,0.606-0.608,0.606h-0.992
			c-0.32,0-0.608-0.288-0.608-0.606V130.654z"/>
		<path fill="#77C4BC" d="M158.835,129.726c3.36,0,5.792,2.496,5.792,5.854c0,0.226-0.032,0.642-0.064,0.865
			c-0.032,0.318-0.288,0.543-0.576,0.543h-9.215c0.128,2.145,2.016,4.16,4.288,4.16c1.344,0,2.432-0.513,3.168-0.961
			c0.448-0.256,0.64-0.416,0.896-0.062c0.192,0.256,0.352,0.479,0.544,0.734c0.224,0.289,0.352,0.48-0.128,0.832
			c-0.768,0.608-2.496,1.473-4.704,1.473c-3.872,0-6.271-3.039-6.271-6.719C152.563,132.83,154.963,129.726,158.835,129.726z
			 M162.419,135.197c-0.096-1.855-1.632-3.52-3.584-3.52c-2.144,0-3.808,1.536-4.032,3.52H162.419z"/>
		<path fill="#77C4BC" d="M168.083,130.654c0-0.32,0.288-0.607,0.608-0.607h0.608c0.288,0,0.448,0.128,0.512,0.384l0.288,0.991
			c0,0,1.824-1.695,4.48-1.695c3.711,0,4.959,2.432,4.959,5.76v6.752c0,0.319-0.288,0.607-0.608,0.607h-1.024
			c-0.32,0-0.608-0.288-0.608-0.607v-6.752c0-2.432-1.088-3.615-2.88-3.615c-2.4,0-4.128,1.824-4.128,1.824v8.543
			c0,0.319-0.288,0.607-0.608,0.607h-0.992c-0.32,0-0.608-0.288-0.608-0.607L168.083,130.654L168.083,130.654z"/>
		<path fill="#77C4BC" d="M189.522,129.726c1.92,0,3.424,0.769,4.576,2.24c0.225,0.287,0.16,0.672-0.128,0.896l-0.606,0.514
			c-0.48,0.447-0.642,0.127-0.929-0.129c-0.641-0.736-1.697-1.344-2.944-1.344c-2.4,0-4.256,1.983-4.256,4.543
			c0,2.561,1.824,4.607,4.224,4.607c1.92,0,2.656-0.96,3.392-1.663c0.384-0.385,0.608-0.319,0.96-0.063l0.352,0.256
			c0.32,0.225,0.416,0.576,0.226,0.896c-0.96,1.535-2.72,2.688-4.896,2.688c-3.552,0-6.56-2.848-6.56-6.688
			C182.931,132.703,186.035,129.726,189.522,129.726z"/>
		<path fill="#77C4BC" d="M203.314,129.726c3.358,0,5.792,2.496,5.792,5.854c0,0.226-0.031,0.642-0.062,0.865
			c-0.033,0.318-0.289,0.543-0.576,0.543h-9.217c0.129,2.145,2.017,4.16,4.289,4.16c1.344,0,2.432-0.513,3.168-0.961
			c0.447-0.256,0.639-0.416,0.896-0.062c0.192,0.256,0.353,0.479,0.544,0.734c0.225,0.289,0.352,0.48-0.128,0.832
			c-0.769,0.608-2.496,1.473-4.704,1.473c-3.871,0-6.271-3.039-6.271-6.719C197.042,132.83,199.444,129.726,203.314,129.726z
			 M206.898,135.197c-0.096-1.855-1.632-3.52-3.584-3.52c-2.144,0-3.808,1.536-4.03,3.52H206.898z"/>
		<path fill="#77C4BC" d="M220.625,121.054c0-0.319,0.256-0.606,0.607-0.606h8.287c3.84,0,6.977,3.008,6.977,6.814
			c0,2.943-1.953,5.407-4.735,6.527l4.383,8.128c0.226,0.416,0,0.928-0.544,0.928h-1.632c-0.288,0-0.447-0.16-0.513-0.288
			l-4.256-8.479h-6.111v8.16c0,0.318-0.287,0.606-0.607,0.606h-1.247c-0.353,0-0.608-0.288-0.608-0.606V121.054L220.625,121.054z
			 M229.362,131.966c2.463,0,4.606-2.049,4.606-4.672c0-2.433-2.144-4.513-4.606-4.513h-6.207v9.185H229.362z"/>
		<path fill="#77C4BC" d="M245.137,129.726c3.359,0,5.792,2.496,5.792,5.854c0,0.226-0.032,0.642-0.063,0.865
			c-0.033,0.318-0.289,0.543-0.576,0.543h-9.215c0.127,2.145,2.016,4.16,4.287,4.16c1.344,0,2.432-0.513,3.168-0.961
			c0.447-0.256,0.641-0.416,0.896-0.062c0.19,0.256,0.353,0.479,0.544,0.734c0.225,0.289,0.352,0.48-0.128,0.832
			c-0.769,0.608-2.496,1.473-4.704,1.473c-3.871,0-6.271-3.039-6.271-6.719C238.866,132.83,241.266,129.726,245.137,129.726z
			 M248.721,135.197c-0.096-1.855-1.633-3.52-3.584-3.52c-2.145,0-3.809,1.536-4.031,3.52H248.721z"/>
		<path fill="#77C4BC" d="M253.618,141.053c0.129-0.191,0.353-0.641,0.448-0.8c0.16-0.257,0.513-0.32,0.863-0.097
			c0,0,1.376,1.119,3.008,1.119c1.312,0,2.08-0.672,2.08-1.535c0-1.119-0.96-1.633-2.815-2.561
			c-1.695-0.832-3.647-1.951-3.647-4.127c0-1.344,1.088-3.328,4.063-3.328c1.664,0,2.943,0.576,3.553,0.992
			c0.287,0.191,0.384,0.64,0.191,0.992l-0.257,0.512c-0.19,0.352-0.64,0.447-0.928,0.287c0,0-1.376-0.768-2.56-0.768
			c-1.44,0-1.824,0.735-1.824,1.279c0,1.057,1.056,1.536,2.367,2.176c2.209,1.057,4.191,2.049,4.191,4.353
			c0,1.856-1.792,3.616-4.416,3.616c-2.145,0-3.455-0.896-4.158-1.44C253.618,141.597,253.522,141.277,253.618,141.053z"/>
		<path fill="#77C4BC" d="M271.088,129.726c3.359,0,5.791,2.496,5.791,5.854c0,0.226-0.031,0.642-0.063,0.865
			c-0.032,0.318-0.288,0.543-0.575,0.543h-9.216c0.128,2.145,2.017,4.16,4.288,4.16c1.344,0,2.432-0.513,3.167-0.961
			c0.448-0.256,0.642-0.416,0.896-0.062c0.191,0.256,0.353,0.479,0.545,0.734c0.224,0.289,0.352,0.48-0.129,0.832
			c-0.769,0.608-2.496,1.473-4.703,1.473c-3.871,0-6.271-3.039-6.271-6.719C264.817,132.83,267.217,129.726,271.088,129.726z
			 M274.672,135.197c-0.096-1.855-1.633-3.52-3.584-3.52c-2.145,0-3.809,1.536-4.031,3.52H274.672z"/>
		<path fill="#77C4BC" d="M284.53,134.718c1.375,0,2.719,0.416,2.719,0.416c0.031-2.368-0.256-3.456-2.08-3.456
			c-1.76,0-3.264,0.479-3.84,0.704c-0.319,0.127-0.512-0.032-0.606-0.32l-0.257-0.8c-0.129-0.384,0.064-0.576,0.354-0.704
			c0.19-0.096,2.047-0.832,4.446-0.832c3.265,0,4.063,1.664,4.063,5.408v7.104c0,0.318-0.287,0.606-0.607,0.606h-0.607
			c-0.353,0-0.447-0.19-0.545-0.479l-0.256-0.863c-0.672,0.672-1.982,1.664-3.968,1.664c-2.239,0-3.937-1.633-3.937-4.191
			C279.409,136.542,281.233,134.718,284.53,134.718z M283.698,141.246c1.6,0,2.976-0.992,3.52-1.793v-2.527
			c-0.385-0.225-1.28-0.512-2.688-0.512c-1.793,0-3.072,0.896-3.072,2.561C281.456,140.253,282.321,141.246,283.698,141.246z"/>
		<path fill="#77C4BC" d="M293.745,130.654c0-0.32,0.287-0.607,0.607-0.607h0.607c0.257,0,0.479,0.16,0.543,0.447l0.258,0.928
			c0,0,1.184-1.695,3.839-1.695c0.96,0,2.562,0.16,2.239,1.057l-0.383,1.088c-0.16,0.416-0.449,0.416-0.769,0.287
			c-0.288-0.127-0.769-0.256-1.248-0.256c-2.433,0-3.487,1.793-3.487,1.793v8.543c0,0.319-0.289,0.607-0.607,0.607h-0.992
			c-0.32,0-0.607-0.288-0.607-0.607V130.654L293.745,130.654z"/>
		<path fill="#77C4BC" d="M309.905,129.726c1.92,0,3.424,0.769,4.575,2.24c0.224,0.287,0.159,0.672-0.128,0.896l-0.607,0.514
			c-0.479,0.447-0.641,0.127-0.929-0.129c-0.641-0.736-1.696-1.344-2.944-1.344c-2.398,0-4.254,1.983-4.254,4.543
			c0,2.561,1.822,4.607,4.224,4.607c1.92,0,2.655-0.96,3.392-1.663c0.385-0.385,0.607-0.319,0.96-0.063l0.353,0.256
			c0.32,0.225,0.416,0.576,0.224,0.896c-0.959,1.535-2.72,2.688-4.896,2.688c-3.553,0-6.561-2.848-6.561-6.688
			C303.312,132.703,306.417,129.726,309.905,129.726z"/>
		<path fill="#77C4BC" d="M318.384,121.054c0-0.319,0.288-0.606,0.608-0.606h0.99c0.32,0,0.608,0.287,0.608,0.606v10.367
			c0,0,1.696-1.695,4.288-1.695c3.166,0,4.959,2.017,4.959,5.761v6.752c0,0.318-0.289,0.606-0.607,0.606h-1.023
			c-0.32,0-0.607-0.288-0.607-0.606v-6.752c0-2.433-1.088-3.615-2.881-3.615c-2.432,0-4.127,1.791-4.127,1.791v8.576
			c0,0.318-0.288,0.606-0.607,0.606h-0.992c-0.319,0-0.607-0.288-0.607-0.606L318.384,121.054L318.384,121.054z"/>
		<path fill="#77C4BC" d="M339.536,129.726c3.361,0,5.793,2.496,5.793,5.854c0,0.226-0.033,0.642-0.064,0.865
			c-0.031,0.318-0.287,0.543-0.576,0.543h-9.215c0.129,2.145,2.016,4.16,4.287,4.16c1.346,0,2.434-0.513,3.168-0.961
			c0.447-0.256,0.641-0.416,0.896-0.062c0.189,0.256,0.352,0.479,0.543,0.734c0.225,0.289,0.352,0.48-0.127,0.832
			c-0.77,0.608-2.496,1.473-4.705,1.473c-3.871,0-6.271-3.039-6.271-6.719C333.264,132.83,335.665,129.726,339.536,129.726z
			 M343.12,135.197c-0.096-1.855-1.631-3.52-3.584-3.52c-2.143,0-3.807,1.536-4.031,3.52H343.12z"/>
		<path fill="#77C4BC" d="M348.784,130.654c0-0.32,0.287-0.607,0.607-0.607h0.607c0.256,0,0.48,0.16,0.543,0.447l0.258,0.928
			c0,0,1.184-1.695,3.838-1.695c0.961,0,2.562,0.16,2.24,1.057l-0.383,1.088c-0.16,0.416-0.449,0.416-0.768,0.287
			c-0.289-0.127-0.77-0.256-1.248-0.256c-2.434,0-3.488,1.793-3.488,1.793v8.543c0,0.319-0.289,0.607-0.607,0.607h-0.992
			c-0.32,0-0.607-0.288-0.607-0.607V130.654L348.784,130.654z"/>
	</g>
</g>
</svg>
